<?xml version="1.0" encoding="UTF-8" standalone="no"?><svg xmlns="http://www.w3.org/2000/svg" xmlns:xlink="http://www.w3.org/1999/xlink" clip-rule="evenodd" fill="#e2bc69" fill-rule="evenodd" height="2866.3" preserveAspectRatio="xMidYMid meet" stroke-linejoin="round" stroke-miterlimit="2" version="1" viewBox="178.1 453.4 3381.6 2866.3" width="3381.6" zoomAndPan="magnify"><g><g><path d="M151964 0H153175.32V1191.41H151964z" fill="none" transform="translate(-474887.525 -.025) scale(3.125)"/><g><g id="change1_1"><path d="M24522,23323.4C24475.6,23312.8 24435.3,23290.5 24406.3,23260.8C24397.4,23266.9 24386.8,23270.4 24375.4,23270.4C24344.9,23270.4 24320,23245 24320,23213.6C24320,23193.5 24330.3,23175.7 24345.8,23165.7C24347.8,23164.3 24350,23163.1 24352.3,23162.1C24341.5,23132.4 24339.2,23101.2 24338.9,23095.7C24334.7,22994.5 24374.1,22909.6 24477.6,22861.4C24600.6,22804.1 24695.1,22843.1 24746.3,22878.4C24774.7,22897.9 24794.1,22921.2 24807.2,22942.3C24822.6,22926.2 24840.2,22911.4 24859.1,22899.7C24893.5,22878.4 24931.8,22867.3 24967.1,22875.8C24967.2,22875.8 24967.3,22875.8 24967.4,22875.9C25008.4,22863.8 25054.3,22862.8 25096.5,22872.8C25096.8,22872.7 25097.2,22872.7 25097.6,22872.7C25143.5,22872.7 25195.9,22887.9 25228.9,22920.5C25288.6,22979.8 25283.5,23023 25291.9,23047.4C25300.5,23072.2 25312.9,23096 25323.1,23120.4C25333.7,23145.8 25342,23171.8 25342,23200.3C25342.1,23225 25328.5,23251.4 25308.6,23268.5C25306.2,23270.5 25303.8,23272.4 25301.3,23274.1C25302.2,23296.1 25309,23316.6 25318.5,23337C25329.3,23360.3 25346.6,23380.2 25362,23401.1C25378.4,23423.2 25392.7,23446.3 25396.8,23474.8C25402.1,23511 25382.4,23537.6 25354.1,23551.8C25331.1,23563.4 25302.3,23566.5 25277.4,23559.9C25290.7,23582.4 25300.3,23603.6 25302.1,23619.2C25304.5,23639.3 25301.5,23661 25275.9,23671C25262.3,23676.4 25250.8,23672.1 25243.1,23667.1C25241.5,23672.9 25238.3,23679.5 25232.2,23684.8C25223.8,23692 25210.6,23697.1 25198.9,23693.2C25193.7,23691.4 25189.7,23688.3 25186.7,23684.6C25184.9,23688.4 25182.4,23691.8 25179.3,23694.4C25171.9,23700.4 25158.1,23704.7 25146.4,23695.2C25145.8,23694.7 25145.2,23694.1 25144.6,23693.6C25141.6,23700.1 25136.2,23707 25126.9,23711.7C25115.3,23717.5 25097.3,23721.3 25078.2,23710.8C25073.7,23708.3 25069.6,23703.9 25066.5,23699.7C25059.7,23708.2 25046.1,23718.7 25020.8,23718.7L25020.8,23718.7C25020.6,23718.7 25020.5,23718.7 25020.3,23718.7L25020.3,23718.7C24997.1,23717 24984.2,23707.2 24977.5,23699.3C24974.4,23703.6 24970.2,23708.3 24965.6,23710.8C24946.4,23721.3 24928.5,23717.5 24916.9,23711.7C24907.5,23707 24902.2,23700.1 24899.1,23693.6C24898.6,23694.1 24898,23694.7 24897.3,23695.2C24885.7,23704.7 24871.8,23700.4 24864.5,23694.4C24861.4,23691.8 24858.9,23688.4 24857.1,23684.6C24854.1,23688.3 24850.1,23691.4 24844.9,23693.2C24833.2,23697.1 24819.9,23692 24811.6,23684.8C24805.4,23679.5 24802.3,23672.9 24800.6,23667.1C24793,23672.1 24781.5,23676.4 24767.9,23671C24742.3,23661 24739.3,23639.3 24741.7,23619.2C24743.6,23602.9 24753.9,23580.5 24768.2,23556.8C24749,23555.6 24719.5,23551.5 24694.2,23538.4C24693.3,23537.9 24692.3,23537.4 24691.4,23536.9C24691.2,23538 24691.1,23538.7 24691,23538.9C24690.4,23541.3 24689,23542.2 24688.4,23542.7C24687.9,23543 24686.5,23543.5 24684.3,23544C24685.6,23555.3 24691,23602.9 24691.7,23625.4C24691.8,23628.2 24691.8,23630.6 24691.8,23632.7C24697.2,23635 24701.5,23639.7 24703.9,23645.5C24708.2,23655.8 24706.7,23669.4 24698.2,23677.3C24692.4,23682.8 24683.2,23686.4 24673.3,23688.4C24659.6,23691.2 24644.5,23691.1 24636.4,23689.9C24622.8,23688 24612,23684.2 24604.8,23675.4C24600.1,23669.8 24596.8,23662 24595.5,23650.8C24594.5,23649.3 24593.4,23646.5 24592.5,23642.7C24592,23640.6 24591.5,23638.2 24591.1,23635.4C24590.6,23638.2 24590.2,23640.6 24589.7,23642.7C24588.8,23646.5 24587.7,23649.3 24586.7,23650.8C24585.3,23662 24582,23669.8 24577.3,23675.4C24570.1,23684.2 24559.4,23688 24545.7,23689.9C24537.7,23691.1 24522.5,23691.2 24508.8,23688.4C24498.9,23686.4 24489.8,23682.8 24483.9,23677.3C24475.4,23669.4 24473.9,23655.8 24478.2,23645.5C24480.7,23639.7 24484.9,23635 24490.4,23632.7C24490.3,23630.6 24490.3,23628.2 24490.4,23625.4C24490.9,23609.2 24493.9,23579.9 24496,23560.6C24487.6,23562.5 24480,23561.6 24473.6,23558.6C24462.4,23553.4 24454.2,23541.4 24451,23524.8C24451,23524.6 24451,23524.5 24451,23524.3C24449.3,23523.5 24447.9,23522.7 24446.6,23522C24443.4,23520.2 24441.2,23518.6 24440.3,23517.6C24439.2,23516.5 24438.7,23515.4 24438.5,23514.5C24438.4,23514.2 24438.1,23513.1 24438.2,23511.4C24438.3,23509.4 24438.9,23504.4 24439.9,23497.2C24445.2,23461.9 24463,23372.9 24497.9,23332.1C24498.7,23331.1 24499.8,23330.4 24501,23330.1L24522,23323.4ZM24357.3,23174.4C24355.1,23175.5 24353,23176.8 24351,23178.3C24340.3,23186.2 24333.3,23199.1 24333.3,23213.6C24333.3,23237.6 24352.1,23257.1 24375.4,23257.1C24383.4,23257.1 24390.8,23254.8 24397.2,23250.8C24391.9,23244.6 24387.1,23238 24382.8,23231.3C24373.5,23216.7 24366.7,23201.1 24362.6,23184.6C24360.7,23181.3 24358.9,23177.9 24357.3,23174.4ZM24378.3,23191.3C24381.8,23202.2 24386.7,23212.6 24392.8,23222.4C24397.7,23228.7 24402.9,23234.8 24408.4,23240.6C24411.4,23243.9 24414.6,23247 24417.9,23250.1C24453.8,23284.1 24500.2,23307.1 24551.7,23313.9C24553.6,23313.8 24555.6,23314.1 24557.6,23314.6C24566,23315.5 24574.5,23315.9 24583.2,23315.9C24646.2,23315.9 24703.7,23291.6 24746.6,23251.9C24742.3,23246.6 24739,23241.2 24736.5,23235.6C24726.9,23222.8 24718,23209.9 24716.5,23195.6C24714,23172.4 24718.1,23147.1 24727.9,23125.8C24728.7,23124.2 24729.4,23122.6 24730.3,23121C24731,23119.5 24731.8,23118 24732.7,23116.6C24725.2,23117.1 24717.7,23117.1 24710.2,23116.7C24688.1,23115.4 24666.3,23109.9 24647.4,23099.6C24647.9,23101.1 24648.3,23102.5 24648.6,23103.6C24651.8,23113 24657.5,23120.1 24662.1,23125.2C24665.8,23129.3 24668.9,23132.5 24670.2,23134.5C24672.3,23137.8 24672.1,23140.6 24671.3,23142.5C24670.5,23144.5 24668,23147.7 24661.2,23147.7C24644.7,23147.7 24589.9,23143.5 24542.4,23111.3C24526.5,23100.4 24514.9,23086 24507.2,23073.7C24507.5,23075.9 24507.9,23078.2 24508.3,23080.7C24511.2,23095.4 24518.2,23110.2 24522.2,23120.5C24524.3,23126 24525.6,23130.5 24525.7,23133.4C24525.9,23137.8 24524.1,23140.5 24521.6,23142.1C24519.4,23143.5 24515,23144.4 24508.1,23141.4C24501.3,23138.4 24478.4,23126.2 24461.4,23095C24452.5,23117.3 24438.3,23142.9 24421,23162.1C24408.2,23176.4 24393.6,23187.2 24378.3,23191.3ZM24797.9,22952.6C24785.5,22931.9 24766.8,22908.6 24738.8,22889.4C24690.1,22855.8 24600.2,22819 24483.2,22873.5C24385.4,22919.1 24348.2,22999.4 24352.3,23095.2C24352.5,23100.3 24354.6,23130.1 24364.8,23157.9C24367.5,23165.1 24370.6,23172.1 24374.4,23178.6C24374.6,23178.5 24374.7,23178.5 24374.8,23178.5C24387.8,23175.1 24400.1,23165.5 24411.1,23153.2C24430.6,23131.5 24445.9,23101.1 24453.5,23077.8C24449.6,23067.6 24446.4,23056 24444.3,23042.7C24443.7,23039.1 24446.2,23035.6 24449.8,23035.1C24453.4,23034.5 24456.8,23037 24457.4,23040.6C24466.6,23098.7 24498.6,23121.4 24510.7,23127.8C24510.5,23127.2 24510.2,23126.6 24510,23126C24505.8,23115.1 24498.3,23099 24495.2,23083.2C24490.8,23060 24494.6,23045.4 24494.6,23045.4C24495.3,23042.5 24497.8,23040.5 24500.7,23040.4C24503.7,23040.2 24506.4,23042 24507.3,23044.8C24507.3,23044.8 24519.8,23079.8 24549.9,23100.2C24587.8,23126 24630.7,23132.7 24652.1,23134.1C24646.5,23127.9 24639.8,23119.2 24636,23107.9C24633.8,23101.2 24630.5,23087.7 24630.5,23085.6C24630.4,23081.7 24632.7,23080.1 24633.6,23079.5C24635.6,23078.2 24638.2,23077.5 24641.2,23079.8C24668.7,23100.4 24706.4,23106.8 24741.3,23102.3C24747.1,23092.9 24752.3,23083.1 24753.4,23072.3C24753.5,23072.1 24753.5,23071.9 24753.5,23071.8C24753.2,23069.7 24752.9,23067.7 24752.6,23065.6C24752.1,23061.3 24751.7,23056.8 24751.6,23052.2C24751.5,23044.6 24752.2,23036.6 24754.6,23027.8C24761,23004.1 24776.7,22977.3 24797.9,22952.6ZM25266.3,23542.1C25267.1,23542.2 25268,23542.4 25268.7,23542.7C25292.8,23553.7 25324,23552 25348.1,23539.9C25371.4,23528.2 25387.9,23506.5 25383.6,23476.7C25379.9,23450.5 25366.3,23429.3 25351.3,23409C25335.3,23387.4 25317.6,23366.7 25306.4,23342.6C25297.2,23322.7 25290.4,23302.7 25288.4,23281.5C25271.8,23288.9 25253.2,23290.1 25235.2,23281.4C25233.8,23280.7 25229.2,23278.4 25225.5,23276C25223.3,23276.3 25221.1,23276.4 25218.9,23276.4C25207.5,23276.4 25196.9,23272.9 25188.1,23266.8C25179.9,23275.2 25170.8,23283 25161,23290.1C25161.5,23290.7 25161.8,23291.4 25162.1,23292.2C25168.7,23314.6 25187.6,23326.3 25208.7,23340.6C25232,23356.4 25258,23374.9 25276.8,23409.8C25287.1,23428.8 25286.7,23450.8 25276.2,23464.7C25269,23474.3 25257,23480.6 25239.7,23479.4C25236.1,23479.2 25233.3,23476 25233.5,23472.4C25233.8,23468.7 25236.9,23465.9 25240.6,23466.1C25252.3,23466.9 25260.7,23463.2 25265.6,23456.7C25273.3,23446.4 25272.7,23430.2 25265.1,23416.1C25243.9,23376.7 25212.5,23359.9 25188,23342.6C25170.4,23330.1 25156.1,23317.3 25149.8,23297.6C25133.2,23308.1 25114.7,23316.8 25094.8,23323.2C25104.4,23329.6 25112.8,23339.1 25119.9,23350C25131.5,23367.7 25139.8,23389.2 25145.3,23406.9C25166,23422.2 25187.8,23440.8 25202.1,23457.4C25220.5,23478.5 25245.8,23510.6 25266.3,23542.1ZM25243.5,23270.5C25263.5,23278.8 25284.1,23272 25299.9,23258.4C25316.9,23243.8 25328.7,23221.4 25328.7,23200.3C25328.7,23173.7 25320.7,23149.3 25310.8,23125.6C25301.1,23102.5 25289.6,23079.9 25281,23056.5C25280.3,23057.4 25279.5,23058.3 25278.6,23059.1C25286.3,23066.3 25288.3,23078 25282.8,23087.5C25277.4,23097 25266.2,23101.1 25256.1,23098.1C25253.8,23108.3 25244.6,23115.9 25233.6,23115.9C25222.7,23115.9 25213.5,23108.3 25211.2,23098.1C25201.1,23101.1 25189.9,23097 25184.5,23087.5C25182.9,23084.7 25181.9,23081.7 25181.5,23078.7C25176,23081.5 25169.5,23082.1 25163.4,23080.2C25161.1,23090.9 25151.5,23099 25140.1,23099C25134.7,23099 25129.7,23097.2 25125.7,23094.2C25138.7,23119.1 25164,23148.6 25190,23169.4C25200.1,23177.5 25209.5,23184.3 25218.2,23189.9C25222.3,23192.5 25226.3,23194.8 25230.1,23196.9C25241.3,23203.1 25251.2,23206.9 25259.6,23208.6C25263.6,23209.4 25267.3,23209.7 25270.7,23209.5C25271.7,23209.5 25272.7,23209.7 25273.5,23210.1C25275.9,23211 25277.5,23213.3 25277.6,23215.9C25277.7,23218.5 25276.4,23220.8 25274.3,23222C25273.4,23243.3 25261.1,23261.6 25243.5,23270.5ZM25272.7,23021.4C25267.6,22998.1 25257.1,22967.3 25219.5,22930C25201.2,22911.9 25176.4,22899.7 25150.4,22892.9C25165.7,22901.1 25179.7,22911.2 25191.8,22923.2C25215,22946 25229.3,22975.4 25243.1,23004.3C25249.6,23007.2 25254.5,23013.1 25256.1,23020.2C25261.7,23018.5 25267.6,23019 25272.7,23021.4ZM25227.7,23003.1C25215.6,22977.8 25202.6,22952.6 25182.5,22932.6C25122.1,22872.9 25010.7,22863.3 24934.7,22903.3C24885.4,22929.2 24850.4,22965.4 24833.4,22999.5C24831.4,23003.4 24829.7,23007.3 24828.3,23011.1C24830.3,23013.7 24831.8,23016.8 24832.6,23020.2C24834.8,23019.5 24837.1,23019.2 24839.3,23019.2C24842.7,23019.2 24846.1,23019.9 24849.2,23021.4C24849.3,23017.5 24850.3,23013.6 24852.4,23010C24858.1,23000.1 24869.9,22995.9 24880.3,22999.2C24882.7,22988.5 24892.2,22980.4 24903.7,22980.4C24915.2,22980.4 24924.7,22988.5 24927.1,22999.2C24937.2,22996 24948.5,22999.8 24954.4,23009C24956.5,23007.4 24958.8,23006.1 24961.4,23005.2C24952.1,22995.5 24951.2,22980.2 24959.8,22969.5C24968.4,22958.7 24983.5,22956.2 24995,22963.1C24996.8,22949.8 25008.1,22939.6 25021.9,22939.6C25035.6,22939.6 25047,22949.8 25048.8,22963.1C25060.3,22956.2 25075.4,22958.7 25084,22969.5C25092.5,22980.2 25091.6,22995.5 25082.4,23005.2C25084.9,23006.1 25087.3,23007.4 25089.3,23009C25095.3,22999.8 25106.6,22996 25116.7,22999.2C25119,22988.5 25128.6,22980.4 25140.1,22980.4C25151.5,22980.4 25161.1,22988.5 25163.4,22999.2C25173.9,22995.9 25185.7,23000.1 25191.4,23010C25193.5,23013.6 25194.5,23017.5 25194.6,23021.4C25199.7,23019 25205.6,23018.5 25211.2,23020.2C25213.1,23011.9 25219.5,23005.3 25227.7,23003.1ZM24827.4,22982.8C24847,22949.9 24881.5,22916.2 24928.5,22891.5C24932,22889.6 24935.6,22887.9 24939.2,22886.3C24914.6,22887 24889.4,22896.6 24866.1,22911C24847.1,22922.8 24829.4,22937.9 24814.2,22954.3C24810.9,22957.8 24807.8,22961.3 24804.8,22965C24789.3,22983.6 24777.3,23003.3 24770.6,23021.6C24775.8,23019 24781.9,23018.4 24787.6,23020.2C24790,23010 24799.2,23002.3 24810.1,23002.3C24812.5,23002.3 24814.8,23002.7 24817,23003.4C24817.6,23001.8 24818.3,23000.3 24819,22998.7C24821.4,22993.5 24824.2,22988.2 24827.4,22982.8ZM24784.2,23556.3C24783,23558.1 24781.9,23560 24780.8,23561.8C24767.1,23584.2 24756.7,23605.4 24754.9,23620.7C24753.2,23635.2 24754.3,23651.4 24772.8,23658.6C24789,23665 24800.5,23649.8 24800.5,23649.8C24802.3,23647.4 24805.4,23646.5 24808.2,23647.6C24811,23648.7 24812.7,23651.5 24812.4,23654.5C24812.4,23654.5 24811.1,23666.8 24820.4,23674.7C24825.5,23679.2 24833.4,23682.9 24840.6,23680.5C24844.3,23679.3 24846.7,23676.6 24848.3,23674C24851.2,23669.4 24851.9,23664.6 24851.9,23664.6C24852.4,23661.3 24855.3,23658.9 24858.7,23659C24862,23659 24864.8,23661.6 24865.1,23665C24865.1,23665 24865.6,23670.1 24867.6,23675.5C24868.8,23678.7 24870.4,23682 24872.9,23684.1C24876.5,23687 24883.2,23689.5 24888.9,23684.9C24893.7,23680.9 24895.3,23674.3 24895.3,23674.3C24896.1,23670.9 24899.3,23668.8 24902.7,23669.2C24906.1,23669.7 24908.6,23672.7 24908.4,23676.1C24908.4,23676.1 24907.9,23692.3 24922.9,23699.8C24931.5,23704.1 24944.9,23706.9 24959.2,23699.1C24966.3,23695.2 24971.3,23684 24971.3,23684C24972.4,23681.6 24974.9,23680.1 24977.6,23680.2C24980.2,23680.3 24982.6,23682 24983.5,23684.4C24983.5,23684.4 24991.5,23703.2 25021,23705.4C25052.4,23705.3 25060.1,23684.7 25060.1,23684.7C25061,23682.1 25063.4,23680.4 25066.1,23680.2C25068.8,23680.1 25071.3,23681.6 25072.5,23684C25072.5,23684 25077.5,23695.2 25084.6,23699.1C25098.9,23706.9 25112.3,23704.1 25120.9,23699.8C25135.9,23692.3 25135.3,23676.1 25135.3,23676.1C25135.2,23672.7 25137.7,23669.7 25141.1,23669.2C25144.5,23668.8 25147.7,23670.9 25148.5,23674.3C25148.5,23674.3 25150,23680.9 25154.9,23684.9C25160.5,23689.5 25167.3,23687 25170.8,23684.1C25173.4,23682 25175,23678.7 25176.1,23675.5C25178.2,23670.1 25178.7,23665 25178.7,23665C25179,23661.6 25181.7,23659 25185.1,23659C25188.5,23658.9 25191.4,23661.3 25191.9,23664.6C25191.9,23664.6 25192.6,23669.4 25195.4,23674C25197.1,23676.6 25199.5,23679.3 25203.1,23680.5C25210.3,23682.9 25218.3,23679.2 25223.4,23674.7C25232.6,23666.8 25231.4,23654.5 25231.4,23654.5C25231.1,23651.5 25232.8,23648.7 25235.6,23647.6C25238.3,23646.5 25241.5,23647.4 25243.3,23649.8C25243.3,23649.8 25254.7,23665 25271,23658.6C25289.5,23651.4 25290.6,23635.2 25288.9,23620.7C25287,23605.4 25276.7,23584.2 25263,23561.8C25241.8,23527.1 25212.5,23489.7 25192.1,23466.1C25178.6,23450.6 25158.4,23433.2 25138.9,23418.8C25137.3,23417.5 25135.6,23416.3 25134,23415.1C25126.1,23409.5 25118.5,23404.4 25111.5,23400.2C25102.4,23394.6 25094.7,23390.6 25089.7,23389.2C25087.7,23391.6 25085.5,23394 25083,23396.3C25121.7,23413.8 25149,23444.2 25162,23485.7C25163.1,23489.2 25161.2,23493 25157.7,23494.1C25154.2,23495.2 25150.4,23493.2 25149.3,23489.7C25136.8,23449.8 25109.7,23421.2 25071.3,23405.8C25071.3,23405.8 25071.3,23405.8 25071.3,23405.8C25066.8,23408.8 25059.8,23412.6 25050,23415.5C25088.6,23465.1 25107.9,23551.4 25115.8,23604.8C25116.4,23608.5 25113.9,23611.9 25110.2,23612.4C25106.6,23612.9 25103.2,23610.4 25102.7,23606.8C25094.7,23553.3 25075.5,23465.3 25035.3,23418.6C25031.3,23419.2 25027.1,23419.5 25022.5,23419.6C25022.5,23419.6 25022.4,23419.6 25022.4,23419.6C25017.6,23419.6 25013,23419.2 25008.6,23418.5C24968.3,23465.2 24949.1,23553.2 24941.1,23606.8C24940.6,23610.4 24937.2,23612.9 24933.5,23612.4C24929.9,23611.9 24927.4,23608.5 24927.9,23604.8C24935.9,23551.3 24955.3,23464.6 24994.2,23415.1C24985.3,23412.3 24977.9,23408.6 24972.8,23405.6C24972.7,23405.7 24972.5,23405.7 24972.4,23405.8C24934,23421.2 24907,23449.8 24894.4,23489.7C24893.3,23493.2 24889.6,23495.2 24886.1,23494.1C24882.6,23493 24880.6,23489.2 24881.7,23485.7C24894.8,23444.2 24922.1,23413.8 24960.7,23396.3C24958.3,23394 24956.1,23391.6 24954.1,23389.2C24949.1,23390.6 24941.4,23394.6 24932.2,23400.2C24906.9,23415.6 24871.8,23443 24851.7,23466.1C24833.3,23487.4 24807.5,23520 24787.1,23551.7C24786.8,23553.6 24785.7,23555.2 24784.2,23556.3ZM24692.2,23522C24694.8,23523.6 24697.5,23525.1 24700.4,23526.6C24727.2,23540.5 24759.3,23543.3 24776.3,23543.9C24789,23524.2 24803.8,23504.1 24817.6,23486.6C24815.7,23486.6 24813.9,23486.4 24812.2,23486.1C24806,23500.7 24791.1,23511.4 24773.1,23509.8C24762.3,23508.9 24753.9,23501.1 24747.1,23493.7C24747,23493.7 24747,23493.7 24747,23493.6C24730.9,23483.5 24710.3,23467.3 24695.1,23453.2C24694.3,23474.2 24693.1,23504 24692.2,23522ZM24671,23545.8C24655.9,23547.3 24633.7,23548.8 24627.3,23548.9C24619.5,23549 24611.8,23549.4 24605.2,23543.8C24602.2,23541.3 24596.8,23533.2 24592.2,23525.5C24591.8,23525.6 24591.5,23525.6 24591.1,23525.6C24590.7,23525.6 24590.3,23525.6 24589.9,23525.5C24585.4,23533.2 24580,23541.3 24577,23543.8C24570.3,23549.4 24562.6,23549 24554.8,23548.9C24548.5,23548.8 24526.2,23547.3 24511.1,23545.8C24509.8,23557.3 24504.5,23603.8 24503.7,23625.9C24503.6,23628.6 24503.7,23631.4 24503.8,23633.1C24506.2,23634 24511.8,23635.9 24516.9,23636.9C24535.9,23640.8 24565,23643.7 24576.1,23642C24577.1,23638.9 24577.9,23633.8 24578.7,23627.7C24581.2,23609.5 24582.9,23583.4 24584.4,23571.8C24584.5,23571.4 24584.6,23571 24584.7,23570.6C24585,23569.5 24585.6,23568.6 24586.4,23567.8C24587.1,23567.1 24588.1,23566.5 24589.1,23566.2C24589.8,23566 24590.4,23565.9 24591.1,23565.9C24591.7,23565.9 24592.4,23566 24593,23566.2C24594.1,23566.5 24595,23567.1 24595.8,23567.8C24596.5,23568.6 24597.1,23569.5 24597.5,23570.6C24597.6,23571 24597.7,23571.4 24597.7,23571.8C24599.2,23583.4 24601,23609.5 24603.4,23627.7C24604.2,23633.8 24605,23638.9 24606,23642C24617.1,23643.7 24646.2,23640.8 24665.2,23636.9C24670.4,23635.9 24675.9,23634 24678.4,23633.1C24678.4,23631.4 24678.5,23628.6 24678.4,23625.9C24677.7,23603.8 24672.4,23557.3 24671,23545.8ZM24597.7,23507.8C24600,23513.5 24609.6,23530.2 24613.7,23533.6C24615.7,23535.2 24617.9,23535.6 24620.1,23535.7C24622.4,23535.8 24624.7,23535.6 24627,23535.6C24634.7,23535.4 24666,23533.2 24678.4,23531.6C24678.4,23530.7 24678.5,23529.8 24678.5,23528.8C24678.8,23524.5 24679,23518.8 24679.3,23512.2C24679.6,23505.3 24680,23497.3 24680.3,23489.2C24674.5,23487.2 24668.4,23486.6 24662.2,23486.8C24657.7,23486.9 24653.2,23487.5 24648.7,23488.2C24645.9,23488.7 24643.1,23489.2 24640.4,23489.8C24636.8,23490.6 24633.3,23488.3 24632.5,23484.7C24631.7,23481.1 24634,23477.5 24637.6,23476.8C24640.5,23476.2 24643.4,23475.6 24646.4,23475.1C24650.7,23474.4 24655.2,23473.9 24659.6,23473.6C24666.8,23473.2 24674,23473.7 24680.9,23475.5C24681.7,23456.2 24682.3,23438.2 24682.5,23431.5C24682.5,23430.8 24682.5,23430 24682.5,23429.6C24682.4,23428.9 24682.5,23428.1 24682.7,23427.3C24684.2,23422.1 24688.6,23422.3 24689.8,23422.4C24691.4,23422.6 24693.8,23423.1 24695.2,23426.2C24695.3,23426.4 24695.9,23428.3 24695.8,23431.9C24695.8,23432.8 24695.8,23434 24695.7,23435.3C24695.9,23435.4 24696,23435.6 24696.1,23435.7C24710.2,23450 24734.2,23469.6 24752.5,23481.3C24760.2,23472 24775.2,23451.6 24779.9,23443.1C24778.5,23441.3 24776.5,23438.5 24774.1,23435.5C24763.2,23421.7 24742.1,23396.7 24717.4,23373.6C24714.1,23370.5 24710.9,23367.5 24707.5,23364.6C24699.1,23357.2 24690.3,23350.1 24681.5,23343.9C24678.3,23347.6 24673,23353.7 24669.6,23357.2C24678.8,23371.1 24687.5,23384.6 24687.5,23384.6C24687.6,23384.7 24687.7,23384.8 24687.7,23385C24689.1,23387.4 24688.8,23390.5 24686.9,23392.6L24599.7,23489.8C24599.1,23490.4 24598.5,23490.9 24597.7,23491.3L24597.7,23507.8ZM24685.6,23644.6C24685.2,23644.8 24684.8,23645.1 24684.3,23645.3C24680.8,23646.9 24675,23648.6 24667.9,23650C24650.3,23653.6 24624.8,23656 24609.8,23655.5C24610.9,23660.3 24612.7,23664 24615.1,23666.9C24620.3,23673.3 24628.4,23675.3 24638.3,23676.7C24645.4,23677.8 24658.6,23677.8 24670.7,23675.4C24678,23673.9 24684.8,23671.6 24689.2,23667.6C24693.7,23663.4 24693.9,23656.1 24691.6,23650.7C24690.4,23647.8 24688.5,23645.3 24685.6,23644.6ZM24572.4,23655.5C24557.4,23656 24531.8,23653.6 24514.3,23650C24507.2,23648.6 24501.4,23646.9 24497.8,23645.3C24497.4,23645.1 24497,23644.8 24496.6,23644.6C24493.7,23645.3 24491.7,23647.8 24490.5,23650.7C24488.3,23656.1 24488.5,23663.4 24493,23667.6C24497.3,23671.6 24504.2,23673.9 24511.5,23675.4C24523.5,23677.8 24536.8,23677.8 24543.8,23676.7C24553.7,23675.3 24561.8,23673.3 24567.1,23666.9C24569.5,23664 24571.2,23660.3 24572.4,23655.5ZM24497.6,23546.3C24497.7,23545.4 24497.8,23544.7 24497.9,23544C24497.5,23543.9 24497.2,23543.9 24496.9,23543.8C24496.5,23543.7 24496.1,23543.7 24495.7,23543.5C24491.1,23542.2 24478.7,23537.2 24466.9,23531.9C24469.6,23538.8 24473.7,23543.9 24479.2,23546.5C24484.2,23548.8 24490.1,23548.9 24496.9,23546.5C24497.1,23546.4 24497.4,23546.3 24497.6,23546.3ZM24503.2,23346.9C24473,23388.2 24457.9,23467 24453.1,23499.1C24452.5,23503.4 24452,23507.2 24451.8,23509.6C24459.1,23514.1 24478,23522.5 24490.2,23527.4C24489,23503.5 24486.7,23445.1 24486.3,23431.9C24486.3,23428.3 24486.9,23426.4 24486.9,23426.2C24488.4,23423.1 24490.8,23422.6 24492.4,23422.4C24493.6,23422.3 24498,23422.1 24499.4,23427.3C24499.6,23428.1 24499.7,23428.9 24499.6,23429.6C24499.6,23430 24499.7,23430.8 24499.7,23431.5C24499.8,23438.2 24500.5,23456.2 24501.3,23475.5C24515.2,23471.8 24530.6,23473.8 24544.5,23476.8C24548.1,23477.5 24550.4,23481.1 24549.6,23484.7C24548.9,23488.3 24545.3,23490.6 24541.7,23489.8C24528.9,23487.1 24514.5,23484.8 24501.8,23489.2C24502.6,23506.8 24503.3,23523.5 24503.8,23531.6C24516.2,23533.2 24547.5,23535.4 24555.1,23535.6C24557.4,23535.6 24559.8,23535.8 24562.1,23535.7C24564.3,23535.6 24566.5,23535.2 24568.4,23533.6C24572.5,23530.2 24582.2,23513.5 24584.4,23507.8L24584.4,23491.3C24583.7,23490.9 24583,23490.4 24582.5,23489.8L24495.3,23392.6C24493.3,23390.4 24493,23387.1 24494.7,23384.6C24494.7,23384.6 24503.3,23371.1 24512.5,23357.2C24509.9,23354.5 24506.2,23350.3 24503.2,23346.9ZM24527.1,23335.8C24520.5,23337.9 24514.6,23339.7 24514.6,23339.7C24516.5,23341.8 24518.4,23344.1 24520.1,23345.9C24522.6,23342.2 24525,23338.7 24527.1,23335.8ZM24756.1,23264.8C24731.8,23288.3 24700.3,23306.8 24664.2,23318C24681.6,23326.6 24699.5,23340 24716.2,23354.7C24733.5,23335 24751.9,23312.8 24758.3,23287.7C24760.5,23279.4 24759.2,23271.9 24756.1,23264.8ZM24601.8,23329.6C24595.7,23330 24589.5,23330.2 24583.2,23330.2C24582.4,23330.2 24581.7,23330.2 24580.9,23330.2C24581.8,23331 24582.5,23331.8 24583.2,23332.6C24585.6,23331.3 24588.3,23330.7 24591.1,23330.7C24593.9,23330.7 24596.5,23331.3 24598.9,23332.6C24599.8,23331.6 24600.8,23330.6 24601.8,23329.6ZM24747.1,23118.2C24745.3,23121.2 24743.6,23124.2 24742.1,23127.1C24731.7,23147.2 24727.4,23171.7 24729.8,23194.1C24729.9,23195.6 24730.2,23197.1 24730.5,23198.6C24730.9,23193.1 24731.6,23187.6 24732.6,23182.1C24736.8,23159.5 24746.3,23136.5 24752.5,23115.3C24752.8,23114.1 24753.1,23112.9 24753.5,23111.8C24753.8,23110.4 24754.2,23109 24754.6,23107.6C24754.6,23107.4 24754.5,23107.2 24754.5,23107C24754.4,23106.7 24754.4,23106.4 24754.3,23106.1C24752.6,23109 24750.9,23111.8 24749.2,23114.6C24748.5,23115.8 24747.8,23117 24747.1,23118.2ZM24768.9,23103.5C24768.6,23105.7 24768.2,23107.9 24767.7,23110.2C24761.9,23133.4 24750.5,23159.3 24745.7,23184.5C24742.8,23200 24742.5,23215.3 24748.5,23229.3C24748.6,23229.5 24748.8,23229.7 24748.9,23229.9C24748.3,23226.6 24748,23223.2 24748,23219.6C24748,23199.5 24758.3,23181.7 24773.8,23171.7C24777.5,23169.2 24781.5,23167.3 24785.8,23165.8C24786.1,23165.7 24786.3,23165.6 24786.5,23165.6C24789,23164.8 24796.7,23163.1 24799,23164C24799.4,23164.2 24799.7,23164.4 24799.9,23164.7C24808.7,23166.1 24817.9,23166.1 24827.1,23165.1C24851.8,23162.2 24877.8,23157.4 24899.5,23142C24925.5,23123.5 24946.6,23095 24955.4,23068.7C24955.3,23068.9 24955.2,23069.1 24955.1,23069.3C24949.3,23079.3 24937.5,23083.5 24927.1,23080.2C24924.7,23090.9 24915.2,23099 24903.7,23099C24892.2,23099 24882.7,23090.9 24880.3,23080.2C24874.3,23082.1 24867.8,23081.5 24862.2,23078.7C24861.9,23081.7 24860.9,23084.7 24859.3,23087.5C24856.3,23092.7 24851.7,23096.2 24846.4,23097.9C24844.8,23098.4 24843.2,23098.8 24841.6,23098.9C24838.7,23099.2 24835.8,23099 24833,23098.2C24832.9,23098.1 24832.8,23098.1 24832.6,23098.1C24831.7,23102.1 24829.6,23105.8 24826.8,23108.7C24822.9,23112.9 24817.4,23115.6 24811.3,23115.9C24810.9,23115.9 24810.5,23115.9 24810.1,23115.9C24805.6,23115.9 24801.4,23114.6 24797.9,23112.4C24792.8,23109.2 24789,23104.1 24787.6,23098.1C24783.5,23099.3 24779.1,23099.4 24775,23098.3C24773.1,23097.8 24771.2,23097 24769.4,23096C24769.4,23098.5 24769.2,23101 24768.9,23103.5ZM24549.5,23328.2C24548.6,23329 24548,23330.4 24547.5,23331.9C24546.4,23335 24545.9,23338.7 24545.8,23342.6C24545.5,23350.1 24546.7,23358.4 24548.8,23364.6C24549.8,23367.4 24550.7,23369.8 24552.2,23370.8C24556.3,23373.3 24561.2,23371.1 24565.3,23368.5C24569.2,23366.1 24573.5,23361.1 24573.9,23360.6C24573.9,23360.5 24573.9,23360.4 24574,23360.3C24572.8,23357.6 24572.1,23354.6 24572.1,23351.4C24572.1,23348.1 24572.8,23345 24574.1,23342.3C24570.9,23338.8 24565.4,23333.2 24559.5,23329.7C24559.1,23329.5 24558.8,23329.3 24558.4,23329.1C24555.4,23328.8 24552.4,23328.5 24549.5,23328.2ZM24551,23384.5C24548.9,23384 24546.9,23383.2 24545.1,23382C24542.4,23380.3 24539.8,23377.2 24537.8,23372.8C24535.2,23367.1 24533.3,23359.2 24532.7,23351C24524.3,23363.4 24513.6,23379.9 24508.6,23387.5L24577.3,23464C24576.1,23460.5 24574.8,23457.1 24573.7,23453.7C24566.8,23430.4 24558.5,23407.5 24551,23384.5ZM24584.4,23370.8C24584,23370.7 24583.7,23370.5 24583.3,23370.3C24580.8,23373.4 24576.9,23377 24572.3,23379.9C24569.9,23381.4 24567.3,23382.6 24564.7,23383.5C24571.2,23403.3 24578.2,23423 24584.4,23442.9L24584.4,23370.8ZM24617.5,23383.5C24614.9,23382.6 24612.3,23381.4 24609.9,23379.9C24605.3,23377 24601.3,23373.4 24598.8,23370.3C24598.5,23370.5 24598.1,23370.7 24597.7,23370.8L24597.7,23442.9C24603.9,23423 24611,23403.3 24617.5,23383.5ZM24649.5,23351C24648.8,23359.2 24647,23367.1 24644.4,23372.8C24642.3,23377.2 24639.7,23380.3 24637.1,23382C24635.2,23383.2 24633.2,23384 24631.2,23384.5C24623.7,23407.5 24615.3,23430.4 24608.4,23453.7C24607.4,23457.1 24606.1,23460.5 24604.9,23464C24629,23437.1 24673.5,23387.5 24673.5,23387.5C24668.6,23379.9 24657.9,23363.4 24649.5,23351ZM24989.9,23321C24996.9,23321.6 25004,23321.9 25011.2,23321.9C25075.2,23321.9 25133.4,23296.9 25176.5,23256.1C25179.7,23253 25182.9,23249.9 25186,23246.6C25191.5,23240.8 25196.7,23234.7 25201.6,23228.4C25206.6,23220.2 25210.8,23211.7 25214.1,23202.9C25204.1,23196.8 25193.3,23189.1 25181.7,23179.8C25156.7,23159.8 25132.5,23132 25117.8,23107.2C25117.5,23116.8 25116.8,23124.8 25115.6,23131.6C25113.1,23146 25108,23155.2 25098.3,23162.5C25086.9,23171 25062.1,23176 25037.1,23176.3C25012.1,23176.5 24987.2,23172 24975.7,23163.4C24965.8,23156.1 24961.3,23140.7 24960,23123C24959.3,23114.3 24959.4,23099.8 24959.6,23091.1C24947.8,23112.1 24929.2,23137.2 24907.2,23152.8C24886.1,23167.8 24861.2,23172.6 24837,23177C24832,23177.9 24826.9,23178.5 24821.9,23178.9C24815.6,23179.3 24809.3,23179.2 24803.1,23178.5C24802.8,23178.5 24802.4,23178.5 24802.1,23178.4C24801.9,23178.4 24801.7,23178.4 24801.5,23178.3C24801.9,23180.4 24802.3,23182.5 24802.8,23184.6C24802.9,23185.3 24803.1,23185.9 24803.3,23186.6C24806.8,23201.3 24812.8,23215.3 24820.8,23228.4C24822.8,23231 24824.9,23233.6 24827,23236.1C24829.9,23239.6 24833,23243 24836.2,23246.4C24836.2,23246.5 24836.3,23246.5 24836.4,23246.6C24839.4,23249.9 24842.6,23253 24845.9,23256.1C24855.3,23265 24865.4,23273.2 24876.2,23280.5C24876.3,23280.5 24876.4,23280.5 24876.5,23280.6C24878.2,23281 24879.6,23282 24880.5,23283.4C24908.1,23301.2 24939.5,23313.6 24973.2,23318.9C24976,23318.6 24978.8,23318.6 24981.5,23319C24984.4,23319.4 24987.2,23320 24989.9,23321ZM25225.7,23209.5C25221.9,23219.1 25217.2,23228.4 25211.5,23237.3C25207.2,23244 25202.4,23250.6 25197.1,23256.8C25203.5,23260.8 25211,23263.1 25218.9,23263.1C25241.4,23263.1 25259.6,23245 25260.9,23222.2C25251,23220.7 25239.2,23216.6 25225.7,23209.5ZM25126.8,23394C25122.1,23381.6 25116.2,23368.6 25108.8,23357.3C25106.6,23354 25104.3,23350.8 25101.9,23347.8C25104.1,23357.5 25102.5,23367.8 25097.3,23377.8C25103,23380 25110.3,23383.8 25118.5,23388.8C25121.2,23390.4 25123.9,23392.2 25126.8,23394ZM25105.2,23080.9C25098.5,23079.7 25092.4,23075.7 25088.7,23069.3C25086,23064.7 25085.1,23059.5 25085.7,23054.5C25081.1,23057 25075.8,23058.2 25070.4,23057.7C25074.5,23070.4 25068.7,23084.5 25056.3,23090.5C25044,23096.5 25029.3,23092.2 25021.9,23081C25014.5,23092.2 24999.8,23096.5 24987.4,23090.5C24980.1,23087 24975.1,23080.6 24973.1,23073.4C24972.9,23087.2 24972.2,23107.4 24973.2,23122C24973.8,23129.1 24974.8,23135.9 24976.7,23141.6C24978.2,23146.3 24980.3,23150.3 24983.6,23152.8C24993.6,23160.2 25015.3,23163.2 25037,23162.9C25058.6,23162.7 25080.4,23159.2 25090.3,23151.8C25097.4,23146.5 25100.7,23139.7 25102.5,23129.3C25104.5,23117.7 25104.8,23102.3 25105.2,23080.9ZM24972.8,23059.7C24973,23059 24973.1,23058.4 24973.4,23057.7C24973.1,23057.7 24972.9,23057.7 24972.6,23057.7C24972.7,23058.4 24972.7,23059 24972.8,23059.7ZM24958.9,23055C24958.6,23054.8 24958.4,23054.7 24958.1,23054.5C24958.2,23055.9 24958.3,23057.2 24958.2,23058.6C24958.5,23057.4 24958.7,23056.2 24958.9,23055ZM24846.6,23082.4C24847,23082 24847.4,23081.4 24847.8,23080.8C24850,23076.9 24849.2,23072.1 24846.2,23069C24845.6,23068.4 24844.9,23067.9 24844.2,23067.5C24843.3,23067 24842.4,23066.7 24841.4,23066.4L24837.6,23065.6C24834.6,23065 24832.4,23062.2 24832.4,23059.1C24832.4,23056 24834.6,23053.3 24837.6,23052.6L24841.4,23051.8C24842.4,23051.6 24843.3,23051.2 24844.2,23050.7C24844.3,23050.6 24844.5,23050.5 24844.6,23050.4C24848.9,23047.7 24850.4,23041.9 24847.8,23037.4C24846.5,23035.1 24844.4,23033.6 24842.1,23032.9C24839.6,23032.2 24836.9,23032.4 24834.4,23033.8C24833.6,23034.3 24832.8,23035 24832.1,23035.7L24829.5,23038.5C24827.4,23040.9 24824,23041.4 24821.3,23039.8C24818.5,23038.3 24817.3,23035 24818.2,23032L24819.4,23028.4C24819.7,23027.4 24819.9,23026.4 24819.9,23025.4C24819.9,23020 24815.5,23015.7 24810.1,23015.7C24804.7,23015.7 24800.4,23020 24800.4,23025.4C24800.4,23026.4 24800.5,23027.4 24800.8,23028.4L24802,23032C24802.5,23033.4 24802.4,23034.9 24802,23036.2C24801.5,23037.7 24800.4,23039 24799,23039.8C24796.6,23041.2 24793.7,23041 24791.6,23039.4C24791.3,23039.1 24791,23038.8 24790.7,23038.5L24788.1,23035.7C24787.5,23035 24786.7,23034.3 24785.8,23033.8C24781.1,23031.1 24775.2,23032.7 24772.5,23037.4C24770.8,23040.3 24770.8,23043.6 24772.1,23046.4C24772.9,23048.2 24774.3,23049.7 24776.1,23050.7C24776.9,23051.2 24777.9,23051.6 24778.9,23051.8L24782.6,23052.6C24784.3,23053 24785.8,23054 24786.7,23055.4C24787.4,23056.5 24787.9,23057.8 24787.9,23059.1C24787.9,23062.2 24785.7,23065 24782.6,23065.6L24778.9,23066.4C24777.9,23066.7 24776.9,23067 24776.1,23067.5C24771.4,23070.2 24769.8,23076.2 24772.5,23080.8C24772.6,23081.1 24772.8,23081.3 24773,23081.6C24775.8,23085.7 24781.4,23087 24785.8,23084.4C24786.7,23083.9 24787.5,23083.3 24788.1,23082.5L24790.7,23079.7C24791.4,23079 24792.2,23078.4 24793,23078C24793.1,23078 24793.2,23078 24793.2,23078C24795.1,23077.2 24797.2,23077.4 24799,23078.4C24801.7,23080 24803,23083.2 24802,23086.2L24800.8,23089.9C24800.5,23090.8 24800.4,23091.8 24800.4,23092.8C24800.4,23098.2 24804.7,23102.6 24810.1,23102.6C24810.2,23102.6 24810.3,23102.6 24810.4,23102.6C24815.6,23102.4 24819.9,23098.1 24819.9,23092.8C24819.9,23091.8 24819.7,23090.8 24819.4,23089.9L24818.2,23086.2C24817.3,23083.2 24818.5,23080 24821.3,23078.4C24824,23076.8 24827.4,23077.4 24829.5,23079.7L24832.1,23082.5C24832.5,23082.9 24832.9,23083.3 24833.3,23083.6C24833.7,23083.9 24834,23084.2 24834.4,23084.4C24838.5,23086.8 24843.6,23085.8 24846.6,23082.4ZM24830,23471.2C24834.1,23466.2 24838,23461.6 24841.6,23457.4C24862.5,23433.3 24899,23404.8 24925.3,23388.8C24933.5,23383.8 24940.8,23380 24946.5,23377.8C24939.9,23365.2 24939.1,23352.1 24944.5,23340.2C24945,23339.2 24945.4,23338.2 24946,23337.3C24913.7,23351.9 24853,23386.7 24818.8,23422.6C24811.6,23430.2 24806.8,23438.2 24804.4,23445.7C24807.1,23447.8 24809.4,23450.2 24810.9,23453.1C24814.3,23459.7 24815.6,23466.5 24815.2,23473.1C24819.3,23473.7 24824.3,23473.1 24830,23471.2C24830,23471.2 24830,23471.2 24830,23471.2ZM24970.3,23333.2C24964.6,23335.1 24959.5,23339.4 24956.7,23345.7C24949.9,23360.6 24957.7,23377.1 24975.2,23391.3C24980.5,23395.5 24999.9,23406.3 25022.3,23406.3C25051.2,23405.6 25065.7,23393.6 25068.5,23391.3C25086.1,23377.1 25093.9,23360.6 25087.1,23345.7C25082.8,23336.1 25075.3,23331.7 25064.9,23332.5C25057.1,23333.2 25051.5,23339 25046.3,23348.5L25046.3,23348.5C25045.7,23349.6 25044.9,23350.4 25043.9,23351C25042.9,23351.6 25041.7,23352 25040.5,23352C25039.4,23352 25038.3,23351.7 25037.3,23351.1C25036.2,23350.5 25035.3,23349.7 25034.7,23348.7C25034.1,23347.7 25033.8,23346.5 25033.8,23345.3L25033.8,23345.3C25033.8,23342.8 25031.4,23337.3 25025.6,23335.8C25024.6,23335.6 25023.5,23335.4 25022.4,23335.4C25021.3,23335.4 25020.2,23335.6 25019,23336.1C25015.5,23337.3 25011.9,23340.5 25010.8,23345.9L25010.8,23345.9C25010.5,23347.1 25009.9,23348.2 25009.1,23349C25008.4,23349.9 25007.3,23350.5 25006.2,23350.9C25005.1,23351.2 25004,23351.3 25002.9,23351C25001.6,23350.8 25000.6,23350.2 24999.7,23349.4C24998.9,23348.6 24998.2,23347.6 24997.9,23346.4L24997.9,23346.4C24996.3,23341.1 24993.1,23337.6 24989.2,23335.3C24986.3,23333.6 24983,23332.6 24979.8,23332.2C24976.6,23331.8 24973.3,23332.1 24970.3,23333.2ZM24687,23435.4C24685.5,23434.9 24684.4,23433.9 24683.6,23432.7C24684.6,23434.3 24685.8,23435 24686.9,23435.4C24686.9,23435.4 24687,23435.4 24687,23435.4ZM24693.6,23434.1C24694.2,23433.6 24695.1,23432.6 24695.6,23430.8C24695.2,23432.1 24694.5,23433.2 24693.6,23434.1C24693.6,23434.1 24693.6,23434.1 24693.6,23434.1ZM24762.3,23490.3C24765.7,23493.5 24769.6,23496.1 24774.2,23496.5C24786.1,23497.6 24795.9,23490.5 24800,23480.8C24802.7,23474.2 24802.8,23466.5 24799.1,23459.3C24798.1,23457.3 24796.3,23455.9 24794.4,23454.6C24793,23453.7 24791.5,23452.8 24790.1,23451.9C24789.9,23452.3 24789.6,23452.8 24789.3,23453.2C24782.8,23463.6 24769.6,23481.5 24762.3,23490.3ZM24726.1,23363.7C24740.1,23376.7 24752.9,23390.3 24763.6,23402.3C24763.6,23402.3 24763.6,23402.3 24763.6,23402.3C24783.6,23390.5 24813.5,23367.4 24836.7,23340.5C24849.6,23325.5 24860.5,23309.4 24866.1,23293.4C24854.4,23285.4 24843.7,23276.5 24834.3,23266.8C24828.9,23270.5 24822.9,23273.2 24816.4,23274.8C24812.2,23275.9 24807.9,23276.4 24803.4,23276.4C24792.5,23276.4 24782.4,23273.2 24773.8,23267.7C24773.2,23267.5 24772.6,23267.2 24772,23267C24773.9,23276.8 24772.3,23286.9 24771.2,23291.1C24764.3,23318.2 24744.7,23342.3 24726.1,23363.7ZM24772.4,23412.5C24777.2,23418.2 24781.3,23423.2 24784.6,23427.3C24788.6,23432.4 24791.3,23436.1 24792.4,23437.7C24792.6,23437.8 24792.8,23437.9 24793,23438C24796.2,23429.9 24801.5,23421.5 24809.2,23413.4C24843.5,23377.3 24903.9,23342.2 24938,23326.3C24916.1,23320.3 24895.8,23311.6 24877.6,23300.7C24871.2,23317.2 24860.1,23333.8 24846.8,23349.2C24823.3,23376.4 24793.3,23399.9 24772.4,23412.5ZM24662,23345.9C24663.7,23344.1 24665.7,23341.8 24667.5,23339.7L24655.1,23335.8C24657.1,23338.7 24659.5,23342.2 24662,23345.9ZM24817.6,23247.2C24815.2,23244 24812.9,23240.7 24810.8,23237.3C24804.8,23227.9 24799.8,23218 24796,23207.8C24793.3,23200.8 24791.2,23193.7 24789.6,23186.4C24789,23184 24788.6,23181.6 24788.2,23179.1C24784.9,23180.5 24781.8,23182.2 24779,23184.3C24768.3,23192.2 24761.3,23205.1 24761.3,23219.6C24761.3,23224.8 24762.2,23229.7 24763.8,23234.2C24765.5,23239.3 24768.2,23244 24771.5,23248C24773.9,23250.8 24776.6,23253.4 24779.7,23255.5C24786.4,23260.3 24794.6,23263.1 24803.4,23263.1C24811.4,23263.1 24818.8,23260.8 24825.2,23256.8C24822.5,23253.7 24820,23250.5 24817.6,23247.2ZM24469.5,22906.6C24467,22909.2 24462.7,22909.3 24460.1,22906.7C24457.5,22904.1 24457.5,22899.9 24460.1,22897.3C24465.7,22891.6 24472.1,22888.3 24479.3,22884.9C24482.6,22883.3 24486.6,22884.7 24488.1,22888C24489.7,22891.3 24488.3,22895.3 24485,22896.9C24479.3,22899.7 24474,22902.1 24469.5,22906.6ZM24388.1,23030.1C24388.2,23033.8 24385.3,23036.9 24381.6,23037C24377.9,23037.1 24374.9,23034.2 24374.8,23030.5C24373.4,22984 24404.9,22937.7 24447.8,22906.3C24450.8,22904.1 24454.9,22904.7 24457.1,22907.7C24459.3,22910.7 24458.6,22914.8 24455.7,22917C24416.4,22945.8 24386.8,22987.6 24388.1,23030.1ZM24509.3,23196.1C24518.4,23196.1 24525.7,23208.5 24525.7,23223.7C24525.7,23238.9 24518.4,23251.2 24509.3,23251.2C24500.2,23251.2 24492.9,23238.9 24492.9,23223.7C24492.9,23208.5 24500.2,23196.1 24509.3,23196.1ZM24672.8,23196.1C24681.9,23196.1 24689.3,23208.5 24689.3,23223.7C24689.3,23238.9 24681.9,23251.2 24672.8,23251.2C24663.8,23251.2 24656.4,23238.9 24656.4,23223.7C24656.4,23208.5 24663.8,23196.1 24672.8,23196.1ZM24558.9,23247.4C24556.1,23245 24555.7,23240.8 24558,23238C24560.4,23235.1 24564.6,23234.8 24567.4,23237.1C24579.9,23247.5 24602.2,23247 24614.8,23236.9C24617.7,23234.6 24621.9,23235.1 24624.2,23238C24626.5,23240.9 24626,23245.1 24623.1,23247.4C24606,23261 24575.8,23261.5 24558.9,23247.4ZM24608.2,23360.3C24608.2,23360.4 24608.2,23360.5 24608.3,23360.6C24608.7,23361.1 24612.9,23366.1 24616.9,23368.5C24621,23371.1 24625.9,23373.3 24629.9,23370.8C24631.4,23369.8 24632.3,23367.4 24633.3,23364.6C24635.5,23358.4 24636.6,23350.1 24636.4,23342.6C24636.3,23338.7 24635.7,23335 24634.7,23331.9C24634,23330.1 24633.3,23328.4 24632,23327.7C24629.2,23326.1 24625.9,23327.8 24622.6,23329.7C24616.7,23333.2 24611.2,23338.8 24608.1,23342.3C24609.3,23345 24610,23348.1 24610,23351.4C24610,23354.6 24609.3,23357.6 24608.2,23360.3ZM24591.1,23344C24587.7,23344 24585.5,23347.5 24585.5,23351.4C24585.5,23355.3 24587.7,23358.8 24591.1,23358.8C24594.4,23358.8 24596.7,23355.3 24596.7,23351.4C24596.7,23347.5 24594.4,23344 24591.1,23344ZM24944.2,23025.7C24944.4,23024.8 24944.6,23023.9 24944.9,23023.1C24945.1,23020.9 24944.7,23018.7 24943.5,23016.7C24940.6,23011.7 24934.1,23009.9 24929.1,23012.8C24928.1,23013.4 24927.3,23014.1 24926.5,23014.9L24923.8,23017.9C24921.7,23020.2 24918.3,23020.7 24915.6,23019.1C24912.8,23017.6 24911.6,23014.3 24912.5,23011.4L24913.8,23007.5C24914.1,23006.5 24914.3,23005.4 24914.3,23004.3C24914.3,22998.5 24909.5,22993.7 24903.7,22993.7C24897.9,22993.7 24893.1,22998.5 24893.1,23004.3C24893.1,23005.4 24893.3,23006.5 24893.6,23007.5L24894.9,23011.4C24895.8,23014.3 24894.6,23017.6 24891.8,23019.1C24889.1,23020.7 24885.7,23020.2 24883.6,23017.9L24880.9,23014.9C24880.1,23014.1 24879.3,23013.4 24878.3,23012.8C24873.3,23009.9 24866.8,23011.7 24863.9,23016.7C24861,23021.8 24862.7,23028.2 24867.8,23031.1C24868.7,23031.7 24869.7,23032.1 24870.8,23032.3L24874.7,23033.2C24877.8,23033.8 24880,23036.6 24880,23039.7C24880,23042.8 24877.8,23045.5 24874.7,23046.2L24870.8,23047.1C24869.7,23047.3 24868.7,23047.7 24867.8,23048.2C24862.7,23051.2 24861,23057.6 24863.9,23062.7C24866.8,23067.7 24873.3,23069.5 24878.3,23066.5C24879.3,23066 24880.1,23065.3 24880.9,23064.5L24883.6,23061.5C24885.7,23059.2 24889.1,23058.7 24891.8,23060.2C24894.6,23061.8 24895.8,23065 24894.9,23068L24893.6,23071.9C24893.3,23072.9 24893.1,23074 24893.1,23075.1C24893.1,23080.9 24897.9,23085.7 24903.7,23085.7C24909.5,23085.7 24914.3,23080.9 24914.3,23075.1C24914.3,23074 24914.1,23072.9 24913.8,23071.9L24912.5,23068C24911.6,23065 24912.8,23061.8 24915.6,23060.2C24918.3,23058.7 24921.7,23059.2 24923.8,23061.5L24926.5,23064.5C24927.3,23065.3 24928.1,23066 24929.1,23066.5C24934.1,23069.5 24940.6,23067.7 24943.5,23062.7C24946.4,23057.6 24944.7,23051.2 24939.6,23048.2C24938.7,23047.7 24937.7,23047.3 24936.6,23047.1L24932.7,23046.2C24929.6,23045.5 24927.4,23042.8 24927.4,23039.7C24927.4,23036.6 24929.6,23033.8 24932.7,23033.2L24936.6,23032.3C24937.7,23032.1 24938.7,23031.7 24939.6,23031.1C24941.8,23029.9 24943.4,23027.9 24944.2,23025.7ZM24903.8,23020.3C24914.5,23020.3 24923.2,23029 24923.2,23039.7C24923.2,23050.4 24914.5,23059.1 24903.8,23059.1C24893.1,23059.1 24884.4,23050.4 24884.4,23039.7C24884.4,23029 24893.1,23020.3 24903.8,23020.3ZM24903.8,23033.7C24900.5,23033.7 24897.8,23036.4 24897.8,23039.7C24897.8,23043 24900.5,23045.7 24903.8,23045.7C24907.1,23045.7 24909.8,23043 24909.8,23039.7C24909.8,23036.4 24907.1,23033.7 24903.8,23033.7ZM24995.2,23031.6C24993.1,23027.8 24991.7,23023.6 24991.3,23019.1L24972.6,23016.9C24971,23016.7 24969.4,23016.7 24967.9,23017.1C24963.1,23018.2 24959.4,23021.7 24957.9,23026.1C24957.7,23027 24957.5,23027.9 24957.2,23028.9C24957,23030.4 24957.1,23032 24957.5,23033.7C24959.2,23041.1 24966.6,23045.8 24974.1,23044.1C24975.6,23043.7 24977.1,23043.1 24978.4,23042.3L24995.2,23031.6ZM25039.5,23041.6C25036.2,23043.8 25032.5,23045.5 25028.5,23046.4L25030.8,23067.5C25030.9,23069.1 25031.4,23070.6 25032.1,23072C25035.4,23078.9 25043.7,23081.8 25050.5,23078.5C25057.4,23075.2 25060.3,23066.9 25057,23060C25056.3,23058.6 25055.4,23057.3 25054.3,23056.2L25039.5,23041.6ZM25015.2,23046.4C25011.2,23045.5 25007.6,23043.8 25004.3,23041.6L24989.5,23056.2C24988.4,23057.3 24987.4,23058.6 24986.8,23060C24983.4,23066.9 24986.3,23075.2 24993.2,23078.5C25000.1,23081.8 25008.4,23078.9 25011.7,23072C25012.4,23070.6 25012.8,23069.1 25013,23067.5L25015.2,23046.4ZM25086.5,23028.9C25086.3,23027.9 25086,23027 25085.9,23026.1C25084.4,23021.7 25080.7,23018.2 25075.9,23017.1C25074.3,23016.7 25072.7,23016.7 25071.2,23016.9L25052.5,23019.1C25052.1,23023.6 25050.7,23027.8 25048.6,23031.6L25065.4,23042.3C25066.7,23043.1 25068.2,23043.7 25069.7,23044.1C25077.2,23045.8 25084.6,23041.1 25086.3,23033.7C25086.7,23032 25086.7,23030.4 25086.5,23028.9ZM25098.9,23023.1C25099.2,23023.9 25099.4,23024.8 25099.5,23025.7C25100.4,23027.9 25101.9,23029.9 25104.1,23031.1C25105.1,23031.7 25106.1,23032.1 25107.2,23032.3L25111.1,23033.2C25114.2,23033.8 25116.4,23036.6 25116.4,23039.7C25116.4,23042.8 25114.2,23045.5 25111.1,23046.2L25107.2,23047.1C25106.1,23047.3 25105.1,23047.7 25104.1,23048.2C25099.1,23051.2 25097.4,23057.6 25100.3,23062.7C25103.2,23067.7 25109.7,23069.5 25114.7,23066.5C25115.6,23066 25116.5,23065.3 25117.2,23064.5L25120,23061.5C25122.1,23059.2 25125.5,23058.7 25128.2,23060.2C25130.9,23061.8 25132.2,23065 25131.2,23068L25130,23071.9C25129.7,23072.9 25129.5,23074 25129.5,23075.1C25129.5,23080.9 25134.2,23085.7 25140.1,23085.7C25145.9,23085.7 25150.6,23080.9 25150.6,23075.1C25150.6,23074 25150.5,23072.9 25150.1,23071.9L25148.9,23068C25148,23065 25149.2,23061.8 25151.9,23060.2C25154.6,23058.7 25158.1,23059.2 25160.2,23061.5L25162.9,23064.5C25163.6,23065.3 25164.5,23066 25165.4,23066.5C25170.5,23069.5 25177,23067.7 25179.9,23062.7C25182.8,23057.6 25181.1,23051.2 25176,23048.2C25175.1,23047.7 25174,23047.3 25173,23047.1L25169,23046.2C25166,23045.5 25163.8,23042.8 25163.8,23039.7C25163.8,23036.6 25166,23033.8 25169,23033.2L25173,23032.3C25174,23032.1 25175.1,23031.7 25176,23031.1C25181.1,23028.2 25182.8,23021.8 25179.9,23016.7C25177,23011.7 25170.5,23009.9 25165.4,23012.8C25164.5,23013.4 25163.6,23014.1 25162.9,23014.9L25160.2,23017.9C25158.1,23020.2 25154.6,23020.7 25151.9,23019.1C25149.2,23017.6 25148,23014.3 25148.9,23011.4L25150.1,23007.5C25150.5,23006.5 25150.6,23005.4 25150.6,23004.3C25150.6,22998.5 25145.9,22993.7 25140.1,22993.7C25134.2,22993.7 25129.5,22998.5 25129.5,23004.3C25129.5,23005.4 25129.7,23006.5 25130,23007.5L25131.2,23011.4C25132.2,23014.3 25130.9,23017.6 25128.2,23019.1C25125.5,23020.7 25122.1,23020.2 25120,23017.9L25117.2,23014.9C25116.5,23014.1 25115.6,23013.4 25114.7,23012.8C25109.7,23009.9 25103.2,23011.7 25100.3,23016.7C25099.1,23018.7 25098.7,23020.9 25098.9,23023.1ZM25140,23020.3C25150.7,23020.3 25159.4,23029 25159.4,23039.7C25159.4,23050.4 25150.7,23059.1 25140,23059.1C25129.3,23059.1 25120.6,23050.4 25120.6,23039.7C25120.6,23029 25129.3,23020.3 25140,23020.3ZM25140,23033.7C25136.7,23033.7 25134,23036.4 25134,23039.7C25134,23043 25136.7,23045.7 25140,23045.7C25143.3,23045.7 25146,23043 25146,23039.7C25146,23036.4 25143.3,23033.7 25140,23033.7ZM25042.2,22993.3C25045.8,22996.6 25048.7,23000.6 25050.5,23005.2L25067.2,22999.5C25068.7,22999 25070.1,22998.2 25071.3,22997.2C25077.3,22992.5 25078.3,22983.8 25073.5,22977.8C25068.8,22971.8 25060.1,22970.8 25054.1,22975.6C25052.8,22976.6 25051.8,22977.8 25050.9,22979.1L25042.2,22993.3ZM25014.3,22986.6C25016.7,22986 25019.3,22985.7 25021.9,22985.7C25024.5,22985.7 25027,22986 25029.5,22986.6L25034.9,22971.4C25035.5,22969.9 25035.7,22968.3 25035.7,22966.8C25035.7,22959.1 25029.5,22952.9 25021.9,22952.9C25014.2,22952.9 25008,22959.1 25008,22966.8C25008,22968.3 25008.3,22969.9 25008.9,22971.4L25014.3,22986.6ZM24993.3,23005.2C24995.1,23000.6 24998,22996.6 25001.6,22993.3L24992.8,22979.1C24992,22977.8 24990.9,22976.6 24989.7,22975.6C24983.7,22970.8 24975,22971.8 24970.2,22977.8C24965.5,22983.8 24966.5,22992.5 24972.4,22997.2C24973.7,22998.2 24975.1,22999 24976.6,22999.5L24993.3,23005.2ZM25021.9,22999C25012.3,22999 25004.5,23006.8 25004.5,23016.4C25004.5,23026 25012.3,23033.8 25021.9,23033.8C25031.5,23033.8 25039.3,23026 25039.3,23016.4C25039.3,23006.8 25031.5,22999 25021.9,22999ZM25224.4,23028.4L25225.5,23032C25226.5,23035 25225.2,23038.3 25222.5,23039.8C25219.8,23041.4 25216.4,23040.9 25214.2,23038.5L25211.7,23035.7C25211,23035 25210.2,23034.3 25209.3,23033.8C25204.7,23031.1 25198.7,23032.7 25196,23037.4C25193.3,23042 25194.9,23048 25199.6,23050.7C25200.5,23051.2 25201.4,23051.6 25202.4,23051.8L25206.1,23052.6C25209.2,23053.3 25211.4,23056 25211.4,23059.1C25211.4,23062.2 25209.2,23065 25206.1,23065.6L25202.4,23066.4C25201.4,23066.7 25200.5,23067 25199.6,23067.5C25194.9,23070.2 25193.3,23076.2 25196,23080.8C25198.7,23085.5 25204.7,23087.1 25209.3,23084.4C25210.2,23083.9 25211,23083.3 25211.7,23082.5L25214.2,23079.7C25216.4,23077.4 25219.8,23076.8 25222.5,23078.4C25225.2,23080 25226.5,23083.2 25225.5,23086.2L25224.4,23089.9C25224.1,23090.8 25223.9,23091.8 25223.9,23092.8C25223.9,23098.2 25228.3,23102.6 25233.6,23102.6C25239,23102.6 25243.4,23098.2 25243.4,23092.8C25243.4,23091.8 25243.2,23090.8 25242.9,23089.9L25241.8,23086.2C25240.8,23083.2 25242.1,23080 25244.8,23078.4C25247.5,23076.8 25250.9,23077.4 25253,23079.7L25255.6,23082.5C25256.3,23083.3 25257.1,23083.9 25258,23084.4C25262.6,23087.1 25268.6,23085.5 25271.3,23080.8C25274,23076.2 25272.4,23070.2 25267.7,23067.5C25266.8,23067 25265.9,23066.7 25264.9,23066.4L25261.2,23065.6C25258.1,23065 25255.9,23062.2 25255.9,23059.1C25255.9,23056 25258.1,23053.3 25261.2,23052.6L25264.9,23051.8C25265.9,23051.6 25266.8,23051.2 25267.7,23050.7C25272.4,23048 25274,23042 25271.3,23037.4C25268.6,23032.7 25262.6,23031.1 25258,23033.8C25257.1,23034.3 25256.3,23035 25255.6,23035.7L25253,23038.5C25250.9,23040.9 25247.5,23041.4 25244.8,23039.8C25242.1,23038.3 25240.8,23035 25241.8,23032L25242.9,23028.4C25243.2,23027.4 25243.4,23026.4 25243.4,23025.4C25243.4,23020 25239,23015.7 25233.6,23015.7C25228.3,23015.7 25223.9,23020 25223.9,23025.4C25223.9,23026.4 25224.1,23027.4 25224.4,23028.4ZM25233.6,23040.3C25243.9,23040.3 25252.3,23048.8 25252.3,23059.1C25252.3,23069.5 25243.9,23077.9 25233.6,23077.9C25223.2,23077.9 25214.8,23069.5 25214.8,23059.1C25214.8,23048.8 25223.2,23040.3 25233.6,23040.3ZM25233.6,23053.7C25230.6,23053.7 25228.1,23056.1 25228.1,23059.1C25228.1,23062.1 25230.6,23064.5 25233.6,23064.5C25236.6,23064.5 25239,23062.1 25239,23059.1C25239,23056.1 25236.6,23053.7 25233.6,23053.7ZM24498.6,23432.7C24497.7,23434 24496.4,23435 24494.8,23435.5C24494.7,23435.5 24494.6,23435.5 24494.5,23435.5C24495.8,23435.3 24497.4,23434.6 24498.6,23432.7ZM24491.9,23435.6C24491.2,23435.5 24490.6,23435.3 24490,23435C24490.6,23435.3 24491.3,23435.5 24491.9,23435.6ZM24488.7,23434.1C24487.7,23433.3 24486.9,23432.2 24486.6,23430.8C24487.1,23432.7 24488.1,23433.7 24488.7,23434.1ZM24932.9,23206C24941.5,23206 24948.6,23217.8 24948.6,23232.3C24948.6,23246.9 24941.5,23258.7 24932.9,23258.7C24924.2,23258.7 24917.1,23246.9 24917.1,23232.3C24917.1,23217.8 24924.2,23206 24932.9,23206ZM25089.5,23206C25098.2,23206 25105.2,23217.8 25105.2,23232.3C25105.2,23246.9 25098.2,23258.7 25089.5,23258.7C25080.8,23258.7 25073.7,23246.9 25073.7,23232.3C25073.7,23217.8 25080.8,23206 25089.5,23206ZM24980.2,23255.2C24977.3,23252.9 24977,23248.7 24979.3,23245.9C24981.7,23243 24985.9,23242.6 24988.7,23245C25000.6,23254.9 25021.7,23254.4 25033.7,23244.8C25036.6,23242.5 25040.8,23243 25043.1,23245.9C25045.4,23248.8 25044.9,23253 25042,23255.3C25025.5,23268.4 24996.5,23268.8 24980.2,23255.2ZM24791.8,23062.7C24791.6,23061.6 24791.4,23060.4 24791.4,23059.1C24791.4,23058.7 24791.5,23058.3 24791.5,23057.8C24791.6,23056.3 24791.9,23054.8 24792.4,23053.3C24794.8,23045.8 24801.9,23040.3 24810.2,23040.3C24810.4,23040.3 24810.6,23040.4 24810.9,23040.4C24820.9,23040.7 24829,23049 24829,23059.1C24829,23069.5 24820.6,23077.9 24810.2,23077.9C24809,23077.9 24807.8,23077.8 24806.6,23077.5C24803,23076.8 24799.7,23075.1 24797.2,23072.6C24794.5,23070 24792.5,23066.6 24791.8,23062.7ZM24805,23060.6C24805.6,23062.9 24807.7,23064.5 24810.2,23064.5C24813.2,23064.5 24815.6,23062.1 24815.6,23059.1C24815.6,23056.1 24813.2,23053.7 24810.2,23053.7C24809.6,23053.7 24809,23053.8 24808.4,23054C24807.4,23056.1 24806.3,23058.3 24805,23060.6Z" transform="translate(-75821.9 -70809.4) scale(3.125)"/></g></g></g></g></svg>