<?xml version="1.0" encoding="UTF-8" standalone="no"?><svg xmlns="http://www.w3.org/2000/svg" xmlns:xlink="http://www.w3.org/1999/xlink" fill="#000000" height="43.9" preserveAspectRatio="xMidYMid meet" version="1" viewBox="0.0 -0.0 44.0 43.9" width="44" zoomAndPan="magnify"><defs><clipPath id="a"><path d="M 0 3 L 44 3 L 44 43.941406 L 0 43.941406 Z M 0 3"/></clipPath></defs><g><g clip-path="url(#a)" id="change1_3"><path d="M 3.347656 15.3125 L 40.652344 15.3125 L 40.652344 38.507812 C 40.652344 39.667969 39.710938 40.609375 38.550781 40.609375 L 5.449219 40.609375 C 4.289062 40.609375 3.347656 39.667969 3.347656 38.507812 Z M 4.207031 3.390625 C 1.882812 3.390625 0 5.273438 0 7.597656 L 0 39.734375 C 0 42.058594 1.882812 43.941406 4.207031 43.941406 L 39.792969 43.941406 C 42.117188 43.941406 44 42.058594 44 39.734375 L 44 7.597656 C 44 5.273438 42.117188 3.390625 39.792969 3.390625 L 35.738281 3.390625 L 35.738281 6.785156 C 35.722656 8.757812 34.109375 10.347656 32.136719 10.328125 C 30.183594 10.3125 28.605469 8.734375 28.589844 6.785156 L 28.589844 3.390625 L 15.410156 3.390625 L 15.410156 6.785156 C 15.410156 8.757812 13.808594 10.359375 11.835938 10.359375 C 9.859375 10.359375 8.261719 8.757812 8.257812 6.785156 L 8.257812 3.390625 L 4.207031 3.390625" fill="#e2bc69"/></g><g id="change1_1"><path d="M 33.808594 6.738281 L 33.808594 1.640625 C 33.808594 0.730469 33.070312 -0.00390625 32.160156 -0.00390625 C 31.253906 0 30.523438 0.734375 30.519531 1.640625 L 30.519531 6.738281 C 30.523438 7.648438 31.261719 8.382812 32.167969 8.378906 C 33.074219 8.375 33.808594 7.644531 33.808594 6.738281" fill="#e2bc69"/></g><g id="change1_2"><path d="M 13.480469 1.640625 C 13.476562 0.730469 12.738281 -0.00390625 11.832031 0 C 10.925781 0 10.191406 0.734375 10.191406 1.640625 L 10.191406 6.738281 C 10.191406 7.648438 10.929688 8.382812 11.839844 8.378906 C 12.746094 8.375 13.476562 7.644531 13.480469 6.738281 L 13.480469 1.640625" fill="#e2bc69"/></g></g></svg>