<?xml version="1.0" encoding="UTF-8" standalone="no"?><svg xmlns="http://www.w3.org/2000/svg" xmlns:xlink="http://www.w3.org/1999/xlink" baseProfile="basic" fill="#e2bc69" height="789" preserveAspectRatio="xMidYMid meet" version="1" viewBox="-0.8 0.0 762.0 789.0" width="762" zoomAndPan="magnify"><g id="change1_1"><path d="M583.787,691.447v38.909c0,3.314,2.687,6,6,6h59.796c3.313,0,6-2.686,6-6v-38.909c0-18.391-14.962-33.353-33.353-33.353 h-5.09C598.749,658.094,583.787,673.056,583.787,691.447z M595.787,691.447c0-11.774,9.579-21.353,21.353-21.353h5.09 c11.774,0,21.353,9.579,21.353,21.353v32.909h-47.796V691.447z"/></g><g id="change1_2"><path d="M141.54,658.094h-5.09c-18.391,0-33.353,14.962-33.353,33.353v38.909c0,3.314,2.687,6,6,6h59.796c3.313,0,6-2.686,6-6 v-38.909C174.893,673.056,159.932,658.094,141.54,658.094z M162.893,724.356h-47.796v-32.909c0-11.774,9.579-21.353,21.353-21.353 h5.09c11.774,0,21.353,9.579,21.353,21.353V724.356z"/></g><g id="change1_3"><path d="M9.08,515.728l46.89-28.036V783c0,3.314,2.687,6,6,6h152.455h35.151h64.612h65.729h65.729h62.589h35.151h152.456 c3.314,0,6-2.686,6-6V486.393l49.409,29.344c0.961,0.571,2.016,0.842,3.058,0.842c2.048,0,4.043-1.049,5.165-2.937 c1.692-2.849,0.754-6.531-2.095-8.223L514.234,361.015V220.385l50.177,31.406c0.99,0.619,2.09,0.915,3.177,0.915 c1.999,0,3.953-0.998,5.092-2.817c1.758-2.809,0.906-6.511-1.903-8.269l-59.36-37.153l-25.379-15.885l-100.793-63.086v-73.22h37.097 c3.313,0,6-2.686,6-6s-2.687-6-6-6h-37.097V6c0-3.314-2.687-6-6-6s-6,2.686-6,6v34.275h-37.096c-3.313,0-6,2.686-6,6s2.687,6,6,6 h37.096v74.027L188.173,240.336c-2.821,1.738-3.699,5.435-1.961,8.256c1.739,2.821,5.435,3.699,8.256,1.961l49.108-30.259v141.249 L2.922,505.429c-2.844,1.7-3.771,5.385-2.071,8.229C2.552,516.501,6.236,517.428,9.08,515.728z M373.917,777h-53.729v-56.093 c0-29.714,24.066-53.904,53.729-54.123V777z M439.645,777h-53.729V666.783c29.663,0.219,53.729,24.409,53.729,54.123V777z M514.234,375.556l175.606,105.035V777H549.385V508.504l41.774,24.987c0.965,0.577,2.026,0.852,3.074,0.852 c2.041,0,4.031-1.042,5.155-2.921c1.701-2.844,0.774-6.528-2.069-8.229l-50.854-30.417c0,0,0,0-0.001,0l-32.231-19.278V375.556z M255.576,212.902l121.381-74.792l2.935-1.809l105.243,65.871l17.1,10.702v253.444l-120.249-71.925c-1.896-1.135-4.264-1.135-6.16,0 l-120.249,71.925V212.902z M305.977,450.156l72.928-43.62l72.928,43.62l85.552,51.171V777h-35.151h-50.589v-56.093 c0-36.466-29.667-66.133-66.133-66.133h-5.595h-5.595c-36.466,0-66.133,29.667-66.133,66.133V777h-52.612h-35.151V501.327 L305.977,450.156z M67.97,480.591l175.606-105.035v97.941l-32.231,19.278c0,0,0,0-0.001,0l-50.854,30.417 c-2.844,1.701-3.77,5.385-2.069,8.229c1.701,2.844,5.385,3.771,8.229,2.069l41.774-24.987V777H67.97V480.591z"/></g><g id="change1_4"><path d="M348.103,515.68h25.143v53.952c0,3.314,2.687,6,6,6s6-2.686,6-6V515.68h25.143c3.313,0,6-2.686,6-6c0-3.313-2.687-6-6-6 h-25.143v-23.104c0-3.314-2.687-6-6-6s-6,2.686-6,6v23.104h-25.143c-3.313,0-6,2.687-6,6 C342.103,512.994,344.789,515.68,348.103,515.68z"/></g><g id="change1_5"><path d="M379.098,351.842c1.786-0.025,3.531-0.39,5.187-1.086c2.868-1.205,5.645-2.579,8.961-4.432 c3.954-2.166,7.791-4.612,11.406-7.271c22.664-16.674,33.628-35.654,31.708-54.888c-1.54-15.426-14.037-27.582-29.069-28.276 c-6.796-0.313-13.771,2.067-20.181,6.882c-3.05,2.291-5.835,4.899-8.205,7.673c-2.369-2.773-5.154-5.382-8.205-7.673 c-6.411-4.815-13.391-7.196-20.181-6.882c-15.033,0.693-27.53,12.849-29.07,28.276c-1.92,19.234,9.044,38.215,31.708,54.888 c3.614,2.659,7.452,5.106,11.362,7.247c3.363,1.879,6.144,3.255,9.017,4.461c1.711,0.719,3.515,1.083,5.364,1.083 C378.967,351.844,379.033,351.843,379.098,351.842z M370.328,335.799c-3.488-1.911-6.873-4.068-10.059-6.413 c-13.291-9.778-28.744-25.354-26.879-44.03c0.937-9.388,8.704-17.066,17.682-17.48c0.214-0.01,0.428-0.015,0.64-0.015 c4.76,0,9.008,2.422,11.782,4.505c3.224,2.421,6.032,5.266,8.152,8.268c1.672,2.341,4.384,3.736,7.259,3.736 c0.009,0,0.019,0,0.028,0c2.886-0.009,5.602-1.423,7.262-3.778c2.089-2.96,4.898-5.805,8.122-8.226 c2.897-2.176,7.398-4.722,12.422-4.49c8.978,0.414,16.745,8.092,17.682,17.48c1.864,18.676-13.588,34.252-26.879,44.03 c-3.188,2.345-6.572,4.502-10.104,6.437c-2.955,1.651-5.361,2.844-7.801,3.87c-0.229,0.096-0.467,0.147-0.706,0.15 c-0.256,0.005-0.507-0.046-0.748-0.146C375.739,338.67,373.33,337.476,370.328,335.799z"/></g></svg>