<?xml version="1.0" encoding="UTF-8" standalone="no"?><svg xmlns="http://www.w3.org/2000/svg" xmlns:xlink="http://www.w3.org/1999/xlink" fill="#000000" height="325.6" preserveAspectRatio="xMidYMid meet" version="1" viewBox="-2.4 -25.5 381.3 325.6" width="381.3" zoomAndPan="magnify"><g id="change1_1"><path d="M41.4-25.4v-0.1V-25.4z" fill="#e2bc69"/></g><g id="change1_2"><path d="M20.5,20.6c-0.4,1.2-0.8,2.5-1.1,3.6c0.3-0.8,0.6-1.7,0.8-2.6C20.4,21.3,20.4,20.9,20.5,20.6z" fill="#e2bc69"/></g><g id="change1_3"><path d="M49.3,298.3c-1.2-1.4-1.5-3.8-1.5-14.7c0-12.6-0.1-13.2-2.4-16.5c-2.3-3.3-2.5-3.4-6.1-2.9 c-10,1.6-14.5,1.6-17.7-0.1c-1.7-0.9-3.2-2.1-3.4-2.7c-0.2-0.6,1.3-2.2,3.3-3.5c3.3-2.2,4.3-2.4,9.3-2c3.1,0.3,6.4,0.8,7.3,1.2 c1.4,0.6,1.2-0.2-1.2-4.6c-3.6-6.6-5-7.7-8.6-6.6c-6.7,1.9-16.1,0.3-19.5-3.3L7,240.6l2.3-1.5c3.5-2.3,12-2.8,16.3-1 c1.9,0.8,3.7,1.3,3.9,1.1c0.2-0.2-1.1-3.3-2.9-6.8c-2.8-5.6-3.5-6.4-5.2-5.9c-1.1,0.3-4.8-0.1-8.2-0.8c-5-1-6.9-1.9-9.4-4.5 c-2.8-2.8-3-3.4-2-4.7c1-1.2,2.7-1.4,9.2-1.2c4.4,0.1,7.9,0.1,7.7-0.2c-0.1-0.3-1.6-3.9-3.2-8.2c-2.7-7-3.4-7.9-6.8-9.7 c-6.9-3.6-11.1-14.9-7-18.6c1.6-1.4,1.9-1.3,6.6,3.3c4.8,4.7,9.1,11.4,8.7,13.6c-0.1,0.6,0.3,2.6,0.9,4.4l1.2,3.4l4.5-4.9 c4.9-5.3,7.4-6.7,9.4-5c1.6,1.3,1.7,5.6,0.3,8.4c-0.5,1.1-3,4.1-5.5,6.6l-4.5,4.7l2.1,5.1c1.8,4.3,2.3,4.9,3,3.6 c5.2-8.8,9.7-13,12-11.1c2.9,2.4-1.4,15.1-6.9,20c-1.6,1.5-1.6,1.6,0.2,5.4l1.9,3.9l1.2-4.6c0.7-2.7,2.2-5.7,3.8-7.3 c2.5-2.5,2.8-2.6,4.1-1.2c2.4,2.4,2.2,13.7-0.4,18.9c-1.1,2.3-2,4.8-2,5.6c0,1.9,3.5,7.9,4.6,7.9c0.5,0,0.9-32.4,1-76.9l0.2-76.9 l2.7-1.6c1.5-0.9,3.5-2,4.5-2.5c1-0.5,3.4-2.1,5.4-3.6c2-1.5,4.6-3.4,5.9-4.3c1.2-0.9,6.3-4.9,11.3-8.8C89.1,75.8,93.2,72.6,96.9,70 c1.6-1.1,4.7-3.4,6.9-5.1c2.2-1.7,7.5-5.5,11.7-8.3c4.2-2.9,12.9-9.2,19.4-14c16.4-12.1,18.1-13.4,22.5-17c2.2-1.7,8.9-7,15-11.7 c6.1-4.7,12.4-9.7,14.1-11.2l3.1-2.6l2.9,2.7c1.6,1.5,4,3.5,5.3,4.4c1.3,0.9,7.6,5.8,13.9,10.8c12.2,9.6,16.1,12.6,21.2,16.2 c1.7,1.2,4.9,3.6,6.9,5.2c3.8,3,38.5,28,42.1,30.4c1.1,0.7,3.2,2.4,4.6,3.7c1.5,1.3,3.6,3,4.6,3.7c1.1,0.7,5.7,4.4,10.4,8.1 c9.9,7.9,12.1,9.6,21.9,16.2l7.3,5l0.2,76.5c0.1,50.6,0.5,76.5,1.1,76.5c0.5,0,1.8-1.8,2.8-3.9l1.9-4l-2.2-4.4 c-2.7-5.6-3.1-17.4-0.6-19.9c1.4-1.4,1.6-1.4,3.5,0.2c2.5,2.3,4.1,5.4,4.9,9.8l0.6,3.6l1.7-3.6c2.2-4.6,2.2-5.2-0.1-7.2 c-3.2-2.9-5.5-7.5-6.7-13.1c-1.4-6.9-0.3-8.4,4-5.4c3.3,2.4,8.1,8.7,8.1,10.7c0,2.2,2-0.4,4.1-5.1l1.7-3.9l-4.6-4.7 c-5.4-5.6-6.6-7.6-6.6-11.7c0-6.6,4.6-5.6,11.4,2.4l3.5,4.1l1.2-2.8c0.6-1.5,1.1-3.6,1-4.7c-0.2-2.7,4-9.1,9.5-14.4l4.6-4.4l1.6,2 c0.9,1.1,1.6,3.3,1.6,4.9c0,4.1-4.9,11.2-9.7,13.8c-2.1,1.2-3.8,2.6-3.8,3.3s-1,3.4-2.1,6c-4,9.1-4.4,8.5,4.7,8.2 c6.6-0.2,8.2,0,9.2,1.2c1.1,1.3,0.8,1.9-2.3,4.8c-3,2.8-4.6,3.5-9.9,4.4c-3.5,0.6-7.1,1-8.1,0.9c-1.3-0.2-2.5,1.2-4.8,6 c-1.7,3.4-2.9,6.3-2.7,6.6c0.2,0.2,2-0.3,3.9-1.1c4.3-1.8,12.8-1.3,16.3,1l2.3,1.5l-1.9,2.1c-3.5,3.7-12.9,5.2-19.8,3.3 c-2.6-0.8-3.3-0.6-5,1.2c-1.9,2-6.2,9.7-5.7,10.2c0.1,0.1,1.6-0.2,3.3-0.6c5.6-1.6,11-1.1,14.7,1.4c1.9,1.3,3.3,2.8,3.1,3.4 c-0.2,0.6-1.9,1.8-3.8,2.7c-3.5,1.7-7,1.7-18,0.1c-3.5-0.5-3.7-0.4-5.6,3.1c-1.8,3.2-2,4.8-2,16.1c0,9.9-0.3,13-1.4,14.5l-1.4,2 H189.6C56.2,300,50.7,299.9,49.3,298.3L49.3,298.3z M326.5,285.6c0.2-8.3,0.2-8.5-1.4-6.4c-0.9,1.2-4.4,5.2-7.8,8.8l-6.3,6.7 l7.6-0.3l7.6-0.3L326.5,285.6L326.5,285.6z M82.3,284.4c-3.8-12.5-9.2-38.4-9.9-47.8l-0.5-6.9l-3-0.6c-1.9-0.4-4.9-2.3-8.2-5.4 c-4.4-4.1-5-5.1-4.2-6.5c1.3-2.1,6.8-1.8,11,0.7c1.6,1,3.2,1.7,3.4,1.7c0.2,0,0.4-3.6,0.4-8v-8l-3.6-1.6c-4.4-1.9-9.4-7.6-11.4-12.9 c-1.4-3.7-1.4-4,0.1-5.7c1.3-1.5,2-1.6,4.4-0.8c3.2,1,8.7,5.9,8.7,7.5c0,0.6,0.6,1.5,1.2,2.1c1,0.9,1.4,0,1.9-4.8 c0.7-6.4,1.1-5.4-6.5-15c-3.5-4.4-4.1-10.3-1.2-12.9c1.6-1.4,1.9-1.5,4.5-0.1c1.5,0.8,3.4,2.4,4.2,3.7c0.8,1.2,1.8,2.2,2.3,2.2 c1.1,0,1-4.3-0.1-5c-4.7-2.9-7.6-16.7-4.4-20.6l1.6-2l2.3,2.2c1.3,1.2,2.8,3.5,3.4,5.2c0.6,1.7,1.3,3,1.6,3c0.3,0,1.3-2.2,2.2-4.9 c1.6-4.8,1.6-4.8-0.4-7.6c-2.8-3.8-3.9-13.2-1.8-15.8c1.9-2.4,4.1-1.6,6.1,2.1c3.3,6,3.4,6,5.8,1.7c1.2-2.2,2.8-5.7,3.4-7.8 c1.6-5.1,6.7-9.9,11.4-10.6c5.3-0.9,6.5,0.8,4.4,6.2c-1.8,4.7-6.8,9.9-11.4,11.8c-2.4,1-4.1,2.7-6,6.1c-1.5,2.6-2.6,4.9-2.4,5 c0.2,0.2,2.1-0.8,4.2-2.2c4.8-3,13.2-4.1,15.1-1.9c1,1.2,0.6,1.9-2,4.9c-1.7,1.9-5.2,4.4-7.7,5.6c-4.3,2-4.7,2.1-8.6,0.8l-4.1-1.4 l-1.5,4.6c-0.8,2.5-1.7,5.1-1.9,5.7c-0.2,0.6,2.3-0.3,5.6-2c4.6-2.4,6.4-2.9,7.7-2.3c2,1.1,3,3.4,2.1,5c-1.1,2-10.3,8.5-14.7,10.4 c-4.1,1.8-4.2,1.9-5.2,7.5c-1.5,8.2-1.4,8.3,2.6,4.7c4.3-3.9,10.5-4.7,13.5-1.9c1.1,1.1,0.9,1.8-1.4,5.1 c-2.9,4.2-12.2,10.7-15.3,10.7c-2.3,0-3.1,2.7-3.1,9.7v4l4.2-3.7c6.2-5.4,13-6,13-1c0,3.3-7,10.6-12.6,13.2 c-4.7,2.2-5.3,2.8-5.1,4.8c0.1,1.2,0.3,4.5,0.4,7.1l0.1,4.8l3.4-3.9c1.9-2.1,4.8-4.5,6.5-5.2c2.8-1.2,3.2-1.1,4.8,0.5 c1.3,1.3,1.6,2.4,1.2,4.2c-0.8,3.1-8.8,11.6-12.4,13.1c-2.7,1.1-2.7,1.2-2.2,5.7c1.3,9.9,6.2,32.2,9.3,42.3l3.3,10.6h6.6 c5.7,0,6.6-0.2,6.6-1.6c0-0.9-0.8-7.9-1.8-15.6c-2.3-17.4-2.3-24.1-0.3-26.3c1.2-1.4,2.9-1.6,9.9-1.6c4.6,0,8.6-0.4,8.9-0.9 c0.3-0.5-1.5-3.1-4-5.8c-4.8-5.3-8.3-11.4-10.9-19.1c-1.5-4.5-1.5-4.8,0-6.1c0.9-0.8,2.1-1.4,2.7-1.4c2.4,0,6.6,3,9.2,6.5 c1.5,2,2.7,3.5,2.7,3.1c0.6-6.2,0-10.8-1.7-12.6c-1-1.1-2.2-3.3-2.5-4.9c-0.5-2.4-0.8-2.7-2.2-2c-2.5,1.3-4.9,1-7.5-1 c-2.9-2.3-3-4.1-0.5-6.8l1.9-2l-2.4-2.9c-3-3.6-2.7-6.1,1.1-8.3c2.4-1.4,3.4-1.5,5.6-0.8c2.7,0.9,2.7,0.9,2.7-2.1 c0-3.3,2.8-6.8,5.4-6.8c1.6,0,4.8,3.2,5.7,5.7c0.5,1.3,0.9,1.4,2.3,0.7c3.4-1.8,7.9-1.1,10,1.4c2.3,3,2.3,4.1,0,6.2 c-1.8,1.6-1.8,1.7,0.9,4.5c3.4,3.5,3.5,6,0.2,8.8c-2,1.7-2.5,2.7-2.2,4.8c0.3,1.8-0.2,3.5-1.6,5.1c-2.2,2.8-4.1,3.1-7,1.1 c-2.8-1.9-3-1-2.7,10.9c0.2,7.1,0.5,9.4,1.1,8.1c3.1-6.5,8.6-12.2,11.7-12.2c7.2,0-1.4,23.7-9.8,27.1c-1.3,0.5-0.1,0.8,3.8,0.8 c5.4,0,11.2,1.6,12.2,3.3c0.2,0.4-0.3,8.7-1.2,18.4c-0.9,9.7-1.7,19.1-1.7,21l0,3.4h12.6c0,0,0-100.6,0-122.3 c0-1.2-0.1-6.9,1.8-11.3c2.2-5,6.5-8.7,8.1-10.2c4.7-4.5,10.8-7.6,18.8-8.9c8.3-1.4,17.4,0,25,3.7c6.6,3.2,9.5,7,12.3,10.3 c1.3,1.5,3.2,5.3,3.6,7.3c0.5,2.4,0.8,7.7,0.8,10.6c0,21.6,0,120.8,0,120.8h12.8l-0.6-7.5c-0.3-4.1-1.2-13.5-1.9-20.8 c-0.7-7.4-1-13.8-0.7-14.3c1.1-1.8,6.8-3.4,12.3-3.5c4,0,5.1-0.3,3.8-0.8c-7.5-3.1-15.9-23.3-11-26.5c1.1-0.7,2-0.8,3.2,0 c1.6,1,7.8,8.3,9.9,11.7c0.9,1.4,1.1-0.3,1.1-8.7c0-5.7-0.2-10.7-0.5-11c-0.3-0.3-1.4,0-2.5,0.7c-2.7,1.9-4.5,1.6-6.9-0.9 c-1.7-1.8-2-2.9-1.6-5.4c0.3-1.7,0.1-3.2-0.3-3.2c-1.6,0-4.5-3.6-4.5-5.6c0-1.1,1.2-3.3,2.7-4.8c2.7-2.8,2.7-2.8,0.9-4.5 c-2.3-2.1-2.3-3.2,0-6.2c2-2.6,6.6-3.2,9.9-1.4c1.1,0.6,1.8,0.6,1.8,0.1c0-1.7,4.7-6.4,6.3-6.4c2.3,0,5.4,4.2,5.4,7.3 c0,2.4,0.2,2.5,2.3,1.7c3.2-1.2,3.5-1.2,6.6,1.5c3.4,2.9,3.5,4,0.4,7.6l-2.4,2.8l1.9,2c2.6,2.7,2.4,4.6-0.5,6.9 c-2.4,1.9-4.9,2-8.5,0.5c-1.2-0.5-1.5-0.1-1.4,2.2c0.1,1.9-0.7,3.6-2.3,5.3c-2.1,2.2-2.4,3.2-2.4,8.8c0,6.3,0,6.3,1.5,3.6 c3.8-7.2,10.5-11.2,13.8-8.1c1.6,1.5,1.6,1.7,0.1,6.2c-2.7,7.9-6.2,14-10.9,18.8c-2.5,2.6-4.5,5.2-4.5,5.8c0,0.9,2.2,1.2,9,1.2 c8.3,0,9.1,0.2,10.4,2c1.8,2.6,1.8,7.3-0.4,24.7c-2.5,20.4-3,18.5,4.7,18.4l6.5,0l3-9.2c2.6-8.3,8.2-33.3,9.7-44.1 c0.6-3.8,0.4-4.3-1.4-4.8c-1.1-0.4-4.1-2.5-6.5-4.8c-6.6-6.2-8.7-11.2-5.6-13.7c2.1-1.8,6.6,0.4,11.1,5.3l3.8,4.2v-14.8l-4.3-1.9 c-5.1-2.3-12.9-10.2-12.9-13.1c0-5.4,6.1-5.1,12.8,0.5l4.3,3.7l-0.1-3.9c-0.2-7.3-1-9.1-4.2-10c-4.3-1.1-10.7-5.9-13.9-10.4 c-2.4-3.3-2.6-4-1.5-5.3c0.9-1.1,2.3-1.4,6-1.1c4,0.3,5.4,0.9,8,3.5l3.2,3.1l-0.7-4.5c-1.2-8.3-1.6-8.9-6.3-11.3 c-6.6-3.3-14.8-9.7-14.8-11.6c0-4.4,4.5-4.8,11.3-1c2.7,1.5,4.7,2.2,4.5,1.6c-0.2-0.6-1-3.2-1.8-5.8l-1.5-4.6l-3.3,1.2 c-1.8,0.7-3.9,1.2-4.5,1.2c-5,0.2-16.7-9.6-14.6-12.2c1.9-2.3,8.6-1.6,14.1,1.5c2.7,1.5,5.1,2.6,5.3,2.5c0.1-0.2-0.9-2.4-2.4-5 c-2-3.5-3.7-5.1-6.5-6.4c-7.2-3.2-14.2-13.6-11.4-16.9c1.8-2.2,7.9-0.8,11.5,2.7c3.2,3,5.6,7.7,5.6,10.9c0,1.1,0.8,2.7,1.8,3.6 c1,0.9,2,2.4,2.3,3.4c0.5,1.5,0.8,1.2,2.4-1.7c2.3-4.3,4.3-6.6,5.7-6.6c4,0,4.4,8.6,0.8,16.1l-2.3,4.8l1.6,4.5 c0.9,2.5,1.9,4.5,2.2,4.5c0.3,0,1-1.4,1.6-3c0.6-1.6,2.1-3.9,3.3-5.1c3.5-3.3,5-1.3,5,6.3c0,5.5-0.3,6.6-3.2,10.8 c-1.8,2.6-3.2,5.8-3.1,7.1v2.4l2.9-3.3c1.6-1.8,3.9-3.8,5.1-4.4c1.9-1,2.4-0.9,3.8,0.9c1.9,2.3,2.1,6.8,0.5,9.6 c-0.6,1.1-2.9,4.2-5,7.1l-3.9,5.2l0.7,6c0.5,5,0.8,5.7,1.7,4.3c2.4-4.1,7-8.4,10-9.3c2.7-0.8,3.4-0.7,4.7,0.7 c1.3,1.4,1.3,2.1,0.4,4.9c-1.6,4.9-7.6,11.8-11.7,13.7l-3.7,1.6v15.9l3.4-1.7c4.8-2.5,10.1-2.8,11.4-0.7c0.8,1.4,0.2,2.4-4.2,6.5 c-3.3,3.1-6.3,5.1-8.2,5.4l-3,0.6l-0.6,6.6c-1.1,12.5-8.9,47.4-12.8,56.7c-0.6,1.4,0,1.6,5.2,1.6h5.8l8-8c4.4-4.4,8.3-8.8,8.8-9.7 c0.5-0.9,1.6-2.5,2.5-3.5c3.3-3.8,3.1-5.4-1.9-10.5c-4.5-4.6-8-10.5-8-13.6c0-0.8,0.6-2,1.4-2.6c1.2-1,1.9-0.9,4.3,0.5 c1.6,0.9,3.8,2.5,5,3.6l2.2,1.9l-0.6-71.7c-0.4-54.6-0.8-72-1.7-73c-0.6-0.7-3.8-3.1-7-5.3c-6.9-4.6-8-5.5-20.9-15.7 c-5.3-4.2-11.5-9.1-13.8-10.8c-2.3-1.8-5.8-4.4-7.7-5.9c-1.9-1.5-4.9-3.6-6.5-4.8c-21.5-15-43.2-31.2-65.7-49 c-5.7-4.5-11.3-8.7-12.3-9.2c-1.7-0.8-3.2,0.1-12,7.1c-5.5,4.4-11,8.6-12,9.3c-1.1,0.7-3.2,2.4-4.7,3.7c-1.5,1.3-3.6,3-4.6,3.7 c-1,0.7-8.6,6.3-16.7,12.3c-8.1,6.1-16.1,12-17.8,13.1c-1.6,1.1-4.4,3.1-6.1,4.3c-1.7,1.2-4.5,3.3-6.3,4.5 c-5.6,3.9-19.7,14.6-24.4,18.5c-2.5,2-6.1,4.9-8,6.4c-1.9,1.5-5.2,4-7.2,5.6c-2,1.6-6.4,4.7-9.6,6.9c-3.2,2.2-6.5,4.7-7.2,5.5 c-1.1,1.3-1.3,13.4-1.7,72.9l-0.4,71.3l4.2-3.2c4.7-3.6,6-3.9,7.7-1.9c1.9,2.3-1.4,9.7-6.9,15.4c-2.6,2.7-4.8,5.5-4.8,6.1 c0,2,7.6,11.6,14.9,18.8l7,7h11.2L82.3,284.4L82.3,284.4L82.3,284.4z M269.9,293.8c0-0.4,0.8-7,1.8-14.6c1-7.6,1.7-13.9,1.5-14.1 c-0.6-0.6-32-0.8-32.5-0.3c-0.5,0.5,1,24.1,1.7,27.7c0.4,2,0.6,2,13.9,2C263.8,294.6,269.9,294.2,269.9,293.8L269.9,293.8z M219.4,237.5c0.1-36.2,0.1-54.3-0.1-63.9c-0.3-10.6-0.9-10.9-2.3-13.7c-1.2-2.4-2.7-3.4-2.8-1.7c-0.2,8.3-0.3,35.2-0.3,66.9v69.5 h5.4L219.4,237.5L219.4,237.5z M209.4,223.4c0-49.8,0.2-65.9-1.3-71.4c-0.4-1.5-3.6-3.3-5.4-3.8c-3.6-0.9-2.9,1.3-2.9,1.8 c0,12.2,0.2,70.9,0.2,70.9c0.1,40.3,0.2,73.3,0.3,73.5c0.1,0.1,2.2,0.2,4.6,0.2h4.5V223.4L209.4,223.4z M194.7,220.8l-0.2-71 c0-0.3-0.4-2.5-1.4-3c-1.9-1-5.3-0.5-6.5-0.6c-1.7-0.1-2.6,1.8-2.6,2.6v145.8h10.8L194.7,220.8L194.7,220.8z M178.7,221 c0,0,0-56.7,0-68.9c0-1.5-0.5-3.2-1.1-3.8c-0.6-0.5-4.2,1.1-4.8,1.4c-1.2,0.6-2.5,2.5-2.5,4c-0.3,8.3-0.5,36.7-0.5,69.8l0,71.1h9 L178.7,221L178.7,221z M165.1,225c0-36.8-0.2-58.9-0.6-66.3c-0.1-1.9-2.5,0.5-3.3,2c-2.1,4.3-2,9.4-2,11.9c0,9,0,46.5,0,46.5 c0,29.8,0.1,58.9,0.3,64.8l0.3,10.6h5.3V225L165.1,225z M136.3,294.4c0.5-1.6,2.4-29.2,2-29.6c-0.5-0.6-32-0.2-32.6,0.4 c-0.4,0.4,1.6,17.8,3,26.5l0.5,2.9h13.5C130.2,294.6,136.3,294.5,136.3,294.4L136.3,294.4z M61.7,288c-3.4-3.6-7-7.6-7.8-8.8 c-1.5-2.2-1.5-2-1.6,6.5l0,8.8h15.7L61.7,288L61.7,288L61.7,288z M139.9,259.3v-5.6l-16.7,0.5c-9.2,0.3-17,0.7-17.5,1 c-0.4,0.3-0.6,1.4-0.4,2.6l0.4,2.1L139.9,259.3L139.9,259.3z M273.5,257.2c0-2-0.4-2.1-7.4-2.7c-4.1-0.3-11.8-0.6-17.2-0.6l-9.7,0 v5.4h34.3V257.2L273.5,257.2z M122.7,206.1c0-2-0.4-3.6-0.9-3.6c-0.5,0-0.9,1.6-0.9,3.6c0,2,0.4,3.6,0.9,3.6 C122.3,209.7,122.7,208.1,122.7,206.1L122.7,206.1z M258.1,206.1c0-2-0.4-3.6-0.9-3.6c-0.5,0-0.9,1.6-0.9,3.6c0,2,0.4,3.6,0.9,3.6 C257.7,209.7,258.1,208.1,258.1,206.1L258.1,206.1z M131.7,207.8c0-1.9-4.3-8.5-5.1-7.7c-0.2,0.2,0.2,1.8,0.9,3.4 c0.7,1.7,1.5,3.8,1.8,4.7C130.1,210.4,131.7,210.1,131.7,207.8L131.7,207.8z M251,204.8c0.9-2.4,1.5-4.6,1.3-4.8 c-0.7-0.7-5,5.9-5,7.8C247.3,211.1,249.2,209.5,251,204.8L251,204.8z M269.9,200.8c0-1.2-4.2-3.7-6.4-3.7c-1.1,0-1.8,0.5-1.5,1.1 C262.7,200.5,269.9,202.8,269.9,200.8L269.9,200.8z M114.6,200.2c1.5-0.8,2.7-1.8,2.7-2.3c0-1.4-3.4-1-5.9,0.6 C107,201.4,109.7,202.8,114.6,200.2L114.6,200.2z M136.7,198c0-1.6-3.2-2.7-5.4-1.9c-1.6,0.6-1.6,0.8,0.9,2.1 C135.2,199.9,136.7,199.8,136.7,198L136.7,198z M248.7,197c0.3-0.4-1.1-0.8-3.2-0.8c-3.4,0-4.8,1.3-3.1,2.9 C243,199.8,248,198.1,248.7,197L248.7,197z M123.2,194.7c-0.5-1.2-0.8-1.3-1.7-0.5c-0.9,0.8-0.8,1.3,0.2,1.9 C123.5,197.2,124,196.7,123.2,194.7L123.2,194.7z M257.9,195.1c-0.4-1.4-2-1-2.3,0.6c-0.2,1,0.2,1.2,1.2,0.8 C257.5,196.2,258.1,195.6,257.9,195.1L257.9,195.1z M132.9,188.6c1.9-1.5,1.3-3.2-1.2-3.2c-1.6,0-6.3,4.7-6.3,6.2 C125.4,194,126.8,193.4,132.9,188.6L132.9,188.6z M253,191.8c0.9-1.4-4-6.5-6.3-6.5c-3.2,0-2.7,2.1,1.2,4.8 C251.6,192.7,252.3,193,253,191.8L253,191.8z M270.5,190.1c0.5-1.6-2.9-1.4-6.1,0.2c-1.5,0.8-2.7,1.5-2.7,1.6 C261.7,192.8,270.2,191,270.5,190.1L270.5,190.1z M114.2,190.3c-2.9-2.2-7.6-1.5-5.3,0.8c0.3,0.3,2.1,0.6,3.8,0.6 C115.7,191.6,115.8,191.5,114.2,190.3L114.2,190.3z M259.3,185.6c0.6-3.7-0.1-5.7-1.3-3.8c-1,1.6-1,7.1,0,7.1 C258.4,188.9,259,187.5,259.3,185.6L259.3,185.6L259.3,185.6z M121.8,186c0-3.1-1.3-6-2.3-5c-0.8,0.8,0.5,7.9,1.5,7.9 C121.4,188.9,121.8,187.6,121.8,186L121.8,186z" fill="#e2bc69"/></g></svg>