<?xml version="1.0" encoding="UTF-8" standalone="no"?><svg xmlns="http://www.w3.org/2000/svg" xmlns:xlink="http://www.w3.org/1999/xlink" fill="#e2bc69" height="66.1" preserveAspectRatio="xMidYMid meet" version="1" viewBox="3.0 -2.1 58.0 66.1" width="58" zoomAndPan="magnify"><g id="change1_1"><path d="M57.393,16h-2.812c1.291-1.449,1.873-2.927,1.705-4.417c-0.377-3.336-4.37-5.263-4.831-5.475c0,0,0,0,0,0 c-1.447-0.724-1.447-1.214-1.447-2.105c0-1.38-0.195-2.716-2.553-3.895C43.15-2.045,35.614,7.996,33.489,11H29.52 C27.399,8,19.866-2.055,15.553,0.105C13.195,1.284,13,2.62,13,4c0,0.891,0,1.381-1.445,2.104c-0.412,0.188-4.46,2.119-4.84,5.479 C6.546,13.073,7.129,14.551,8.419,16H6.607C4.618,16,3,17.618,3,19.607v8.785c0,1.781,1.3,3.255,3,3.546V59.95 C6,62.183,7.817,64,10.051,64H25h14h14.949C56.183,64,58,62.183,58,59.95V31.939c1.7-0.291,3-1.765,3-3.546v-8.785 C61,17.618,59.382,16,57.393,16z M54.298,11.812c0.145,1.297-0.753,2.706-2.647,4.188H41.094c3.542-1.659,8.111-4.304,10.292-7.666 C52.528,9.019,54.129,10.294,54.298,11.812z M26,15.567c-2.611-1.009-8.471-3.535-11.617-6.932 c3.13,0.897,8.378,2.761,11.617,5.806V15.567z M28,13.413C28,13.185,28.186,13,28.413,13h6.174C34.814,13,35,13.185,35,13.413V16 h-7V13.413z M48.608,8.643c-3.147,3.39-8.999,5.914-11.608,6.924V14.45C40.233,11.406,45.474,9.542,48.608,8.643z M46.56,1.897 c1.447,0.724,1.447,1.214,1.447,2.105c0,0.867,0.077,1.717,0.72,2.522c-2.924,0.788-8.293,2.548-12.106,5.601 c-0.219-0.344-0.523-0.623-0.882-0.82C39.251,6.539,44.55,0.883,46.56,1.897z M15,4c0-0.891,0-1.382,1.447-2.105 c2.021-1.013,7.311,4.641,10.821,9.408c-0.36,0.196-0.666,0.474-0.886,0.818C22.57,9.069,17.203,7.31,14.28,6.522 C14.923,5.717,15,4.867,15,4z M8.702,11.812c0.169-1.519,1.77-2.793,2.912-3.479c2.181,3.362,6.75,6.007,10.292,7.666H11.349 C9.455,14.518,8.557,13.109,8.702,11.812z M5,28.393v-8.785C5,18.721,5.721,18,6.607,18H24v12H7H6.607C5.721,30,5,29.279,5,28.393z M8,59.95V32h16v30H10.051C8.92,62,8,61.08,8,59.95z M26,31V18h0.997c0.001,0,0.002,0,0.003,0c0.001,0,0.002,0,0.003,0h8.994 c0.001,0,0.002,0,0.003,0c0.001,0,0.002,0,0.003,0H38v13v31H26V31z M56,59.95c0,1.13-0.92,2.05-2.051,2.05H40V32h16V59.95z M59,28.393C59,29.279,58.279,30,57.393,30H57H40V18h17.393C58.279,18,59,18.721,59,19.607V28.393z" fill="inherit"/></g></svg>