<?xml version="1.0" encoding="UTF-8" standalone="no"?><svg xmlns="http://www.w3.org/2000/svg" xmlns:xlink="http://www.w3.org/1999/xlink" fill="#e2bc69" height="20.6" preserveAspectRatio="xMidYMid meet" version="1" viewBox="1.0 1.7 22.0 20.6" width="22" zoomAndPan="magnify"><g id="change1_1"><path d="M20.546,1.693H3.454A2.451,2.451,0,0,0,1.006,4.141v11.6a2.451,2.451,0,0,0,2.448,2.448h10.4l1.983,3.844a.516.516,0,0,0,.917,0l1.983-3.844h1.81a2.451,2.451,0,0,0,2.448-2.448V4.141A2.451,2.451,0,0,0,20.546,1.693Zm1.418,14.043a1.419,1.419,0,0,1-1.418,1.418H18.422a.514.514,0,0,0-.458.279L16.3,20.668l-1.669-3.235a.516.516,0,0,0-.459-.279H3.454a1.419,1.419,0,0,1-1.418-1.418V4.141A1.419,1.419,0,0,1,3.454,2.724H20.546a1.419,1.419,0,0,1,1.418,1.417Z" fill="inherit"/></g><g id="change1_2"><path d="M15,6.566h0a2.77,2.77,0,0,0-3,.64,2.769,2.769,0,0,0-3-.64A3.066,3.066,0,0,0,7.273,8.61a2.688,2.688,0,0,0,.463,2.3c.718.93,3.79,3.684,3.92,3.8a.514.514,0,0,0,.688,0c.13-.116,3.2-2.87,3.92-3.8a2.688,2.688,0,0,0,.463-2.3A3.066,3.066,0,0,0,15,6.566Zm.445,3.714A47.21,47.21,0,0,1,12,13.633,47.21,47.21,0,0,1,8.552,10.28a1.665,1.665,0,0,1-.278-1.423A2.037,2.037,0,0,1,9.427,7.5a1.939,1.939,0,0,1,2.175.759.518.518,0,0,0,.4.187h0a.518.518,0,0,0,.4-.186C12.44,8.211,13.47,7,14.572,7.5a2.036,2.036,0,0,1,1.154,1.354A1.665,1.665,0,0,1,15.448,10.28Z" fill="inherit"/></g></svg>