<?xml version="1.0" encoding="UTF-8" standalone="no"?><svg xmlns="http://www.w3.org/2000/svg" xmlns:xlink="http://www.w3.org/1999/xlink" fill="#000000" height="1010.1" preserveAspectRatio="xMidYMid meet" version="1" viewBox="-1.3 -1.0 390.2 1010.1" width="390.2" zoomAndPan="magnify"><g><g id="change1_8"><path clip-rule="evenodd" d="M-280.91-569.96c-0.13,0.18,12.82-9.08,13.03-9.14c0.43-0.14,0.83-0.33,1.25-0.48 c0.85-0.31,4.59-2.11,4.91-0.16c0.88,5.26-2.16,11.69-3.48,16.64c-2.03,7.75-3.07,15.75-3.32,23.76 c-0.73,23.45,5.44,46.32,6.32,69.67c-0.17-0.4-0.01,0.88,0.03,1.32c0.08,0.93,0.17,1.87,0.25,2.8c0.26,2.82,0.67,5.64,0.84,8.47 c0.52,8.58-3.78,12.93-7.57,20.48c-10.86,21.61-23.35,43.03-36.18,63.53c-6.43,10.29-11.86,21.26-17.68,31.9 c-4.53,8.25-10.45,16.66-12.34,26.04c-1.2,5.96-0.04,12.44,0.4,18.45c0.71,9.75,0.93,19.65,0.86,29.43 c-0.22,28.22-1.63,55.56-4.83,83.6c-1.35,11.8-1.73,23.52-4.16,35.2c0.44,0.51-2.46,22.86-2.74,25.08 c-3.22,25.73-4.69,51.82-10.59,77.13c-9.15,39.27-12.25,79.41-19.82,119.05c-5.94,31.09-16.22,65.44-16.7,97.21 c-0.38,24.5,10.35,46.62,12.69,70.72c0.81,8.38,2.31,21.74-4.53,28.16c-6.63,6.24-19.38,2.98-27.51,5.37 c-0.62,23.11,9.14,48.71,14.25,70.89c8.64,37.48,15.91,75.23,20.2,113.49c1.51,13.47,8.65,54.15-1.17,65.93 c-6.6,7.92-26.43-2.3-32.71-6.11c-27.35-16.65-59.1-42.49-93.07-39c-21.45,2.22-44.83,10.28-65.35,16.99 c-3.67,1.19-17.6,3.5-19.62,7.53c-2.57,5.16,0.01,28.6-2.96,31.56c-2.82,2.83-20.61-0.59-24.33-1.05 c-16.31-2.05-69.75-8.36-76.82-24.07c-3.21-7.12,1.54-19.43,2.83-26.55c3.72-20.45,4.04-42.77,9.85-62.7 c-0.83-0.87,4.06-38.74,4.42-42.78c3.92-44.84,10.82-88.63,18.6-132.93c5.38-30.64,7.24-61.59,10.82-92.46 c11.1-95.67,20.34-191.61,34.7-286.85c8.27-54.87,7.46-118.75,40.38-166.06c0.01,0.09,0.5-0.85,0.6-1.01 c1.5-2.47,3.18-4.86,4.76-7.28c3.72-5.7,7.64-11.3,11.52-16.89c11.77-17.01,23.46-32.65,39.04-46.45 c40.5-35.87,34.22-67.39,40.92-115.58c3.03-21.8,11.03-44.47,19.51-64.72c3.47-8.29,15.16-29.66,27.76-23.35 c13.07,6.54-8.64,22.67-1.1,29.79c7.61,7.18,23.94,6.54,33.44,7.56C-355.7-533.6-313.06-545.12-280.91-569.96z" fill="#000000" fill-rule="evenodd" transform="translate(440.54 594.825) scale(.63437)"/></g><g id="change1_1"><path clip-rule="evenodd" d="M-355.75,481.2c-0.2-0.04-1.15-14.93-1.05-14.74c0.19,0.39,7.33,13.55,7.82,14.74 c1.54,3.78,4.16,6.24,5.86,9.93c5.15,11.12,4.47,22.66,3.43,34.58c-0.26,3.02-0.37,6.09-1.2,9.03c-0.15,0.52-0.56,2.51-1.21,2.66 c-0.7,0.16-1.31-2.43-1.43-2.81c-1.07-3.4-2.01-6.85-2.99-10.27C-350.53,510.38-355.56,495.84-355.75,481.2z" fill="#000000" fill-rule="evenodd" transform="translate(440.54 594.825) scale(.63437)"/></g><g id="change1_5"><path clip-rule="evenodd" d="M-502.89,526.41c0.24-0.22,0.19,0.63,0.29,0.94c0.22,0.66,0.41,1.34,0.71,1.97c0.88,1.93,2.12,3.62,3.42,5.27 c4,5.1,8.96,9.18,14.69,12.23c3.06,1.63,6.28,2.98,9.46,4.36c2.58,1.1,5.25,2.1,7.92,2.95c12.61,4.07,33.01,6.34,39.03-9.12 c1.92-4.91,0.83-10.14-1-14.89c-0.65-1.68-1.04-3.91-2.9-4.68c-1.94-0.8-4.57-0.35-6.59-0.25c-4.02,0.22-8.05,0.47-12.08,0.55 C-464.35,526.04-488.5,527.06-502.89,526.41z" fill="#000000" fill-rule="evenodd" transform="translate(440.54 594.825) scale(.63437)"/></g><g id="change1_6"><path clip-rule="evenodd" d="M-342.56,584.74c0.11-0.13-1.45,12.66-1.66,13.51c-0.57,2.32-1.36,4.6-2.26,6.82 c-2.94,7.22-8.02,12.5-14.74,16.41c-6.91,4.01-15.87,6.34-23.78,6.9c-5.69,0.41-11.53-0.17-17.17,0.7 c-3.56,0.55-10.91,3.24-8.14,7.75c9.91,16.2,28.72,7.44,38.99,4.16c5.56-1.77,10.5-5.12,15.16-8.59 c8.85-6.6,19.16-14.12,19.16-26.26C-337.01,592.12-339.48,591.12-342.56,584.74z" fill="#000000" fill-rule="evenodd" transform="translate(440.54 594.825) scale(.63437)"/></g><g id="change2_3"><path clip-rule="evenodd" d="M-420.19-177.05c0.26-0.92-0.25,1.9-0.54,2.81c-0.58,1.79-1.39,3.52-2.15,5.24 c-2.41,5.48-4.82,10.77-7.8,15.98c-8.69,15.18-16.04,31.76-23.53,47.58c-8.68,18.33-19.89,35.54-25.96,55.02 c-5.56,17.84-6.37,37.06-9.17,55.46c-2.04,13.42-6,26.48-8.16,39.91c-11.29,70.38-40.53,138.9-45.64,210.39 c-1.01,14.14,6.8,30.68,10.03,44.25c7,29.38,15.45,59.78,19.97,89.57c2.33,15.32,0.8,30.78,1.66,46.18 c0.97,17.41,4.09,34.54,4.91,51.99c0.5,10.63-1.6,22.96,1.12,33.14c-0.08-0.41,0.33,0.76,0.53,1.13c0.4,0.7,0.82,1.39,1.17,2.11 c1.01,2.1,1.22,4.75,2.48,6.7c0.99,1.53,2.91,2.31,4.24,3.5c3.65,3.31,7.43,6.2,11.21,9.33c1.14,0.94,2.78,2.73,4.25,3.04 c1.19,0.25,2.24-0.58,3.42-0.05c2.36,1.08,3.8,3.46,6.37,4.3c2.31,0.75,3.85-0.77,5.96-0.8c3.44-0.03,6.58,1.1,10.09,0.67 c2.29-0.29,4.03-2.41,6.27-2.53c4.28-0.21,7.92,2.19,12.45,1.39c6.19-1.1,8.7-8.17,8.35-13.88c-0.81-13.09-16.39-51.83-18.4-55.52 c-5.99-10.93-8.66-24.56-11.6-36.6c-1.82-7.48-5.11-14.52-6.77-21.97c-1.66-7.44-0.54-15.15-1.84-22.64 c-2.58-14.9-6.78-29.1-8.11-44.26c-1.37-15.53,0.96-31.42,2.98-46.78c1.54-11.73,3.07-23.43,5.09-35.08 c0.13-0.73,1.82-10.22,1.88-10.21c1.07,0.22,1.81,7.9,1.97,8.84c1.6,9.24,3.08,18.55,4.95,27.73 c4.29,21.02,15.5,39.79,21.72,60.12c8.9,29.14,20.77,58.02,27.38,87.79c5.85,26.33,7.28,54.44,6.5,81.36 c-0.44,15.32-4.24,31.42-7.97,46.25c-2,7.96-5.21,16.65-5.75,24.87c-0.36,5.51,1.47,11.12,2.23,16.56 c0.91,6.49,0.72,14.61,4.31,20.37c4.43,7.1,12.93,7.91,18.87,2.68c0.88-0.77,2.48-3.83,2.48-3.83s2.83,2.9,4.47,4.57 c-0.25,0.18,1.87,0.66,2,0.66c1.79-0.01,3.22-0.93,4.94-1.29c1.54-0.31,2.74-0.84,3.84-2.02c0.53-0.56,0.82-1.61,1.59-1.92 c2.12-0.84,4.42,0.41,6.65-1.15c1.2-0.84,1.86-2.39,3.22-3c1.41-0.64,2.95-0.25,4.24-1.29c1.62-1.31,2.22-3.33,3.65-4.74 c1.65-1.61,3.7-2.77,5.24-4.53c1.95-2.2,3.16-4.95,4.61-7.48c2.35-4.13,4.49-7.04,5.18-11.92c0.57-4.08,0.02-8.21-0.15-12.3 c-0.46-10.78-1.9-21.53-2.53-32.31c-0.53-9-0.65-18.06-0.74-27.06c-0.08-7.39,0.18-14.69-1.27-21.97 c-1.55-7.81-5.75-15.22-8.15-22.81c-2.03-6.43-2.28-13.18-3.07-19.82c-0.1-0.84-0.69-3.62-0.85-4.3 c-1.05-4.46-2.54-8.79-3.89-13.14c-4.87-15.65-4.62-31.96-5.04-48.2c-1.16-44.68,1.35-90.9-8.89-134.79 c-7.32-31.39-24.28-58.47-35.06-88.38c0.04,0.47-0.17-0.94-0.25-1.42c-0.16-0.93-0.38-1.84-0.59-2.75 c-0.62-2.74-1.18-5.5-1.69-8.25c-1.58-8.45-1.14-16.9-0.66-25.43c1.42-25.17,7.91-50,11.68-74.87 c3.02-19.94,5.98-40.28,6.43-60.48c0.85-38.32-4.45-77.82-10.69-115.54C-407.53-131.03-415.54-159.21-420.19-177.05z" fill="#ebd1cb" fill-rule="evenodd" transform="translate(440.54 594.825) scale(.63437)"/></g><g id="change1_3"><path clip-rule="evenodd" d="M-413.61,623.19c0.51-0.89,0.26-4.04,0.26-5.38c0-2.77,0.23-4.41,2.51-6.06c4.8-3.49,13.02-3.53,18.65-3.74 c7.87-0.29,16.04-1.02,23.84-2.09c6.05-0.83,13.71-2.91,19.49,0c2.75,1.38,3.9,4.58,5.3,7.15c0.18,0.34,1.26,2.69,1.79,2.61 c1.57-0.24,2.5-4.32,2.5-5.56c0.02-5.35-5.44-8.8-9.87-10.63c-7.24-2.98-17.26,0-24.83,0c-18.23,0-23.36-0.39-32.67,2.69 c-2.83,0.94-7.34,2.27-8.8,7.94C-416.26,613.31-414.88,619.85-413.61,623.19z" fill="#000000" fill-rule="evenodd" transform="translate(440.54 594.825) scale(.63437)"/></g><g id="change1_2"><path clip-rule="evenodd" d="M-461,388.21c0.01,0.01-10.47-4.43-10.64-4.37c-3.52,1.4-7,2.98-10.66,3.99c-8.22,2.28-17.3,3.4-25.82,3.02 c-2.84-0.12-6.3-3.12-8.85-2.64c-3.01,0.56-3.88,3.97-3.32,6.55c1.42,6.55,11.02,5.05,16.03,4.95 C-489.59,399.38-472.78,398.01-461,388.21z" fill="#000000" fill-rule="evenodd" transform="translate(440.54 594.825) scale(.63437)"/></g><g id="change1_7"><path clip-rule="evenodd" d="M-501.36,530.28c0,0,0.67-2.06,1.64-3.91c2.7-5.13,12.12-5.14,16.49-5.34c14.08-0.64,28.48-1.64,42.57-0.94 c1.94,0.1,4.23,0.56,6.12,1.46c2.86,1.34,3.74,2.83,3.74,2.83s0.26-4.49,0-5.82c-1.12-5.76-11.34-5.23-15.59-5.38 c-7.48-0.25-14.93,0.41-22.4,0.67c-8.96,0.31-18.41,0.42-26.85,3.83c-3.34,1.35-6.6,3.58-7.49,7.28 C-503.74,527.48-501.36,530.28-501.36,530.28z" fill="#000000" fill-rule="evenodd" transform="translate(440.54 594.825) scale(.63437)"/></g><g id="change2_1"><path clip-rule="evenodd" d="M-420.64-791.25c2.56,0.37,8.3-3.43,10.5-4.49c8.8-4.2,17.4-8.42,26.41-12.17 c8.84-3.67,17.74-9.24,26.85-12.7c3.86-1.47,7.76-1.58,11.71-2.61c3.8-0.99,7.87-0.47,11.73-1.27 c10.25-2.12,19.75-5.43,29.47-9.11c5.13-1.94,11.15-2.98,15.85-5.82c3.06-1.84,3.83-6.93,6.36-10.96c2.31-3.7,6.47-6.28,7.15-9.49 c1.13-5.37-7.15-7.39-11.07-5.84c-1.01,0.4-8.78,3.72-8.78,3.01c0-6.01,5.93-11.88,8.78-17.1c6.4-11.76,13.37-23.6,18.52-35.99 c1.98-4.75,5.99-16.82,0.58-20.84c-3.53-2.61-4.67,0.1-6.26,3.45c-1.77,3.76-3.25,8.65-5.68,12.03c-0.14,0.21-2.83-0.98-3.24-1.03 c-2.27-0.32-5-0.21-7.2,0.41c-3.67,1.02-6.85,7.19-8.93,10.33c-2.73,4.08-5.09,8.44-8.38,12.11c-0.54,0.6-2.58,2.82-3.5,2.6 c-0.5-0.11,0.7-2.12,0.77-2.26c1.32-2.18,3.45-3.68,4.88-5.77c2.86-4.17,5.51-11.09-1.73-12.85c-2.28-0.55-4.51,1.39-6.03,2.81 c-3.66,3.43-6.94,7.2-10.55,10.68c-0.59,0.57-4.2,4.9-4.79,4.75c-0.47-0.12,0.97-3.86,1.12-4.26c1.36-3.93-1.15-8.63-5.68-7.78 c-5.54,1.03-9.18,7.01-12.78,10.77c-4.35,4.54-8.81,8.98-12.3,14.25c-5.37,8.11-8.72,20.9-18.01,24.39 c-75.5,28.38-151.73,68.69-161.78,74.32c-4.78,2.68-11,5.78-13.82,10.78c-1.71,3.02-1.68,7.72-1.41,11.1 c0.7,8.59,19.7,96.26,32.97,124.07c8.91,18.68,21.7,56.12,33.33,73.27c2.54,3.75,4.94,7.61,7.56,11.3c0.24,0.34,1.95,3.46,2.5,3.4 c1.97-0.2,2.81-13.3,2.91-14.26c1.62-16.71,2.7-33.47,4.73-50.13c2.36-19.37,4.56-39.54,2.27-59.04 c-1.56-13.27-8.66-24.76-10.49-37.67C-479.82-740.87-441.66-777.83-420.64-791.25z" fill="#ebd1cb" fill-rule="evenodd" transform="translate(440.54 594.825) scale(.63437)"/></g><g id="change2_4"><path clip-rule="evenodd" d="M-264.53-579.49c0.29-0.04-0.42,0.39-0.58,0.63c-0.37,0.49-0.67,1.01-0.92,1.56 c-0.76,1.63-1.39,3.35-1.9,5.08c-1.6,5.32-2.64,10.68-3.5,16.16c-1.56,9.83-2.7,19.74-4.18,29.58 c-0.77,5.03-0.87,10.59-4.89,14.26c-5.58,5.08-15.87,4.31-22.75,3.9c-18.92-1.13-38.74-6.05-56.8-11.74 c-0.78-0.25-4.46-0.84-5.16-0.94c-5.23-0.8-10.5-1.28-15.77-1.74c-17.73-1.55-35.01-5.97-52.13-10.65 c-4.59-1.26-15.14-2.06-16.85-7.59c-3.39-10.99,8.29-27.08,16.85-31.23c8.71-4.23,18.33,0.71,27.32-2.78 c4.55-1.77-38.03-70.95-44.17-78.73c-13.76-17.42-17.7-69.65-17.7-91.96c0-26.73,59.71-34.78,76.05-26.73 c44.12,21.73,91.1,112.28,69.74,152.56c-1.23,2.33,6.23,1.79,8.51,4.55c0.85,1.03,2.41-1.67,3.03-2.05 c0.47-0.28,0.91,0.73,1.42,0.66c1.1-0.16,4.3-1.55,5.35-0.54c0.91,0.86,0.85,2.98,1.23,4.11c0.67,2.02,1.92,3.76,3.16,5.46 C-291.37-597.16-277.22-583.88-264.53-579.49z" fill="#ebd1cb" fill-rule="evenodd" transform="translate(440.54 594.825) scale(.63437)"/></g><g id="change3_7"><path clip-rule="evenodd" d="M-270.04-662.24c0.42-0.09,1.99,2.74,2.19,3.04c2.28,3.34,4.18,6.89,5.72,10.63 c1.47,3.56,3.63,10.46,1.14,14.12c-0.83,1.19-2.99,0.84-4.05,1.92c-2.98,3.08-5.22,6.93-7.74,10.6c-1.23,1.8-0.54,6.7-3.08,7.66 c-0.71,0.27-1.23-1.64-2.02-1.64c-0.8,0.01-1.1,1.61-1.85,1.87c-0.8,0.27-1.52-1.17-2.16-0.76c-1.15,0.73-0.68,4.16-1.72,5.39 c-2.56,3.04-10.27,3.76-13.43,2.61c-3.19-1.16-3.04-5.93-6.43-6.9c-3.63-1.04-8.29,1.13-11.56-1.11c-0.7-0.48,3.69-6.55,2.73-7.21 c-0.49-0.33-0.35,1.12-0.52,1.68c-0.37,1.17-0.93,2.15-1.6,3.18c-1.19,1.84-6.31,5.69-8.53,3.42c-1.01-1.03,1.98-6.64,2.41-7.79 c0.07-0.18,1.02-3.11,0.84-3.07c-0.66,0.12-1.42,3.27-1.63,3.79c-0.89,2.25-5.63,14.29-10.06,10.51c-1.41-1.2,0.12-5.66-0.52-6.1 c-0.99-0.68,0.16-3.46,0.82-5.33c2.04-5.77,2.13-11.17,3.48-17.32c0.59-2.72,0.5-5.64,0.93-8.4c1.19-7.7,4.13-23.8-1.71-30.86 c-0.46-0.55-4.26-8.35-7.04-12.03c-0.32-0.42,0.31,1,0.5,1.49c0.44,1.12,0.85,2.26,1.23,3.4c0.82,2.46,4.67,13.39,2.6,13.39 c-0.82,0-1.35-6.09-2.6-8.43c-2.96-5.53-3.38-6.49-5.16-8.36c-11.07-11.55-11.93-7.82-2.37,5.88c0.79,1.13-7.25-7.01-11.07-10.98 c-12.4-12.89-24.79-27.17-38.39-38.99c-3.8-3.3-7.6-8.56-12.36-10.43c-3.55-1.4,0.44,2.94,1.19,3.62 c4.11,3.7,6.65,7.73,11.16,12.53c2.19,2.33,4.86,5.72,3.9,5.9c-2.6,0.49-8.64-7.65-10.41-9.45c-6.92-7.03-13.04-15.81-20.68-22.1 c-2.24-1.84-5.3-5.32-8.3-5.79c-1.04-0.16,1.97,4.13,2.2,4.46c2.66,3.69,5.75,7.03,8.39,10.73c0.13,0.18,2.22,3.09,2,3.18 c-2.15,0.86-6.88-4.96-7.99-6.17c-3.19-3.5-9.61-10.13-14.8-12.19c-3.25-1.29-4.95,0.25-8.41,2.21 c-11.44,6.51-11.33,15.72-13.11,28.07c-0.88,6.1,2.51,23.92,2.69,24.7c0.79,3.38,3.2,10.17,4.6,13.34 c3.34,7.58,14.56,24.45,17.98,28.1c8.43,9,14.75,13.67,17.04,16.89c3.02,4.25-10.7,7.14-6.4,11.87c2.19,2.41,7.46,5.12,10.96,3.46 c2.19-1.04,4.98-6.76,4.98-6.76s2.22,0.47,4.83,3.3c11.71,12.68,19.66,30.89,20.78,48.33c0.09,1.42-0.43,9.49-2.71,9.92 c-1.68,0.31-3.08-8.36-5.14-7.8c-1.07,0.29-1.93,3.64-2.4,4.47c-0.86,1.54-3.66,3.84-5.45,5.23c-7.1,5.53-18.22,8.71-27.03,9.15 c-6.55,0.33-11.6-10.09-18.63-4.38c-4.7,3.81-6.41,12.46-8.81,17.69c-3.44,7.51-9.74,15.68-14.56,22.38 c-1.35,1.88-7.02,12.23-10.24,10.43c-1.06-0.6,4.18-9.47,3.7-9.61c-0.66-0.19-3.19,3.55-3.53,4.05c-2.86,4.17-6.78,7.1-10.97,9.9 c-0.83,0.56-3.84,2.53-4.71,1.42c-1.25-1.6,1.59-5.14,2.47-6.22c4.17-5.08,8.66-9.96,12.67-15.16c5.24-6.78,1.65-19.29-0.61-26.65 c-1.15-3.75-3.56-6.92-4.65-10.75c-0.64-2.25-0.13-5.88-1.39-7.79c-2.15-3.26,0.28-25.65-0.91-34.84 c-2.06-15.94-7.71-23.39-4.34-37.65c5.6-23.7-2.38-49.25-0.01-73.22c0.58-5.81,2.69-11.55,6.09-16.3 c0.98-1.36,6.36-5.65,6.44-6.96c0.03-0.48-2.06-1.64-2.38-1.92c-2.19-1.95-3.97-4.42-5.8-6.7c-4.97-6.18-5.05-15.82-0.81-22.36 c9.97-15.36,29.79-10.92,45.3-13.22c1.75-0.26,2.69-1.25,4.25-1.96c4.46-2.04,12.48-1.42,17.13-1.45 c5.53-0.03,10.92,2.73,16.27,3.89c8.77,1.9,17.95,2.3,26.19,6.24c7.16,3.42,12.02,9.72,18.29,14.36 c7.81,5.77,16.95,10.79,23.97,17.53c10.24,9.81,17.33,23.87,25.4,35.39c4.07,5.8,9.85,10.47,13.83,16.14" fill="#35221b" fill-rule="evenodd" transform="translate(440.54 594.825) scale(.63437)"/></g><g id="change2_2"><path clip-rule="evenodd" d="M-263.75-576.68c-0.89,2.5-1.72,6.14-2.22,7.71c-1.82,5.9-3.27,11.85-3.75,18.02 c-1.02,12.82-4.22,25.54-4.33,38.44c-0.08,11.16,2.43,22.46,4.47,33.38c1.43,7.6,3.11,15.13,4.93,22.65 c0.21,0.86,1.09,6.37,2.36,6.41c1.29,0.04,2.65-2.75,3.21-3.58c2.72-4.01,5.46-8.01,8.23-11.99c4.76-6.85,10.76-12.8,15.96-19.31 c7.21-9,12.67-18.14,19.31-27.56c9.85-13.96,23.13-25.87,34.38-38.63c11.95-13.55,23.05-27.79,34.7-41.59 c18.46-21.85,36.19-42.82,49.47-68.4c7.29-14.05,14.44-27.92,15.23-44.07c0.33-6.64-0.12-14.07-4.87-19.21 c-5.23-5.67-12.37-6.77-19.66-7.46c-11.05-1.04-21.87-0.54-32.86,0.76c-17.28,2.04-37.53,4.48-54.35,8.55 c-20.19,4.89-48.39,12.12-68.75,16.2c-10.57,2.13-21.63,4.94-30.15,3.18c-2.99-0.62-9.59-6.49-9.96-6.83 c-4.05-3.72-7.45-8.25-10.87-12.55c-6.62-8.31-11.19-19.06-18.51-26.69c-5.12-5.34-12.21-8.93-19.17-11.14 c-3.86-1.23-11.05-3.56-15.07-1.97c-3.58,1.41,0.39,3.82-0.64,5.27c-1.47,2.07-7.08-1.39-8.49,1.94 c-2.36,5.58,3.85,8.84,7.7,11.05c4.16,2.39,8.25,4.92,12.51,7.15c1.81,0.95,4.49,1.44,6,2.81c2.72,2.47,8.12,6.55,10.08,9.72 c3.24,5.24,1.16,12.32,3.1,18.08c2.82,8.36,6.73,11.63,8.96,20.15c1.3,4.92,2.9,20.66,4.78,25.05c3.95,9.23,15.91,4.79,23.64,3.16 c6.17-1.3,13.98-0.74,19.9-3.16c10.94-4.48,27.33-8.39,39.07-10.13c19.47-2.88,32.55-2.35,50.3,0c8.36,1.11,16.69,1.45,25.1,1.38 c2.9-0.02,5.75-0.01,8.63,0.2c1.32,0.1,4.37-1.15,3.97,0.12c-0.21,0.71-5.47,3.15-6.27,3.79c-5.47,4.32-10.95,8.97-15.91,13.86 c-6.91,6.81-14.02,14.23-19.94,21.93c-3.83,4.99-22.08,19.62-26.41,21.81c-6.62,3.36-12.62,7.89-19.47,10.92 C-248.72-593.11-258.45-585.96-263.75-576.68z" fill="#ebd1cb" fill-rule="evenodd" transform="translate(440.54 594.825) scale(.63437)"/></g><g id="change3_1"><path clip-rule="evenodd" d="M-370.67-700.2c-0.48-0.18-0.96-0.48-1.43-0.84c-1.14-0.87-2.24-2.05-3.18-2.81l-11.37-9.44 c-8.91-7.3-16.42-15.84-23.82-24.49c-5-5.84-9.91-11.77-15.18-17.35c-5.71-6.05-11.84-11.67-18.65-16.63 c-1.02-0.75-2.46-0.52-3.21,0.5c-0.75,1.02-0.52,2.46,0.5,3.21c7.01,5.14,13.14,11.15,19.11,17.33 c9.11,9.44,17.72,19.4,27.28,28.44c4,3.78,8.18,7.37,12.66,10.67l11.85,8.84c0.98,0.71,2.15,1.85,3.34,2.66 c0.59,0.4,1.18,0.72,1.76,0.9c0.27,0.09,0.57-0.05,0.66-0.33C-370.26-699.81-370.4-700.11-370.67-700.2z" fill="#35221b" fill-rule="evenodd" transform="translate(440.54 594.825) scale(.63437)"/></g><g id="change1_4"><path clip-rule="evenodd" d="M-407.34,471.02c14.52,5.59,30.4,3.9,43.96-3.59c3.45-1.9,6.32-4.53,9.52-6.61c1.36-0.88,2.65-0.59,3.82-1.98 c1.44-1.72,1.49-5.38-0.5-6.76c-1.59-1.09-5.44-0.24-6.91,0.83c-6.09,4.42-10.99,8.74-18.62,10.55 c-7.54,1.78-17.35,3.96-24.95,1.14c-2.95-1.1-5.18-3.27-6.98-5.77c-0.54-0.75-1.63-3.07-2.8-2.93c-1.36,0.18-2,2.56-2.31,3.58 C-414.45,463.96-410,467.32-407.34,471.02z" fill="#000000" fill-rule="evenodd" transform="translate(440.54 594.825) scale(.63437)"/></g><g id="change3_10"><path clip-rule="evenodd" d="M-338.77-679.49c-1.74-2.83-3.36-5.57-5.19-8.2c-1.22-1.76-2.54-3.47-4.06-5.13 c-1.75-1.91-3.61-3.7-5.52-5.42c-4.41-3.97-9.08-7.62-13.3-11.83c-6.55-6.52-12.34-13.72-18.61-20.49 c-1.59-1.72-3.21-3.4-4.87-5.05c-1.26-1.24-2.57-2.44-3.9-3.6c-5.19-4.54-10.8-8.6-15.85-13.31c-4.37-3.98-8.41-8.36-12.83-12.27 c-3.07-2.71-6.33-5.19-9.97-7.2c-1.76-0.97-3.65-2.08-5.61-2.88c-1.48-0.61-3.01-1.05-4.55-1.18c-1.26-0.11-2.38,0.82-2.49,2.08 c-0.11,1.26,0.82,2.38,2.08,2.49c1.09,0.1,2.16,0.44,3.2,0.87c1.79,0.75,3.51,1.78,5.11,2.68c3.33,1.85,6.3,4.16,9.12,6.65 c4.41,3.89,8.46,8.23,12.83,12.18c5.22,4.6,10.98,8.54,16.35,12.95c1.31,1.07,2.59,2.18,3.84,3.33c1.68,1.55,3.32,3.14,4.93,4.76 c6.53,6.57,12.6,13.58,19.41,19.88c4.41,4.07,9.25,7.57,13.84,11.4c1.93,1.62,3.82,3.29,5.6,5.1c1.53,1.55,2.87,3.16,4.12,4.82 c1.91,2.54,3.61,5.2,5.45,7.94c0.16,0.24,0.48,0.31,0.72,0.16C-338.68-678.92-338.61-679.25-338.77-679.49z" fill="#35221b" fill-rule="evenodd" transform="translate(440.54 594.825) scale(.63437)"/></g><g id="change3_13"><path clip-rule="evenodd" d="M-345.47-681.55c-2.63-3.56-5.34-7.05-8.21-10.4c-2.88-3.37-5.91-6.6-9.17-9.64c-4.48-4.18-9.3-7.95-13.88-12 c-1.93-1.71-3.82-3.46-5.62-5.32c-8.57-8.82-15.83-18.5-24.23-27.27c-3.64-3.8-7.51-7.42-11.75-10.76l-13.42-10.41 c-2.85-2.16-5.73-4.33-8.9-5.74c-2.3-1.02-4.74-1.66-7.42-1.68c-1.27-0.01-2.3,1-2.32,2.27c-0.01,1.27,1,2.3,2.27,2.32 c2.02,0.03,3.85,0.54,5.58,1.32c2.84,1.28,5.4,3.28,7.95,5.24l13.41,10.39c4.15,3.11,7.92,6.53,11.52,10.08 c8.65,8.53,16.28,17.9,25.14,26.42c1.92,1.84,3.93,3.58,5.99,5.26c4.72,3.86,9.67,7.43,14.3,11.42c3.32,2.87,6.43,5.93,9.38,9.13 c2.97,3.22,5.79,6.57,8.54,10c0.17,0.23,0.5,0.27,0.73,0.1C-345.34-681-345.3-681.32-345.47-681.55z" fill="#35221b" fill-rule="evenodd" transform="translate(440.54 594.825) scale(.63437)"/></g><g id="change3_5"><path clip-rule="evenodd" d="M-329.59-660.23c0.05-0.06,0.11-0.1,0.18-0.13C-329.46-660.33-329.65-660.26-329.59-660.23 c-0.13,0.15-0.17,0.36-0.08,0.56c0.12,0.26,0.43,0.38,0.68,0.26c0.21-0.09,0.42-0.37,0.49-0.84c0.08-0.64-0.05-1.77-0.05-1.96 c-0.04-1.35-0.14-2.7-0.3-4.05c-0.16-1.35-0.37-2.69-0.65-4.02c-0.88-4.21-2.42-8.24-4.35-12.11c-2.86-5.75-6.6-11.13-10.34-16.18 c-5.46-7.36-11.38-14.79-17.69-21.86c-6.35-7.11-13.09-13.85-20.13-19.8c-2.35-1.98-4.8-3.83-7.3-5.6 c-5.71-4.03-11.7-7.67-17.27-11.9c-5.32-3.96-10.81-9.27-16.78-13.37c-4.31-2.95-8.86-5.29-13.74-6.24 c-1.24-0.24-2.45,0.57-2.69,1.81s0.57,2.45,1.81,2.69c4.27,0.84,8.22,2.96,11.98,5.56c5.92,4.09,11.35,9.35,16.62,13.29 c5.68,4.18,11.76,7.79,17.6,11.73c2.44,1.65,4.85,3.35,7.16,5.2c7.07,5.64,13.87,12.07,20.32,18.86 c6.46,6.81,12.57,13.97,18.21,21.09c3.83,4.84,7.67,9.99,10.67,15.54c1.99,3.69,3.61,7.54,4.6,11.59 c0.31,1.28,0.57,2.57,0.76,3.88c0.2,1.31,0.34,2.62,0.42,3.94c0.01,0.19,0.58,2.07,0.1,1.94L-329.59-660.23z" fill="#35221b" fill-rule="evenodd" transform="translate(440.54 594.825) scale(.63437)"/></g><g id="change3_11"><path clip-rule="evenodd" d="M-476.47-579.99L-476.47-579.99c-0.11,0.51-1.61-0.83-1.77-0.91c-1.09-0.59-2.16-1.22-3.21-1.88 c-1.05-0.66-2.09-1.35-3.11-2.05c-4.41-3.02-8.24-6.79-10.97-11.18c-2.69-4.34-4.3-9.29-4.3-14.72c0-4.35,0.88-8.22,2.23-11.88 c2.11-5.72,5.36-10.96,8.36-16.73c1.53-2.95,2.88-6.04,4.02-9.19c1.15-3.16,2.09-6.39,2.83-9.64c1.22-5.41,1.61-10.82,1.58-16.23 c-0.04-6.22-0.62-12.43-1.18-18.66c-0.55-6.05-1.08-12.12-0.9-18.21c0.13-4.89,0.74-9.83,2.39-14.28 c1.58-4.28,4.13-8.11,8.19-10.96c1.04-0.73,1.29-2.16,0.57-3.2c-0.73-1.04-2.16-1.29-3.2-0.57c-3.91,2.72-6.68,6.18-8.61,10.08 c-2.8,5.65-3.83,12.25-4.02,18.79c-0.17,6.29,0.34,12.55,0.99,18.79c0.63,6.11,1.39,12.19,1.58,18.29 c0.15,5.11-0.07,10.22-1.09,15.37c-0.61,3.12-1.43,6.22-2.44,9.27c-1.01,3.05-2.21,6.03-3.6,8.89c-2.88,5.96-6.03,11.4-8,17.29 c-1.33,3.97-2.14,8.15-2,12.81c0.18,5.83,2.04,11.1,5.08,15.67c2.98,4.49,7.08,8.31,11.77,11.31c1.06,0.68,2.13,1.34,3.22,1.98 c1.09,0.64,2.2,1.25,3.33,1.82c0.16,0.08,1.14,0.66,1.76,0.88c0.46,0.16,0.82,0.08,0.97-0.04c0.22-0.18,0.25-0.51,0.07-0.73 C-476.08-579.98-476.28-580.04-476.47-579.99z M-476.47-579.99c-0.07,0.02-0.14,0.05-0.21,0.1 C-476.64-579.92-476.46-580.08-476.47-579.99z" fill="#35221b" fill-rule="evenodd" transform="translate(440.54 594.825) scale(.63437)"/></g><g id="change3_4"><path clip-rule="evenodd" d="M-464.86-573.78c-0.23-0.3-0.69-0.55-1.25-0.75c-0.91-0.32-2.13-0.51-2.66-0.7 c-1.33-0.47-2.62-1.01-3.88-1.63c-1.25-0.62-2.47-1.32-3.64-2.09c-5.8-3.86-11.69-8.5-16.36-14.02c-3.08-3.64-5.62-7.66-7.25-12.1 c-0.94-2.56-1.16-5.29-0.98-8.05c0.28-4.23,1.53-8.5,2.83-12.33c3.62-10.7,10.04-20.11,14.82-30.27c2.12-4.5,3.91-9.14,5.06-14.07 c1.49-6.53,1.54-13.08,1.07-19.64c-0.67-9.4-2.4-18.81-1.78-28.21c0.24-3.71,0.85-7.43,2.06-11.13c0.39-1.2-0.26-2.5-1.47-2.9 c-1.2-0.39-2.5,0.26-2.9,1.47c-2.02,6.13-2.58,12.27-2.47,18.42c0.16,8.35,1.55,16.7,2.04,25.04c0.31,5.34,0.27,10.68-0.86,16.01 c-0.97,4.66-2.56,9.06-4.45,13.34c-4.56,10.38-10.74,20.08-14.11,30.98c-1.26,4.1-2.44,8.67-2.61,13.15 c-0.11,3.13,0.26,6.21,1.4,9.08c1.86,4.64,4.66,8.82,8.03,12.56c4.95,5.51,11.1,10.08,17.15,13.85c1.24,0.77,2.53,1.46,3.85,2.07 c1.32,0.6,2.68,1.13,4.06,1.57c0.54,0.17,1.76,0.33,2.69,0.62c0.34,0.11,0.64,0.21,0.79,0.39c0.18,0.22,0.51,0.26,0.73,0.08 C-464.72-573.23-464.68-573.56-464.86-573.78z" fill="#35221b" fill-rule="evenodd" transform="translate(440.54 594.825) scale(.63437)"/></g><g id="change3_8"><path clip-rule="evenodd" d="M-424.72-790.61c-5.56-0.88-11.28-1.09-16.98-0.77c-5.72,0.32-11.4,1.2-16.88,2.47 c-2.92,0.69-5.84,1.44-8.54,2.65c-1.9,0.85-3.68,1.94-5.31,3.36c-4.31,3.81-6.74,8.75-7.34,13.62c-0.29,2.37-0.13,4.72,0.45,6.91 c1.83,7.02,7.83,12.58,17.76,12.42c1.27-0.02,2.28-1.06,2.26-2.33c-0.02-1.27-1.06-2.28-2.33-2.26 c-7.32,0.08-11.78-3.87-13.17-9.03c-0.45-1.66-0.59-3.43-0.44-5.24c0.35-3.94,2.1-8.01,5.43-11.26c1.27-1.25,2.69-2.22,4.22-3.01 c2.44-1.26,5.11-2.09,7.78-2.88c5.26-1.56,10.73-2.74,16.27-3.39c5.56-0.65,11.17-0.78,16.67-0.25c0.28,0.04,0.55-0.17,0.58-0.45 C-424.23-790.31-424.43-790.57-424.72-790.61z" fill="#35221b" fill-rule="evenodd" transform="translate(440.54 594.825) scale(.63437)"/></g><g id="change3_6"><path clip-rule="evenodd" d="M-407.95-789.8c-11.67-2.13-25.61-3.25-38.81-1.65c-9.06,1.1-17.75,3.49-25.17,7.63 c-4.77,2.67-8.81,7.57-10.54,12.92c-1.86,5.76-1.06,11.98,3.76,16.64c1.89,1.81,4.21,3.15,6.72,4.1c3.51,1.33,7.4,1.91,10.95,2.11 c1.26,0.07,2.35-0.89,2.43-2.16c0.07-1.26-0.89-2.35-2.15-2.43c-2.6-0.16-5.41-0.55-8.06-1.36c-2.48-0.76-4.82-1.9-6.63-3.65 c-3.47-3.31-3.86-7.76-2.62-11.9c1.31-4.38,4.39-8.51,8.18-10.83c6.86-4.23,15.02-6.81,23.55-8.24 c12.91-2.16,26.66-1.72,38.23-0.16c0.28,0.05,0.55-0.15,0.6-0.43C-407.47-789.49-407.67-789.76-407.95-789.8z" fill="#35221b" fill-rule="evenodd" transform="translate(440.54 594.825) scale(.63437)"/></g><g id="change3_2"><path clip-rule="evenodd" d="M-399.92-783.76c0.01,0.04,0.02,0.06,0.04,0.05l-0.01-0.02l-0.01-0.02L-399.92-783.76 c-0.01-0.04-0.02-0.09-0.02-0.12c0.01,0.04,0.02,0.09,0.04,0.13c0.03,0.01,0.05,0.02,0.03,0.04c0,0-0.01,0.01-0.01,0.01 c0.11,0.18,0.32,0.29,0.54,0.25c0.28-0.05,0.47-0.32,0.42-0.61c-0.04-0.26-0.46-0.66-1.2-0.91c-1.31-0.44-3.69-0.82-3.98-0.88 c-2.56-0.56-5.14-1.04-7.73-1.43c-2.6-0.39-5.21-0.7-7.82-0.92c-9.35-0.8-18.79-1.13-27.78,0.65c-6.14,1.22-12.04,3.45-17.57,7.11 c-2.45,1.64-4.89,3.79-6.83,6.22c-2.16,2.72-3.66,5.8-4.05,8.84c-0.54,4.2,0.9,8.44,5.89,11.88c0.91,0.62,1.89,1.1,2.91,1.48 c1.33,0.5,2.73,0.84,4.09,1.22c1.22,0.34,2.49-0.37,2.83-1.59c0.34-1.22-0.37-2.49-1.59-2.83c-1.23-0.35-2.5-0.66-3.7-1.12 c-0.67-0.26-1.31-0.57-1.91-0.98c-3.15-2.19-4.23-4.8-3.88-7.47c0.29-2.27,1.5-4.52,3.08-6.58c1.61-2.11,3.6-4.04,5.64-5.51 c4.92-3.59,10.27-5.85,15.85-7.24c8.62-2.15,17.79-2.28,26.88-1.97c2.58,0.09,5.16,0.25,7.74,0.51c2.58,0.25,5.15,0.59,7.7,1.01 c0.33,0.05,3.26,0.34,4.32,0.78C-400-783.78-399.96-783.77-399.92-783.76z" fill="#35221b" fill-rule="evenodd" transform="translate(440.54 594.825) scale(.63437)"/></g><g id="change3_14"><path clip-rule="evenodd" d="M-388.22-781.81c-3.51-1.63-7.2-2.82-10.98-3.74c-5.63-1.37-11.45-2.1-17.15-2.65 c-8.72-0.84-18.11-1.42-27.26-0.69c-6.25,0.5-12.38,1.63-18.12,3.65c-2.91,1.04-6.55,3.39-9.73,6.48 c-2.87,2.79-5.35,6.18-6.71,9.59c-2.25,5.64-1.64,11.38,4.55,15.43c1.05,0.68,2.15,1.25,3.29,1.72c1.1,0.46,2.23,0.83,3.38,1.15 c1.22,0.35,2.49-0.36,2.83-1.58c0.35-1.22-0.36-2.49-1.58-2.83c-0.97-0.28-1.93-0.6-2.85-0.99c-0.88-0.37-1.73-0.81-2.53-1.34 c-3.91-2.58-4.16-6.24-2.74-9.82c1.37-3.44,4.14-6.8,7.08-9.44c2.22-1.99,4.53-3.59,6.5-4.37c5.34-2.12,11.09-3.39,16.98-4.11 c8.93-1.09,18.15-0.94,26.73-0.5c5.63,0.29,11.39,0.74,16.99,1.83c3.74,0.73,7.4,1.73,10.9,3.16c0.26,0.11,0.57-0.01,0.68-0.27 C-387.84-781.39-387.96-781.69-388.22-781.81z" fill="#35221b" fill-rule="evenodd" transform="translate(440.54 594.825) scale(.63437)"/></g><g id="change3_12"><path clip-rule="evenodd" d="M-407.73-779.49c-11.92-4.9-23.62-8.81-35.68-10.12c-8.13-0.88-16.4-0.57-25.02,1.37 c-7.13,1.64-12.47,6.28-14.93,12.15c-2.42,5.79-2.03,12.78,2.06,19.27c0.91,1.43,1.97,2.51,3.14,3.43c1.51,1.2,3.2,2.1,4.86,3.34 c1.01,0.76,2.45,0.56,3.22-0.45c0.76-1.01,0.56-2.45-0.45-3.21c-1.61-1.23-3.27-2.12-4.74-3.3c-0.77-0.62-1.48-1.34-2.08-2.29 c-3.19-5.07-3.5-10.48-1.69-15.02c1.87-4.7,5.96-8.51,11.58-10.01c10.24-2.8,20.08-3.09,29.83-1.82 c9.85,1.28,19.59,4.13,29.52,7.65c0.27,0.1,0.57-0.03,0.67-0.3C-407.33-779.08-407.46-779.39-407.73-779.49z" fill="#35221b" fill-rule="evenodd" transform="translate(440.54 594.825) scale(.63437)"/></g><g id="change3_3"><path clip-rule="evenodd" d="M-485.26-706.21c-0.15-5.2-2.89-11.52-4.88-17.77c-1.25-3.92-2.18-7.79-1.83-11.31 c0.34-3.41,2.07-6.38,6.17-8.64c1.04-0.6,2.13-1.11,3.25-1.57c1.15-0.47,2.32-0.89,3.5-1.24c1.41-0.44,3.05-0.78,4.7-0.95 c1.57-0.16,3.15-0.15,4.55,0.14c1.24,0.26,2.46-0.52,2.72-1.76c0.27-1.24-0.52-2.46-1.76-2.72c-1.82-0.4-3.9-0.46-5.95-0.28 c-1.98,0.18-3.94,0.59-5.63,1.1c-1.32,0.41-2.65,0.86-3.93,1.41c-1.31,0.56-2.59,1.22-3.8,1.97c-5.32,3.47-7.33,7.7-7.43,12.34 c-0.08,3.94,1.23,8.19,2.99,12.43c2.46,5.94,5.71,11.87,6.3,16.94c0.02,0.29,0.27,0.5,0.56,0.48 C-485.45-705.68-485.24-705.93-485.26-706.21z" fill="#35221b" fill-rule="evenodd" transform="translate(440.54 594.825) scale(.63437)"/></g><g id="change3_9"><path clip-rule="evenodd" d="M-481.93-712.15c-0.54-0.23-1.02-1.29-1.56-2.58c-1.14-2.74-2.14-6.58-2.52-7.66 c-0.67-1.91-1.41-3.91-1.77-5.95c-0.21-1.23-0.25-2.47-0.01-3.7c0.84-4.37,4.23-8.25,8.31-11.15c4-2.84,8.77-4.73,13.08-4.36 c1.26,0.11,2.38-0.83,2.49-2.09s-0.83-2.38-2.09-2.49c-5.32-0.46-11.42,1.53-16.21,5.25c-4.78,3.71-8.23,9-8.78,14.36 c-0.16,1.63,0.02,3.23,0.45,4.79c0.59,2.13,1.59,4.19,2.5,6.15c0.49,1.05,1.88,4.8,3.3,7.44c0.84,1.56,1.73,2.73,2.44,2.95 c0.27,0.1,0.57-0.04,0.67-0.31C-481.52-711.75-481.66-712.05-481.93-712.15z" fill="#35221b" fill-rule="evenodd" transform="translate(440.54 594.825) scale(.63437)"/></g></g></svg>