<?xml version="1.0" encoding="UTF-8" standalone="no"?><svg xmlns="http://www.w3.org/2000/svg" xmlns:xlink="http://www.w3.org/1999/xlink" clip-rule="evenodd" fill="#e2bc69" fill-rule="evenodd" height="213.3" image-rendering="optimizeQuality" preserveAspectRatio="xMidYMid meet" shape-rendering="geometricPrecision" text-rendering="geometricPrecision" version="1" viewBox="2.0 0.0 209.3 213.3" width="209.3" zoomAndPan="magnify"><g id="change1_1"><path d="M109.72 173.09l-101.46 0c-3.45,0 -6.25,-2.8 -6.25,-6.25l0 -4.46c0,-22.57 9.23,-43.09 24.1,-57.97 8.82,-8.82 19.64,-15.66 31.69,-19.76 -2.34,-1.61 -4.52,-3.43 -6.52,-5.43 -8.39,-8.4 -13.59,-20 -13.59,-32.8 0,-12.81 5.19,-24.41 13.59,-32.8 8.39,-8.39 19.99,-13.59 32.8,-13.59 12.81,0 24.41,5.19 32.8,13.59 8.39,8.39 13.59,19.99 13.59,32.8 0,12.81 -5.19,24.41 -13.59,32.8 -2,2 -4.19,3.82 -6.52,5.43 3.95,1.35 7.77,2.99 11.43,4.9 0.17,0.08 0.33,0.18 0.48,0.28 10.22,5.42 19.18,12.92 26.28,21.93 3.65,-0.82 7.45,-1.26 11.35,-1.26 14.19,0 27.05,5.76 36.35,15.06 9.3,9.3 15.06,22.15 15.06,36.35 0,14.19 -5.75,27.05 -15.06,36.35 -9.3,9.3 -22.16,15.06 -36.35,15.06 -14.2,0 -27.05,-5.76 -36.35,-15.06 -6.79,-6.78 -11.68,-15.46 -13.84,-25.16zm20.97 -8.98c-2.44,-2.44 -2.44,-6.4 0,-8.84 2.44,-2.44 6.4,-2.44 8.83,0l16.09 16.09 23.98 -23.98c2.44,-2.44 6.39,-2.44 8.83,0 2.44,2.44 2.44,6.39 0,8.83l-28.4 28.4c-2.44,2.44 -6.4,2.44 -8.83,0l-20.5 -20.5zm5.43 -47.79c-5.56,-6.27 -12.21,-11.54 -19.64,-15.48 -0.15,-0.06 -0.3,-0.13 -0.45,-0.21 -9.57,-4.99 -20.44,-7.82 -31.95,-7.82 -19.13,0 -36.52,7.83 -49.13,20.44 -12.22,12.22 -19.95,28.93 -20.42,47.35l93.98 0c0.34,-13.68 6.03,-26.03 15.04,-35.04 3.68,-3.68 7.91,-6.8 12.57,-9.23zm51.3 18.07c-7.04,-7.04 -16.77,-11.4 -27.52,-11.4 -10.75,0 -20.48,4.35 -27.52,11.4 -7.04,7.04 -11.4,16.77 -11.4,27.52 0,10.74 4.36,20.47 11.4,27.51 7.04,7.04 16.77,11.4 27.52,11.4 10.74,0 20.47,-4.35 27.52,-11.4 7.04,-7.04 11.39,-16.77 11.39,-27.51 0,-10.75 -4.35,-20.48 -11.39,-27.52zm-103.34 -54.08c9.36,0 17.83,-3.8 23.96,-9.93 6.13,-6.13 9.93,-14.61 9.93,-23.96 0,-9.36 -3.79,-17.83 -9.93,-23.97 -6.13,-6.13 -14.61,-9.93 -23.96,-9.93 -9.36,0 -17.83,3.8 -23.97,9.93 -6.13,6.13 -9.93,14.61 -9.93,23.97 0,9.36 3.8,17.83 9.93,23.96 6.13,6.13 14.61,9.93 23.97,9.93z" fill-rule="nonzero"/></g></svg>