<?xml version="1.0" encoding="UTF-8" standalone="no"?><svg xmlns="http://www.w3.org/2000/svg" xmlns:xlink="http://www.w3.org/1999/xlink" fill="#000000" height="493.4" preserveAspectRatio="xMidYMid meet" version="1" viewBox="-0.0 -0.0 514.8 493.4" width="514.8" zoomAndPan="magnify"><g data-name="Layer 2"><g data-name="Layer 2" fill="#e2bc69" id="change1_1"><path d="M513.1,321.25c-5,.74-9.76,2.48-14.55,4-2.28.72-4.59,1.29-6.81,2.19a41.24,41.24,0,0,0-6.18,3.14A53.11,53.11,0,0,0,475,339a108.64,108.64,0,0,0-7.8,9.71,44.79,44.79,0,0,1-8.16,8.67.82.82,0,0,0-.17-.2c1.26-2.57,2.86-5,4.25-7.49,1.15-2,2.22-4.16,3.33-6.23a31.47,31.47,0,0,0,3-6.72,1.06,1.06,0,0,0,0-.43c4.1-9.83,8.65-20,9.41-30.79A36.62,36.62,0,0,0,476.53,290a52.94,52.94,0,0,0-7.63-13.11c-2.18-2.89-4.19-6.82-7.4-8.82l-.14-.22a.59.59,0,0,0-.73-.25c-.23-.11-.46-.21-.7-.3a1,1,0,0,0-1.2.91c-.09,2,.85,3.67,1.41,5.5a24.91,24.91,0,0,1,.92,6.71,113.21,113.21,0,0,0,1.24,14c.71,4.65,1.67,9.22,2.64,13.81s1.51,9.43,2.09,14.18q.44,3.6.84,7.2a14.68,14.68,0,0,1-.56,7.21.71.71,0,0,0,0,.47,113.51,113.51,0,0,1-6.22,12.37c-1.89,3.28-4.06,6.57-5,10.25-1.55,2.67-3.18,5.28-4.73,7.95-2,3.52-4,7.06-6.26,10.45-.52.78-1.07,1.55-1.61,2.33.95-2.67,1.65-5.47,2.44-8.14,1.57-5.29,3.67-10.55,4.22-16.08A27.5,27.5,0,0,0,447,341a51,51,0,0,0-9.71-12.36,77.2,77.2,0,0,0-14.38-10.85c-1.14-.69-2.52,1-1.46,1.9,3.06,2.61,3.49,6.62,4,10.37.7,4.88.88,9.93,2.17,14.71a123.17,123.17,0,0,0,5.06,13.88c1.91,4.69,4,9.31,6,13.95a17.49,17.49,0,0,1,.88,11.37,1.39,1.39,0,0,0,.09,1.06c-1.77,3-4.66,5.55-6.83,8.05-2.59,3-4.86,6.28-7.3,9.42a.81.81,0,0,0-.49.27c-3,3.46-5.93,7-9.1,10.29-3.59,3.75-7.42,7.26-11.22,10.8a98,98,0,0,1-11.28,9.35c-3.95,2.71-8,5.21-12.09,7.77l-.28.19c.47-.69.93-1.39,1.37-2.1,1.26-2.06,2.38-4.2,3.59-6.28a31.51,31.51,0,0,1,4.94-6.16c3.73-3.73,7.56-7.18,10-11.94a50,50,0,0,0,5-16.51c.39-3,.38-6,.95-8.95a16.49,16.49,0,0,1,3.58-7.28,1.06,1.06,0,0,0-1.5-1.49c-4.78,3.86-10.92,5.58-15.85,9.19a26.89,26.89,0,0,0-9,12.29c-2,5.12-2.35,10.49-2.86,15.9-.56,6-1.23,12.16-3.41,17.86a45.65,45.65,0,0,1-3.27,6.75,21.19,21.19,0,0,1-3,4.26c-2.74,1.29-5.34,3-8,4.51-3.43,1.93-6.87,3.83-10.36,5.66s-6.76,3.46-10.15,5.17c-1.64.83-3.27,1.65-4.92,2.44a31.83,31.83,0,0,0-4.84,2.54.76.76,0,0,0,.58,1.39,24.54,24.54,0,0,0,5.18-1.76q2.49-1,4.95-2.09c3.55-1.55,7-3.29,10.46-5.08s6.82-3.61,10.18-5.52l1.37-.78.11,0c2.21.32,4.42.54,6.64.71l.62.2c2.42.73,5,.87,7.34,1.66a50.3,50.3,0,0,1,7.72,3.81,43.13,43.13,0,0,0,8.87,3.58c12.18,3.36,24.56.64,36.92.78a16.46,16.46,0,0,1,9.07,2.76c2.12,1.43,4.18,3.61,6.8,4.05a1.37,1.37,0,0,0,1.71-1.31c-.29-4.53-4.88-8.17-8.2-10.71a46.78,46.78,0,0,0-14.68-7.4,62,62,0,0,0-18.71-2.61,69.59,69.59,0,0,0-9.56.75c-3.56.54-7.08,1.37-10.66,1.81a73.21,73.21,0,0,1-11.66.11c-2.07-.08-4.13-.15-6.19-.26-.52-.14-1.06-.27-1.59-.37,7.39-5.35,15.5-9.58,23.08-14.64a88.9,88.9,0,0,0,11.3-9c4-3.75,8.1-7.43,11.92-11.38,2.21-2.29,4.45-4.71,6.48-7.26l.22-.08a14,14,0,0,1,5-1.29c3.65.62,7.14,2.5,10.31,4.29,4.21,2.36,8.27,5.06,12.59,7.23A31,31,0,0,0,466.3,422a75.39,75.39,0,0,0,16.76-2.46c6.37-1.57,12.65-3.52,19.06-4.92a1.23,1.23,0,0,0,.29-2.22c-3.78-2.32-8.48-2.57-12.78-3-5.56-.6-11.05-1.78-16.54-2.88a171.15,171.15,0,0,0-18.14-3,56,56,0,0,0-9.25-.15c-3,.22-5.93.77-8.92.86-3.24.1-6.84-.17-10.15.45.88-1,1.74-1.95,2.58-3s1.52-1.92,2.28-2.89c2.81-3,5.56-6,8.15-9.2a139.47,139.47,0,0,0,12.69-18.89c1.81-3.18,3.71-6.31,5.42-9.54a.75.75,0,0,0,.62-.13,39.55,39.55,0,0,1,11.5-5.72c4.19-1.32,8.39-2.24,12.42-4.05a50.12,50.12,0,0,0,11-6.72,80.87,80.87,0,0,0,10-10.14c1.74-2,3.45-4,5.37-5.85a72.38,72.38,0,0,0,5.55-5.39A1.12,1.12,0,0,0,513.1,321.25Zm-46-43.64c1.31,1.8,2.72,3.51,3.89,5.42a42.45,42.45,0,0,1,3.54,7.07,36.09,36.09,0,0,1,2.52,14.78A57.41,57.41,0,0,1,474,319.82c-.71,2.18-1.5,4.32-2.3,6.46a68.75,68.75,0,0,0,1.25-7,36.59,36.59,0,0,0-.19-12.44c-.84-4.2-2.3-8.24-3.33-12.4-1.07-4.33-1-8.86-2-13.2a40.29,40.29,0,0,0-2.62-6.85l-.15-.34C465.45,275.24,466.25,276.45,467.1,277.61Zm.71,33.57c-.71-4.78-2.15-9.42-3-14.17a102.67,102.67,0,0,1-1.64-14.42,48,48,0,0,0-.65-7.48c-.36-1.74-1.31-3.48-1.7-5.25a6.54,6.54,0,0,1,.52.4c.69,1.24,1.31,2.51,1.9,3.8a52,52,0,0,1,2.57,6.23c1.28,4.2,1.2,8.66,2.06,12.95.82,4.11,2.34,8.05,3.34,12.11a38.22,38.22,0,0,1,.84,12.88,64.89,64.89,0,0,1-1.17,7.85c-.32,1.47-.79,2.92-1.11,4.4-.16-1.83-.46-3.67-.62-5.43C468.69,320.42,468.49,315.78,467.81,311.18ZM377.62,443c-.24.28-.47.55-.72.81.21-.31.42-.62.62-.94A.64.64,0,0,0,377.62,443Zm22.78-32.5a31.65,31.65,0,0,1-4,7.34,66.87,66.87,0,0,1-5.12,5.66,58,58,0,0,0-5,5.76,30.84,30.84,0,0,0-1.89,3,82.5,82.5,0,0,1,4.78-10.06,113.9,113.9,0,0,0,6.16-11.54c1.76-4.13,3.07-8.43,5-12.52,1.45-3.11,3-6.17,4.76-9.14a31.35,31.35,0,0,0-.77,4.52A61.76,61.76,0,0,1,400.4,410.52Zm-16.68,12.92c.74-5.74.76-11.64,2.33-17.25a26.4,26.4,0,0,1,7.73-12.93c2.43-2.15,5.43-3.58,8.21-5.2.88-.51,1.73-1,2.57-1.59a70.44,70.44,0,0,0-5,9.24c-1.71,3.87-3.12,7.86-4.66,11.81-3.09,7.89-8.44,14.63-11.55,22.5-1,2.61-1.93,5.33-3.16,7.87A53.17,53.17,0,0,0,383.72,423.44Zm44,38.11c-3.2.18-6.4.42-9.6.58-6.17.31-12.41.31-18.44-1.12a40.6,40.6,0,0,1-9.19-3.4c-1.35-.7-2.67-1.44-4-2.14,3.31.62,6.56,1.6,9.89,2.18a82.18,82.18,0,0,0,13.2,1.07c4.54,0,9.09-.18,13.63-.25a49.07,49.07,0,0,1,6.53.15,29.4,29.4,0,0,1,6.52,1.64,22.38,22.38,0,0,1,4.19,2.07,19.75,19.75,0,0,0-3.34-.79A48.3,48.3,0,0,0,427.68,461.55Zm20.23,5.19h.22a3.9,3.9,0,0,1,.25.36l-.61-.4Zm-42.25-15c11.74-.89,24.16,1.1,34.17,7.61a38.25,38.25,0,0,1,5.05,3.91,38,38,0,0,0-6.41-3.6A33.81,33.81,0,0,0,425.81,457c-9.28-.07-18.64.75-27.86-.69-3.23-.5-6.38-1.39-9.57-2.09C394.18,453.78,399.84,452.18,405.66,451.74Zm38.56-111.59a25.48,25.48,0,0,1,4.1,14.81c-.22,5.6-2.37,11-4,16.28q-.69,2.36-1.36,4.73-.06-.44-.15-.87a.3.3,0,0,0,.4-.24c1.15-7.86,2.68-16,1.77-24a28.87,28.87,0,0,0-3.48-11.05,68.18,68.18,0,0,0-7.25-9.59c-1.25-1.51-2.42-3.07-3.64-4.59q1.78,1.41,3.47,2.94A59.28,59.28,0,0,1,444.22,340.15Zm-4.3,27.34c-1.1-2.49-2.2-5-3.25-7.5-2-4.76-4-9.62-5.55-14.55s-1.75-10.32-2.83-15.46a48.2,48.2,0,0,0-1.77-7.25,74.86,74.86,0,0,1,5.47,6.52c2.52,3.18,5.32,6.15,7.55,9.54,4.49,6.85,5,14.87,4.34,22.82-.35,4.16-1,8.29-1.26,12.45a.83.83,0,0,0,0-.15A44.31,44.31,0,0,0,439.92,367.49Zm27.76,52.06a30.13,30.13,0,0,1-14.83-3c-4.41-2.15-8.58-4.78-12.9-7.1-1.36-.73-2.81-1.49-4.32-2.17a7,7,0,0,1,1.12.08c2.28.33,4.49.94,6.77,1.27,4.94.71,10,1.22,14.81,2.41,4.52,1.12,8.84,3,13.48,3.64s9.11.18,13.63.19c2,0,4.19.09,6.32-.12C483.85,417,475.94,419.22,467.68,419.55Zm29.64-6.46.39.08-.94.24c.16-.08.33-.14.49-.24A.24.24,0,0,0,497.32,413.09ZM453,406.18c11.58.76,22.76,4.36,34.25,5.76,2.37.29,4.76.39,7.13.69.72.09,1.46.19,2.2.32-3.32,1.13-7,.93-10.47.86-4.4-.1-8.88.23-13.26-.21-4.6-.46-8.91-2.31-13.34-3.5a118.18,118.18,0,0,0-14.25-2.45c-1.74-.24-3.46-.57-5.18-.9,1.4-.15,2.8-.32,4.2-.46A52.89,52.89,0,0,1,453,406.18Zm22-63.35a53.83,53.83,0,0,1,9.94-8.57,47.09,47.09,0,0,1,12.57-5.81c3.55-1.09,7-2.45,10.57-3.57a28.06,28.06,0,0,0-6.86,3.43c-3.06,2.33-5.62,5.25-8.74,7.51s-6.77,4.33-10.18,6.44a78.3,78.3,0,0,0-9.13,6.55,50.71,50.71,0,0,1-7.72,5.85l-1.15.51C468.08,351.3,471.32,346.81,475,342.83Zm27.9-11.14a98.41,98.41,0,0,1-9.7,10.3A46.25,46.25,0,0,1,482,349.11c-4.05,1.86-8.3,2.76-12.54,4.05-.51.15-1,.32-1.51.5a38.31,38.31,0,0,0,3.52-2.51,103.26,103.26,0,0,1,9.48-7c3.46-2.19,7.05-4.18,10.49-6.42a82.85,82.85,0,0,0,8.78-7.21,19.55,19.55,0,0,1,5.91-3.74c.65-.25,1.34-.47,2-.71l-.58.53A69.72,69.72,0,0,0,502.87,331.69Z" fill="inherit"/><path d="M417.12,432.36a3.35,3.35,0,1,0,3.79,2.82A3.35,3.35,0,0,0,417.12,432.36Z" fill="inherit"/><path d="M421.21,383.29a3.35,3.35,0,1,0-3.79-2.82A3.34,3.34,0,0,0,421.21,383.29Z" fill="inherit"/><path d="M469.63,383a3.35,3.35,0,1,0,3.79,2.83A3.36,3.36,0,0,0,469.63,383Z" fill="inherit"/><path d="M457.11,320.56a3.34,3.34,0,1,0-3.79-2.83A3.35,3.35,0,0,0,457.11,320.56Z" fill="inherit"/><path d="M496,301.34a3.34,3.34,0,1,0-3.79-2.82A3.34,3.34,0,0,0,496,301.34Z" fill="inherit"/><path d="M249.77,484.61A235.7,235.7,0,0,1,14.08,248.91a238.31,238.31,0,0,1,3.45-40.43,1.5,1.5,0,0,1,3,.51,234.45,234.45,0,0,0-3.41,39.92A232.87,232.87,0,0,0,324.57,469.33a1.5,1.5,0,1,1,1,2.84A235.42,235.42,0,0,1,249.77,484.61Z" fill="inherit"/><path d="M483.78,259.92h-.06a1.51,1.51,0,0,1-1.44-1.56c.12-3.13.19-6.31.19-9.45A232.7,232.7,0,0,0,249.77,16.22a233.61,233.61,0,0,0-62.21,8.4,1.49,1.49,0,0,1-1.84-1,1.51,1.51,0,0,1,1-1.85A235.78,235.78,0,0,1,485.47,248.91c0,3.18-.07,6.4-.19,9.57A1.51,1.51,0,0,1,483.78,259.92Z" fill="inherit"/><path d="M200,46a6.16,6.16,0,0,0-.33-.55.5.5,0,0,0-.29-.66l-.29-.13c-2.17-2.59-5.87-4-8.73-5.49-2.09-1.07-4.08-2.31-6.24-3.27a45,45,0,0,0-7.73-2.67,37.51,37.51,0,0,0-15.85-.58,57.34,57.34,0,0,0-14.73,5.27c-5.29,2.61-10.35,5.66-15.41,8.69a.83.83,0,0,0-.33.06,30.63,30.63,0,0,0-6.16,3.83c-1.92,1.42-3.88,2.8-5.77,4.26-2.27,1.74-4.47,3.71-6.85,5.35a.92.92,0,0,0-.22-.18c3.77-6.63,10-11.3,14.81-17.15A53.29,53.29,0,0,0,133,31.46a42.82,42.82,0,0,0,2.54-6.62,55.83,55.83,0,0,0,1.33-7c.83-5.55,2.11-11.06,2.11-16.7a1.11,1.11,0,0,0-1.88-.78,47.89,47.89,0,0,0-3.84,5.24,62.59,62.59,0,0,1-4.37,5.62A126.11,126.11,0,0,0,120.21,22a49.62,49.62,0,0,0-5.82,12,65.58,65.58,0,0,0-2.53,12.87A40.92,40.92,0,0,1,107.62,61a1,1,0,0,0-.07.73c-2.43,1.77-4.77,3.66-7.12,5.54-3.29,2.65-6.63,5.18-9.75,8A149.73,149.73,0,0,0,76.22,90.57c-.66.81-1.31,1.64-2,2.46-.87.91-1.75,1.82-2.6,2.74s-1.82,2-2.68,3.1a54.45,54.45,0,0,0-.92-9.21c-.39-2.89-.33-5.8-.48-8.7a55,55,0,0,0-1.23-8.84c-2.5-11.57-7.86-22.26-10.86-33.68-1.22-4.63-2.12-9.75-5.27-13.53-.74-.87-2-.09-2.08.86-.83,11.86-3.6,23.71-2.19,35.64a31.29,31.29,0,0,0,4.81,13.71c2.56,3.92,5.77,7.42,8.64,11.1,2.54,3.23,5.49,6.85,6.8,10.89a14.93,14.93,0,0,1-.6,5.36.53.53,0,0,0,0,.12c-1.85,2-3.58,4.1-5.23,6.17-3.18,4-6.08,8.24-9,12.45a106,106,0,0,0-7.79,12.67c-2.13,4.27-3.92,8.71-5.76,13.12-2,4.7-4,9.38-6.39,13.89-.18-.52-.39-1-.61-1.54-.35-1.69-.66-3.38-1-5.07a96.81,96.81,0,0,1-1.66-10.55c-.23-3.62,0-7.24.12-10.85a68.63,68.63,0,0,0-.42-9.93c-1.36-11.63-5.59-23.45-13.78-32A39.14,39.14,0,0,0,8,85.61C6.1,84.31,3.75,83,1.37,83.19A1.37,1.37,0,0,0,.06,84.9c.76,2.35,2.8,4,4.47,5.71a16.68,16.68,0,0,1,4.15,7,48.27,48.27,0,0,1,1.26,9.21c.27,3,.49,6.09.78,9.13a70.29,70.29,0,0,0,3.46,17.54,43.46,43.46,0,0,0,4.08,8.33c1.61,2.53,3.59,4.79,5.26,7.28a19,19,0,0,1,2.37,4.61c.42,1.27.75,2.52,1.29,3.76.26.58.53,1.16.8,1.73.47,2.11,1,4.2,1.61,6.27a1.82,1.82,0,0,0,.11.28l-.54,1.42c-1.45,3.66-2.79,7.37-4.08,11.08s-2.43,7.2-3.44,10.86c-.51,1.83-1,3.68-1.44,5.52a23.81,23.81,0,0,0-.92,5.22.76.76,0,0,0,1.41.39c1.58-3.09,2.3-6.72,3.4-10,1.23-3.66,2.43-7.34,3.71-11s2.62-7.26,4-10.86c.68-1.78,1.36-3.57,2.07-5.34.49-1.23,1-2.44,1.41-3.68a21.26,21.26,0,0,1,3.36-3.29A48.91,48.91,0,0,1,44,152.31c4.94-3.11,10.6-4.77,16.22-6.2,5.32-1.34,10.73-2.34,15.72-4.72a28.05,28.05,0,0,0,11.65-9.81c3.74-5.81,4.44-13.06,8-19,.6-1-.83-2.18-1.66-1.28A16.86,16.86,0,0,1,88,115.66a51.87,51.87,0,0,1-7.17,1.91A52.88,52.88,0,0,0,65,124.09a32.59,32.59,0,0,0-6.3,5,56.24,56.24,0,0,0-4.75,6,45.71,45.71,0,0,1-5.25,6.44c-1.77,1.69-3.81,3.1-5.73,4.61-1.19.93-2.36,1.9-3.46,2.93,1.76-4,3.43-7.93,5.29-11.82a88.63,88.63,0,0,1,7.35-12.61c3-4.32,5.94-8.68,9.11-12.87S67.65,104,71,100.2a1,1,0,0,0,.23-.49l2.18-2.23c2.09-2.15,4.23-4.26,6.17-6.55,1.55-1.81,3-3.72,4.59-5.48A29.28,29.28,0,0,1,86.63,83a1.47,1.47,0,0,0,1.06-.08,15.39,15.39,0,0,1,4.53-1.09,16.64,16.64,0,0,1,5.27,0c4.8,1,9.51,2.66,14.26,3.87s9.35,2.33,14.07,3.12c5,.84,10,.43,15,.36,4.21-.06,9.4-.62,12.81,2.36a1.21,1.21,0,0,0,1.7-1.71c-6.6-8.06-14.66-15.31-24.29-19.55a28.14,28.14,0,0,0-15.68-2.07c-5.74.92-10.95,3.87-16.13,6.34-2.94,1.4-6.08,2.63-9,4.19q4.78-4.41,9.93-8.41c2.93-2.27,5.75-4.69,8.66-7,3.61-1.47,6.62-4.23,9.65-6.61a113.43,113.43,0,0,1,11.26-7.86.86.86,0,0,0,.48-.12c3.49-2,8.07-1.55,12-1.69,4.81-.19,9.64-.31,14.46-.16s9.39.59,14.1.69A109.87,109.87,0,0,0,185.05,47a39.44,39.44,0,0,1,7.68-.38c2.25.19,4.39,1.13,6.68.68A1,1,0,0,0,200,46ZM38.18,153l-.79.7c.21-.27.42-.54.64-.8A.49.49,0,0,0,38.18,153ZM11.94,92.69A46.22,46.22,0,0,1,20.56,106a59.61,59.61,0,0,1,4.55,17.4c.73,6.64-.13,13.23.22,19.87,0,.22,0,.44.05.65-1-2.69-2.21-5.34-3.11-8.08a84.41,84.41,0,0,1-3-13.43c-1.3-8.7-1.32-18-5.64-25.84A30.68,30.68,0,0,0,9.8,91L8.26,89.25A41.26,41.26,0,0,1,11.94,92.69Zm-7.55-6,0,.09-.26-.29.21.11A.28.28,0,0,0,4.39,86.72ZM23,144a46.55,46.55,0,0,1-5-8.2c-5.31-11.46-4.31-24.28-6.22-36.47a19.24,19.24,0,0,0-1.89-5.75,16.31,16.31,0,0,1,1.6,2,30.15,30.15,0,0,1,4.45,12.23c1.29,9,1.84,18.09,4.41,26.83,1.15,3.88,2.9,7.55,4.19,11.38C24,145.3,23.46,144.63,23,144Zm62.79-15.52a25.28,25.28,0,0,1-11,10.17c-5,2.51-10.54,3.45-15.9,4.85s-11,3.16-15.91,6.15c1.8-1.22,3.72-2.27,5.61-3.31a71,71,0,0,0,10-6.79,118.24,118.24,0,0,1,10.7-7.92C73,129.25,77,127.31,80.72,125a72.27,72.27,0,0,0,9.39-6.91c-.32.71-.63,1.42-.93,2.15A74.71,74.71,0,0,1,85.74,128.43Zm-36.4,14.92a41.88,41.88,0,0,0,5.23-5.74c1.6-2,3.13-4.13,4.87-6.05a29.43,29.43,0,0,1,6.36-5.19,57.38,57.38,0,0,1,15.66-6.57c2-.53,4-1,5.94-1.74q-3.33,2.63-6.84,5c-3.66,2.48-7.53,4.5-11.38,6.66a82.17,82.17,0,0,0-10.53,7.46,82.27,82.27,0,0,1-10.38,7.18l-.54.31C48.28,144.24,48.82,143.81,49.34,143.35Zm3.2-105a152.55,152.55,0,0,0,5,15.3c1.95,5.51,4,11,5.45,16.67a56.94,56.94,0,0,1,1.59,8.49c.24,2.33.23,4.68.34,7-.33-.87-.66-1.73-.93-2.61-1.4-4.67-2.63-9.4-4.32-14-1.54-4.16-3.88-8-5.41-12.14s-2-9-2.61-13.47c-.61-4.15-1.81-8.56-1-12.77.13.41.25.81.37,1.21C51.58,34.17,52,36.28,52.54,38.38Zm-2.34-8.6.15.39a.2.2,0,0,0-.08.08c-.07.17-.11.35-.17.52C50.14,30.44,50.17,30.11,50.2,29.78Zm4.48,46.75a30.87,30.87,0,0,1-6-12.67,66.25,66.25,0,0,1-.39-18c.3-3.36.73-6.71,1.16-10.06.09,1.92.43,3.84.69,5.63.68,4.51.92,9.19,2.1,13.61s3.41,8.14,5.19,12.16c2,4.59,3.29,9.51,4.7,14.32.75,2.59,1.79,5.08,2.57,7.66A9.65,9.65,0,0,1,65,90.38c-.54-.85-1.11-1.67-1.66-2.45C60.59,84,57.52,80.37,54.68,76.53ZM144,86.5c-2.47-.12-4.91-.25-7.38-.2a58.78,58.78,0,0,1-8.18-.2,121.85,121.85,0,0,1-15-3.17c-5-1.25-10-2.91-15.05-4.05-.48-.11-1-.19-1.49-.26,7.6-1.6,15-4.39,22.81-4.58a27.73,27.73,0,0,1,12.05,2.34,100.32,100.32,0,0,1,10,5.74,92.12,92.12,0,0,1,8.22,5A34.45,34.45,0,0,0,144,86.5ZM112.88,70.7a25.36,25.36,0,0,1,15.55.69,51.38,51.38,0,0,1,13.22,7.88c1.7,1.32,3.35,2.72,4.93,4.21-.87-.51-1.76-1-2.65-1.51-3.54-2-6.88-4.35-10.53-6.14-7.51-3.67-15.55-3.38-23.53-1.56-4.66,1.07-9.24,2.46-13.82,3.83a.33.33,0,0,0-.23.43q-.42,0-.84,0c1.09-.49,2.17-1,3.25-1.47C103.05,74.84,107.76,72.13,112.88,70.7Zm21.54-55c-.4,2.31-.64,4.63-1.21,6.9A44.59,44.59,0,0,1,131,29.25a51.58,51.58,0,0,1-6.78,11.53c-2.56,3.22-5.41,6.19-8.11,9.3-1.23,1.43-2.46,2.88-3.61,4.39.14-.45.27-.9.38-1.35A45.08,45.08,0,0,1,116.72,46a83.17,83.17,0,0,0,5.41-10.06c1.59-3.61,3-7.29,4.75-10.84s4.05-6.44,6-9.69A19.7,19.7,0,0,0,135.37,10c.23-.92.43-1.83.63-2.75C135.52,10.07,134.91,12.87,134.42,15.69ZM115.53,37.25A46.77,46.77,0,0,1,120.65,25a80.68,80.68,0,0,1,8.59-11.17c1.64-1.89,3.32-3.77,4.8-5.8l.88-1.26c-.12.56-.22,1.12-.33,1.67a18.25,18.25,0,0,1-2.19,5.6c-1.88,3.21-4.25,6.12-5.9,9.46-1.79,3.61-3.2,7.39-4.78,11.08a83.54,83.54,0,0,1-5.22,10.24,50.47,50.47,0,0,0-3.11,5.84c0-.14,0-.27.08-.41C114.22,45.92,114.4,41.54,115.53,37.25ZM158.18,35c10.31-2.63,20.62-.22,29.72,4.93,1.36.77,2.79,1.44,4.19,2.15A51.34,51.34,0,0,0,187,41c-4.38-.75-8.79-.07-13.19-.21s-8.8-1.14-13.21-1.53a35.89,35.89,0,0,0-12.92,1.22,73.26,73.26,0,0,0-7.22,2.35c-.15,0-.3.12-.45.18C145.82,39.78,151.69,36.69,158.18,35Zm27.59,9.89a108.11,108.11,0,0,1-14.28.65c-4.88-.08-9.71-.79-14.58-1s-9.64.34-14.46.64c-2,.13-4.24.07-6.39.21,1.1-.42,2.17-.93,3.28-1.36A63.42,63.42,0,0,1,145.63,42a41,41,0,0,1,13-1.78c4.23.22,8.4,1.07,12.6,1.54,4.35.49,8.69-.14,13,.12a36,36,0,0,1,7.34,1.51c1.78.49,3.56,1,5.29,1.66.18.16.35.32.51.49-1.55-.13-3.14-.73-4.64-.87A33.05,33.05,0,0,0,185.77,44.93Z" fill="inherit"/><path d="M39.55,115.64a3.35,3.35,0,1,0-3.34-3.34A3.34,3.34,0,0,0,39.55,115.64Z" fill="inherit"/><path d="M94.2,97.8a3.35,3.35,0,1,0,3.34,3.35A3.35,3.35,0,0,0,94.2,97.8Z" fill="inherit"/><path d="M80.82,56.54a3.35,3.35,0,1,0-3.35-3.35A3.35,3.35,0,0,0,80.82,56.54Z" fill="inherit"/><circle cx="151.07" cy="56.54" fill="inherit" r="3.35"/><path d="M164.46,18.62a3.35,3.35,0,1,0-3.35-3.35A3.34,3.34,0,0,0,164.46,18.62Z" fill="inherit"/></g></g></svg>