<?xml version="1.0" encoding="UTF-8" standalone="no"?><svg xmlns="http://www.w3.org/2000/svg" xmlns:xlink="http://www.w3.org/1999/xlink" fill="#e2bc69" height="301.8" preserveAspectRatio="xMidYMid meet" version="1" viewBox="0.0 -0.8 400.8 301.8" width="400.8" zoomAndPan="magnify"><g id="change1_1"><path d="M308,188.17v0.02c0.92,0.92,2.22,1.5,3.65,1.5h6.26c1.42,0,2.71-0.59,3.65-1.52s1.52-2.23,1.52-3.65 c0-1.33-0.49-2.53-1.3-3.44l-0.22-0.21c-0.94-0.94-2.23-1.52-3.65-1.52l0,0h-6.26c-4.54,0-8.68-1.87-11.68-4.87 c-3.01-2.98-4.87-7.13-4.87-11.68c0-4.54,1.87-8.68,4.87-11.68c2.42-2.44,5.6-4.1,9.15-4.66l0-3.63c0-3.13,2.54-5.67,5.67-5.67 s5.67,2.54,5.67,5.67l0,3.63c3.54,0.55,6.73,2.21,9.16,4.64l0.37,0.4c2.78,2.97,4.49,6.95,4.49,11.29c0,3.14-2.55,5.69-5.69,5.69 c-3.14,0-5.69-2.55-5.69-5.69c0-1.32-0.49-2.53-1.3-3.44l-0.22-0.21c-0.94-0.94-2.23-1.52-3.65-1.52h-6.26 c-1.42,0-2.71,0.59-3.65,1.52h-0.02c-0.92,0.92-1.5,2.22-1.5,3.65c0,1.42,0.59,2.71,1.52,3.65v0.02c0.92,0.92,2.22,1.5,3.65,1.5 h6.26c4.56,0,8.7,1.86,11.7,4.86l0.37,0.4c2.78,2.97,4.49,6.95,4.49,11.3c0,4.56-1.86,8.7-4.86,11.7c-2.43,2.43-5.62,4.09-9.16,4.64 l0,3.63c0,3.13-2.54,5.67-5.67,5.67s-5.67-2.54-5.67-5.67l0-3.63c-3.53-0.55-6.71-2.22-9.15-4.65c-3.01-2.98-4.87-7.13-4.87-11.68 c0-3.14,2.55-5.69,5.69-5.69s5.69,2.55,5.69,5.69C306.48,185.93,307.06,187.23,308,188.17z M232.76,100.32h96.02 c3.56,0,6.45-2.89,6.45-6.45c0-3.56-2.89-6.45-6.45-6.45h-96.02c-3.56,0-6.45,2.89-6.45,6.45 C226.31,97.44,229.19,100.32,232.76,100.32z M232.76,77.21h96.02c3.56,0,6.45-2.89,6.45-6.45c0-3.56-2.89-6.45-6.45-6.45h-96.02 c-3.56,0-6.45,2.89-6.45,6.45C226.31,74.32,229.19,77.21,232.76,77.21z M398.55,140.61l-51.59,143.34 c-2.3,6.39-6.99,11.25-12.68,13.93l-0.41,0.18c-5.61,2.52-12.17,2.97-18.4,0.73l-179.05-64.45H24.64c-6.78,0-12.95-2.77-17.41-7.24 C2.77,222.64,0,216.48,0,209.7V57.36c0-6.78,2.77-12.94,7.23-17.41c4.46-4.46,10.63-7.23,17.41-7.23h22.51l5.92-16.44 c2.3-6.39,6.99-11.25,12.68-13.93l0.41-0.17c5.61-2.53,12.18-2.97,18.4-0.73l0,0l86.89,31.27h171.15c6.78,0,12.94,2.77,17.41,7.23 c4.46,4.46,7.23,10.63,7.23,17.41v45.83l16.49,5.94c6.39,2.3,11.25,6.99,13.93,12.67l0.17,0.41 C400.35,127.82,400.79,134.38,398.55,140.61z M161.05,158.71c-0.71,3.48-4.1,5.72-7.58,5.01c-12.1-2.47-23.24-6.99-33.42-13.55 c-6.3-4.06-12.22-8.88-17.76-14.47v85.73h240.31c3.22,0,6.16-1.32,8.29-3.45c2.13-2.13,3.45-5.07,3.45-8.29v-82.62H111.88 c4.76,4.74,9.79,8.84,15.11,12.27c8.87,5.71,18.55,9.64,29.04,11.78C159.51,151.84,161.75,155.23,161.05,158.71z M121.32,110.84 c9.36-3.13,16.58-8.12,21.46-13.56c4.51-5.02,6.9-10.2,6.99-14.34c0.02-0.97-0.09-1.86-0.35-2.63c-0.61-1.83-1.93-3.34-3.7-4.33 c-2.14-1.19-4.95-1.66-8.14-1.16h-0.03c-3.57,0.56-7.58,2.37-11.68,5.76v0c-7.21,5.96-14.35,16.53-19.68,33.34 C111.72,113.44,116.77,112.36,121.32,110.84z M342.59,45.62H102.28v44.51c4.72-8.64,10-15.02,15.38-19.47 c5.96-4.93,12.14-7.62,17.9-8.53c6.16-0.98,11.85,0.08,16.41,2.62c4.58,2.55,8,6.55,9.65,11.48c0.73,2.17,1.06,4.52,1,6.96 c-0.16,7.12-3.68,15.36-10.27,22.7c-2.62,2.91-5.75,5.72-9.36,8.28h211.34V57.36c0-3.22-1.32-6.16-3.45-8.29 C348.75,46.95,345.81,45.62,342.59,45.62z M60.8,32.72h72.71L80.22,13.54c-2.94-1.06-6.05-0.85-8.73,0.32l-0.25,0.13 c-2.74,1.29-4.99,3.61-6.08,6.62L60.8,32.72z M12.9,57.36v56.82h37.54c-3.61-2.56-6.74-5.37-9.36-8.28 c-6.59-7.34-10.11-15.58-10.27-22.7c-0.05-2.45,0.28-4.79,1-6.96c1.65-4.94,5.07-8.94,9.65-11.48c4.56-2.53,10.25-3.59,16.41-2.62 c5.76,0.92,11.94,3.6,17.9,8.54v0c4.71,3.9,9.35,9.28,13.61,16.36V45.62H24.64c-3.22,0-6.16,1.32-8.29,3.45 C14.22,51.2,12.9,54.14,12.9,57.36z M67.56,80.59c-4.1-3.39-8.11-5.2-11.68-5.76l-0.03,0c-3.19-0.5-6.01-0.03-8.14,1.16 c-1.77,0.99-3.09,2.5-3.7,4.33c-0.26,0.77-0.37,1.65-0.35,2.63c0.09,4.14,2.49,9.33,6.99,14.34c4.88,5.43,12.1,10.42,21.46,13.56 c4.55,1.52,9.6,2.6,15.13,3.09v0C81.91,97.12,74.77,86.55,67.56,80.59z M24.64,221.44h64.74v-84.01 c-5.03,4.85-10.35,9.12-15.99,12.75c-10.18,6.56-21.33,11.07-33.42,13.55c-3.48,0.71-6.87-1.54-7.58-5.01 c-0.71-3.48,1.54-6.87,5.01-7.58c10.49-2.14,20.18-6.07,29.04-11.78c5.32-3.43,10.36-7.53,15.11-12.27H12.9v82.62 c0,3.22,1.32,6.16,3.45,8.29C18.48,220.12,21.42,221.44,24.64,221.44z M351.81,232.54c-0.15,0.06-0.31,0.12-0.46,0.17 c-0.15,0.06-0.29,0.11-0.44,0.17c-0.23,0.08-0.47,0.16-0.7,0.24c-0.14,0.05-0.28,0.09-0.42,0.14c-0.24,0.07-0.48,0.14-0.73,0.21 c-0.14,0.04-0.28,0.08-0.43,0.12c-0.25,0.06-0.49,0.12-0.74,0.17c-0.14,0.03-0.29,0.07-0.43,0.1c-0.25,0.05-0.5,0.09-0.75,0.13 c-0.15,0.03-0.3,0.05-0.45,0.08c-0.25,0.04-0.5,0.07-0.75,0.1c-0.15,0.02-0.31,0.04-0.46,0.06c-0.25,0.03-0.5,0.04-0.76,0.06 c-0.16,0.01-0.32,0.03-0.47,0.03c-0.29,0.01-0.58,0.02-0.86,0.02c-0.12,0-0.25,0.01-0.37,0.01H174.35L319.8,286.7 c2.94,1.06,6.05,0.85,8.73-0.32l0.25-0.13c2.74-1.29,4.99-3.61,6.08-6.62v0L351.81,232.54z M386.13,127.55l-0.13-0.25 c-1.29-2.74-3.6-4.99-6.62-6.08l0,0l-12.16-4.38v3.78c0,0,0,0,0,0s0,0,0,0v69.08l19.23-53.43 C387.52,133.34,387.31,130.23,386.13,127.55z"/></g></svg>