<?xml version="1.0" encoding="UTF-8" standalone="no"?><svg xmlns="http://www.w3.org/2000/svg" xmlns:xlink="http://www.w3.org/1999/xlink" fill="#e2bc69" height="562.3" preserveAspectRatio="xMidYMid meet" version="1" viewBox="-14.9 -4.1 554.7 562.3" width="554.7" zoomAndPan="magnify"><g id="change1_1"><path d="M378.53,0.71c29.98-4.77,57.12,15.32,72.24,39.69c26.03-3.34,55.07,4.59,70.91,26.71c18.19,23.93,14.55,60.33-7.07,80.96 c-35.21,32.81-88.4,36.93-133.95,32.1c-27.6-30.76-52.99-68.41-55.68-110.92C322.5,37.22,345.89,4.56,378.53,0.71z" fill="inherit"/><path d="M124.63,197.07c1.11-28.63,33.34-49.99,60.17-39.92c40.91,13.15,81.58,27.06,122.32,40.56 c19.79,5.35,34.86,24.44,34.22,45.16c0.17,76,0.29,152.05-0.06,228.11c0.52,48.42-52.02,87.23-98.23,72.39 c-47.37-11.46-72.22-71.75-46.61-113.24c21.47-40.27,78.09-50.86,114.23-24.09c-0.52-37.48-0.06-75.01-0.23-112.48 c-51.73-17.22-103.46-34.45-155.2-51.73c-0.29,56.91,0.58,113.88-0.41,170.79c-1.63,48.47-55.98,84.49-101.43,67.68 c-45.8-13.44-68.26-72.8-42.65-113.12c21.76-39.63,77.8-49.7,113.65-23.16C124.46,295.01,123.59,246.01,124.63,197.07z" fill="inherit"/><path d="M434.85,295.24c-0.29-16.76,19.03-29.33,34.39-22.81c25.6,8.55,48.07,28.22,58.31,53.42c3.9,13.91-16.41,25.9-25.66,14.08 c-9.66-14.32-20.25-28.05-35.61-36.66c-1.98,36.43,0.58,72.97-1.34,109.4c-2.33,29.04-36.43,48.94-63.02,37.18 c-27.06-9.72-38.41-46.2-21.47-69.42c11.35-17.98,34.39-23.63,54.18-18.68C434.8,339.58,433.98,317.41,434.85,295.24z" fill="inherit"/><path d="M208.99,32.08c-0.16-9.28,10.53-16.23,19.04-12.63c14.17,4.73,26.6,15.62,32.27,29.57c2.16,7.7-9.08,14.33-14.2,7.79 c-5.35-7.92-11.21-15.52-19.71-20.29c-1.1,20.16,0.32,40.39-0.74,60.55c-1.29,16.07-20.16,27.09-34.88,20.58 c-14.98-5.38-21.26-25.57-11.88-38.42c6.28-9.95,19.04-13.08,29.99-10.34C208.95,56.62,208.5,44.35,208.99,32.08z" fill="inherit"/></g></svg>