<?xml version="1.0" encoding="UTF-8" standalone="no"?><svg xmlns="http://www.w3.org/2000/svg" xmlns:xlink="http://www.w3.org/1999/xlink" fill="#000000" height="461.9" preserveAspectRatio="xMidYMid meet" version="1" viewBox="0.0 0.0 335.0 461.9" width="335" zoomAndPan="magnify"><defs><clipPath id="a"><path d="M 0 0 L 335 0 L 335 461.949219 L 0 461.949219 Z M 0 0"/></clipPath></defs><g><g clip-path="url(#a)" id="change1_15"><path d="M 31.703125 452.230469 L 303.296875 452.230469 C 315.4375 452.230469 325.277344 442.386719 325.277344 430.246094 L 325.277344 31.707031 C 325.277344 19.566406 315.4375 9.722656 303.296875 9.722656 L 31.703125 9.722656 C 19.5625 9.722656 9.71875 19.566406 9.71875 31.707031 L 9.71875 430.246094 C 9.71875 442.386719 19.5625 452.230469 31.703125 452.230469 Z M 313.015625 461.949219 L 21.980469 461.949219 C 9.84375 461.949219 0 452.109375 0 439.96875 L 0 21.984375 C 0 9.84375 9.84375 0.00390625 21.980469 0.00390625 L 313.015625 0.00390625 C 325.15625 0.00390625 335 9.84375 335 21.984375 L 335 439.96875 C 335 452.109375 325.15625 461.949219 313.015625 461.949219" fill="#e2bc69"/></g><g id="change1_1"><path d="M 45.636719 181.476562 L 34.535156 167.230469 C 33.46875 165.863281 33.574219 163.921875 34.78125 162.675781 C 36.191406 161.21875 38.152344 159.34375 39.496094 160.859375 L 45.5625 167.710938 C 47.003906 169.335938 49.5625 169.261719 50.902344 167.554688 L 63.097656 152.011719 C 64.027344 150.828125 65.777344 150.722656 66.839844 151.785156 L 70.347656 155.292969 C 71.65625 156.605469 71.710938 158.710938 70.46875 160.085938 L 50.957031 181.671875 C 49.507812 183.273438 46.964844 183.179688 45.636719 181.476562" fill="#e2bc69"/></g><g id="change1_2"><path d="M 45.636719 250.542969 L 34.535156 236.300781 C 33.46875 234.933594 33.574219 232.988281 34.78125 231.742188 C 36.191406 230.289062 38.152344 228.410156 39.496094 229.929688 L 45.5625 236.78125 C 47.003906 238.40625 49.5625 238.328125 50.902344 236.621094 L 61.492188 223.128906 C 63.273438 220.855469 66.640625 220.65625 68.679688 222.695312 L 70.347656 224.363281 C 71.65625 225.671875 71.710938 227.777344 70.46875 229.152344 L 50.957031 250.738281 C 49.507812 252.34375 46.964844 252.25 45.636719 250.542969" fill="#e2bc69"/></g><g id="change1_3"><path d="M 45.636719 326.558594 L 34.535156 312.3125 C 33.46875 310.945312 33.574219 309.003906 34.78125 307.757812 C 36.191406 306.304688 38.152344 304.425781 39.496094 305.941406 L 45.5625 312.796875 C 47.003906 314.421875 49.5625 314.34375 50.902344 312.636719 L 61.492188 299.140625 C 63.273438 296.871094 66.640625 296.667969 68.679688 298.710938 L 70.347656 300.378906 C 71.65625 301.6875 71.710938 303.792969 70.46875 305.167969 L 50.957031 326.753906 C 49.507812 328.355469 46.964844 328.261719 45.636719 326.558594" fill="#e2bc69"/></g><g id="change1_4"><path d="M 161.550781 93.019531 C 156.324219 98.195312 148.046875 104.402344 143.308594 104.023438 C 135.648438 103.40625 125.714844 93.074219 125.714844 93.074219 C 125.714844 93.074219 102.078125 76.136719 116.292969 59.617188 C 126.460938 47.800781 143.3125 66.742188 143.3125 66.742188 C 143.3125 66.742188 159.042969 46.675781 171.367188 53.558594 C 186.195312 61.847656 170.6875 83.980469 161.550781 93.019531 Z M 178.464844 44.4375 C 160.609375 34.457031 143.367188 53.289062 143.367188 53.289062 C 136.875 48.167969 128.03125 44.03125 119.679688 44.042969 C 106.023438 44.0625 95.828125 58.324219 97.839844 71.4375 C 100.160156 86.570312 115.710938 99.0625 126.96875 107.753906 C 130.457031 110.445312 134.058594 113.121094 138.210938 114.59375 C 150.636719 119 161.777344 107.476562 169.804688 99.535156 C 183.039062 86.4375 199.953125 56.445312 178.464844 44.4375" fill="#e2bc69"/></g><g id="change1_5"><path d="M 210.597656 108.109375 C 205.367188 113.285156 197.089844 119.492188 192.351562 119.113281 C 184.695312 118.496094 174.761719 108.164062 174.761719 108.164062 C 174.761719 108.164062 148.09375 91.207031 162.3125 74.6875 C 172.476562 62.871094 192.355469 81.832031 192.355469 81.832031 C 192.355469 81.832031 204.253906 63.199219 216.574219 70.085938 C 231.402344 78.375 219.730469 99.070312 210.597656 108.109375 Z M 227.507812 59.527344 C 209.65625 49.550781 192.492188 70.914062 192.492188 70.914062 C 186.003906 65.792969 177.078125 59.121094 168.722656 59.136719 C 155.066406 59.152344 144.875 73.417969 146.886719 86.527344 C 149.203125 101.660156 164.753906 114.152344 176.015625 122.84375 C 179.503906 125.535156 183.105469 128.210938 187.257812 129.683594 C 199.683594 134.09375 210.824219 122.570312 218.851562 114.628906 C 232.085938 101.527344 248.996094 71.535156 227.507812 59.527344" fill="#e2bc69"/></g><g id="change1_6"><path d="M 287.382812 166.734375 L 93.726562 166.734375 C 90.269531 166.734375 87.46875 163.933594 87.46875 160.476562 C 87.46875 157.019531 90.269531 154.21875 93.726562 154.21875 L 287.382812 154.21875 C 290.839844 154.21875 293.640625 157.019531 293.640625 160.476562 C 293.640625 163.933594 290.839844 166.734375 287.382812 166.734375" fill="#e2bc69"/></g><g id="change1_7"><path d="M 287.382812 206.257812 L 93.726562 206.257812 C 90.269531 206.257812 87.46875 203.457031 87.46875 200 C 87.46875 196.546875 90.269531 193.742188 93.726562 193.742188 L 287.382812 193.742188 C 290.839844 193.742188 293.640625 196.546875 293.640625 200 C 293.640625 203.457031 290.839844 206.257812 287.382812 206.257812" fill="#e2bc69"/></g><g id="change1_8"><path d="M 287.382812 245.785156 L 93.726562 245.785156 C 90.269531 245.785156 87.46875 242.984375 87.46875 239.527344 C 87.46875 236.070312 90.269531 233.269531 93.726562 233.269531 L 287.382812 233.269531 C 290.839844 233.269531 293.640625 236.070312 293.640625 239.527344 C 293.640625 242.984375 290.839844 245.785156 287.382812 245.785156" fill="#e2bc69"/></g><g id="change1_9"><path d="M 287.382812 285.308594 L 93.726562 285.308594 C 90.269531 285.308594 87.46875 282.507812 87.46875 279.050781 C 87.46875 275.597656 90.269531 272.792969 93.726562 272.792969 L 287.382812 272.792969 C 290.839844 272.792969 293.640625 275.597656 293.640625 279.050781 C 293.640625 282.507812 290.839844 285.308594 287.382812 285.308594" fill="#e2bc69"/></g><g id="change1_10"><path d="M 287.382812 324.835938 L 93.726562 324.835938 C 90.269531 324.835938 87.46875 322.035156 87.46875 318.578125 C 87.46875 315.121094 90.269531 312.320312 93.726562 312.320312 L 287.382812 312.320312 C 290.839844 312.320312 293.640625 315.121094 293.640625 318.578125 C 293.640625 322.035156 290.839844 324.835938 287.382812 324.835938" fill="#e2bc69"/></g><g id="change1_11"><path d="M 151.679688 406.929688 L 96.117188 406.929688 C 92.8125 406.929688 90.136719 404.25 90.136719 400.949219 C 90.136719 397.644531 92.8125 394.96875 96.117188 394.96875 L 151.679688 394.96875 C 154.984375 394.96875 157.660156 397.644531 157.660156 400.949219 C 157.660156 404.25 154.984375 406.929688 151.679688 406.929688" fill="#e2bc69"/></g><g id="change1_12"><path d="M 256.15625 351.765625 C 232.949219 349.308594 213.484375 368.773438 215.941406 391.976562 C 217.734375 408.886719 231.324219 422.480469 248.234375 424.273438 C 271.441406 426.734375 290.910156 407.269531 288.449219 384.058594 C 286.65625 367.152344 273.0625 353.558594 256.15625 351.765625 Z M 256.402344 433.945312 C 227.675781 436.503906 203.714844 412.539062 206.273438 383.8125 C 208.238281 361.792969 225.96875 344.0625 247.988281 342.097656 C 276.714844 339.539062 300.679688 363.503906 298.117188 392.230469 C 296.15625 414.25 278.421875 431.980469 256.402344 433.945312" fill="#e2bc69"/></g><g id="change1_13"><path d="M 275.644531 392.578125 C 273.664062 391.921875 272.46875 389.957031 272.453125 387.871094 C 272.371094 376.820312 263.398438 367.84375 252.347656 367.765625 C 250.257812 367.75 248.292969 366.554688 247.640625 364.570312 C 246.535156 361.21875 249.003906 358.117188 252.195312 358.117188 C 268.683594 358.117188 282.101562 371.53125 282.101562 388.019531 C 282.101562 391.214844 279 393.683594 275.644531 392.578125" fill="#e2bc69"/></g><g id="change1_14"><path d="M 252.195312 417.925781 C 235.753906 417.925781 222.367188 404.585938 222.292969 388.160156 C 222.28125 385.835938 223.898438 383.710938 226.1875 383.285156 C 229.257812 382.714844 231.9375 385.054688 231.9375 388.019531 C 231.9375 399.167969 240.988281 408.242188 252.128906 408.277344 C 254.566406 408.285156 256.726562 410.136719 256.988281 412.566406 C 257.304688 415.46875 255.035156 417.925781 252.195312 417.925781" fill="#e2bc69"/></g></g></svg>