<?xml version="1.0" encoding="UTF-8" standalone="no"?><svg xmlns="http://www.w3.org/2000/svg" xmlns:xlink="http://www.w3.org/1999/xlink" clip-rule="evenodd" fill="#e2bc69" fill-rule="evenodd" height="936.7" preserveAspectRatio="xMidYMid meet" stroke-linejoin="round" stroke-miterlimit="2" version="1" viewBox="387.7 538.4 1313.6 936.7" width="1313.6" zoomAndPan="magnify"><g><g><path d="M4554.87 143.316H5782.92V1276.366H4554.87z" fill="none" transform="matrix(1.69645 0 0 1.83869 -7727.11 -263.51)"/><g id="change1_1"><path d="M634.088,872.397C538.486,872.397 451.864,910.977 389.086,973.338C326.118,1035.89 287.138,1122.36 287.138,1217.83C287.138,1313.29 326.118,1399.77 389.086,1462.32C451.864,1524.68 538.486,1563.26 634.088,1563.26C729.69,1563.26 816.312,1524.68 879.09,1462.32C942.058,1399.77 981.038,1313.29 981.038,1217.83C981.038,1122.36 942.058,1035.89 879.09,973.338C816.312,910.977 729.69,872.397 634.088,872.397ZM634.088,882.814C726.825,882.814 810.852,920.236 871.749,980.728C932.815,1041.39 970.622,1125.25 970.622,1217.83C970.622,1310.41 932.815,1394.27 871.749,1454.93C810.852,1515.42 726.825,1552.84 634.088,1552.84C541.351,1552.84 457.324,1515.42 396.427,1454.93C335.362,1394.27 297.554,1310.41 297.554,1217.83C297.554,1125.25 335.362,1041.39 396.427,980.728C457.324,920.236 541.351,882.814 634.088,882.814ZM816.793,1429.72C792.135,1451.67 763.679,1469.22 732.579,1481.18C702.39,1492.8 669.709,1499.15 635.597,1499.15C601.174,1499.15 568.208,1492.68 537.789,1480.87C506.455,1468.69 477.823,1450.84 453.08,1428.54C450.945,1426.61 447.649,1426.78 445.724,1428.92C443.799,1431.06 443.971,1434.35 446.106,1436.28C471.783,1459.42 501.499,1477.94 534.017,1490.57C565.609,1502.85 599.846,1509.57 635.597,1509.57C671.025,1509.57 704.966,1502.97 736.319,1490.91C768.595,1478.49 798.129,1460.28 823.718,1437.5C825.865,1435.59 826.057,1432.3 824.146,1430.15C822.235,1428 818.94,1427.81 816.793,1429.72ZM1026.03,1039.22L1026.03,1479.87C1026.03,1485.92 1028.48,1491.4 1032.45,1495.36C1036.41,1499.33 1041.89,1501.78 1047.95,1501.78L1072.4,1501.78C1075.47,1501.78 1078.46,1501.14 1081.21,1499.93C1083.96,1498.72 1086.45,1496.95 1088.53,1494.69C1090.6,1492.43 1092.15,1489.79 1093.11,1486.95C1094.08,1484.11 1094.46,1481.07 1094.19,1478.01C1094.19,1478.01 1075.12,1258.95 1075.12,1258.95C1075.08,1258.46 1075.16,1257.97 1075.34,1257.52C1075.51,1257.07 1075.8,1256.67 1076.17,1256.34L1091.12,1243.14C1097.08,1237.88 1101.45,1231.25 1103.97,1223.99C1106.49,1216.72 1107.17,1208.82 1105.75,1201C1105.75,1201 1075.94,1036.8 1075.94,1036.8C1075.35,1033.58 1073.66,1030.8 1071.29,1028.82C1068.92,1026.85 1065.89,1025.68 1062.61,1025.68C1062.61,1025.68 1039.57,1025.68 1039.57,1025.68C1037.77,1025.68 1036.02,1026.03 1034.39,1026.71C1032.76,1027.38 1031.26,1028.37 1029.99,1029.64C1028.72,1030.91 1027.73,1032.41 1027.06,1034.04C1026.38,1035.66 1026.03,1037.42 1026.03,1039.22L1026.03,1039.22ZM206.242,1021.09L189.721,1021.09C186.844,1021.09 184.513,1023.42 184.513,1026.3L184.513,1103.1C184.513,1103.1 165.129,1103.1 165.129,1103.1C165.129,1103.1 165.129,1026.3 165.129,1026.3C165.129,1023.42 162.797,1021.09 159.92,1021.09L143.542,1021.09C140.665,1021.09 138.333,1023.42 138.333,1026.3L138.333,1168.59C138.333,1176.7 140.899,1184.37 145.378,1190.67C149.858,1196.98 156.252,1201.92 163.909,1204.6C163.909,1204.6 174.039,1208.13 174.039,1208.13C171.808,1240.43 156.705,1459.09 156.705,1459.09C156.399,1463.52 157.019,1467.92 158.474,1472.02C159.928,1476.11 162.216,1479.92 165.245,1483.16C168.275,1486.41 171.91,1488.95 175.898,1490.68C179.886,1492.42 184.226,1493.34 188.667,1493.34L207.19,1493.34C211.608,1493.34 215.927,1492.42 219.894,1490.7C223.862,1488.97 227.479,1486.44 230.493,1483.21C233.507,1479.98 235.783,1476.2 237.23,1472.12C238.677,1468.05 239.294,1463.67 238.99,1459.27C238.99,1459.27 221.644,1208.13 221.644,1208.13C221.644,1208.13 231.759,1204.6 231.759,1204.6C239.421,1201.93 245.818,1196.98 250.3,1190.67C254.783,1184.36 257.349,1176.69 257.349,1168.58C257.349,1168.58 257.349,1026.3 257.349,1026.3C257.349,1023.42 255.018,1021.09 252.141,1021.09L235.762,1021.09C232.886,1021.09 230.554,1023.42 230.554,1026.3L230.554,1103.1C230.554,1103.1 211.45,1103.1 211.45,1103.1C211.45,1103.1 211.45,1026.3 211.45,1026.3C211.45,1023.42 209.119,1021.09 206.242,1021.09ZM1036.44,1039.22C1036.44,1038.8 1036.53,1038.4 1036.68,1038.02C1036.84,1037.65 1037.07,1037.3 1037.36,1037.01C1037.65,1036.72 1038,1036.49 1038.37,1036.33C1038.75,1036.18 1039.15,1036.09 1039.57,1036.09L1062.61,1036.09C1063.37,1036.09 1064.07,1036.36 1064.62,1036.82C1065.16,1037.28 1065.55,1037.92 1065.69,1038.66C1065.69,1038.66 1095.49,1202.81 1095.5,1202.86C1096.59,1208.88 1096.07,1214.97 1094.13,1220.57C1092.19,1226.17 1088.82,1231.28 1084.23,1235.33C1084.23,1235.33 1069.28,1248.53 1069.28,1248.53C1067.66,1249.95 1066.44,1251.71 1065.66,1253.65C1064.89,1255.6 1064.56,1257.72 1064.75,1259.86L1083.82,1478.91C1083.96,1480.52 1083.76,1482.11 1083.25,1483.6C1082.75,1485.08 1081.93,1486.47 1080.85,1487.65C1079.76,1488.84 1078.45,1489.77 1077.02,1490.4C1075.58,1491.03 1074.01,1491.37 1072.4,1491.37C1072.4,1491.37 1047.95,1491.37 1047.95,1491.37C1044.77,1491.37 1041.9,1490.08 1039.81,1488C1037.73,1485.92 1036.44,1483.04 1036.44,1479.87L1036.44,1039.22ZM201.034,1031.51L194.929,1031.51L194.929,1108.31C194.929,1111.19 192.597,1113.52 189.721,1113.52L159.92,1113.52C157.044,1113.52 154.712,1111.19 154.712,1108.31C154.712,1108.31 154.712,1031.51 154.712,1031.51C154.712,1031.51 148.75,1031.51 148.75,1031.51L148.75,1168.59C148.75,1174.49 150.614,1180.06 153.87,1184.64C157.126,1189.22 161.772,1192.82 167.338,1194.76L181.224,1199.6C183.441,1200.37 184.867,1202.53 184.705,1204.88C184.705,1204.88 167.097,1459.81 167.097,1459.81C166.891,1462.8 167.309,1465.77 168.291,1468.53C169.272,1471.3 170.816,1473.86 172.86,1476.05C174.905,1478.25 177.358,1479.96 180.05,1481.13C182.741,1482.3 185.67,1482.92 188.667,1482.92L207.19,1482.92C210.164,1482.92 213.072,1482.31 215.743,1481.14C218.414,1479.98 220.849,1478.28 222.878,1476.11C224.907,1473.93 226.439,1471.38 227.413,1468.64C228.387,1465.9 228.803,1462.95 228.598,1459.99L210.978,1204.88C210.816,1202.53 212.242,1200.37 214.459,1199.6C214.459,1199.6 228.33,1194.76 228.33,1194.76C233.9,1192.82 238.55,1189.23 241.809,1184.64C245.067,1180.05 246.933,1174.48 246.933,1168.58C246.933,1168.58 246.933,1031.51 246.933,1031.51C246.933,1031.51 240.971,1031.51 240.971,1031.51L240.971,1108.31C240.971,1111.19 238.639,1113.52 235.762,1113.52L206.242,1113.52C203.366,1113.52 201.034,1111.19 201.034,1108.31C201.034,1108.31 201.034,1031.51 201.034,1031.51ZM424.299,1398.48C403.339,1373.1 386.621,1343.9 375.275,1312.05C364.388,1281.5 358.448,1248.5 358.448,1214.08C358.448,1136.11 388.952,1065.39 438.363,1013.9C488.622,961.515 558.446,929.016 635.597,929.016C712.749,929.016 782.572,961.515 832.831,1013.9C882.242,1065.39 912.746,1136.11 912.746,1214.08C912.746,1249.93 906.301,1284.24 894.534,1315.86C882.264,1348.83 864.21,1378.86 841.651,1404.65C839.758,1406.81 839.978,1410.1 842.141,1412C844.305,1413.89 847.598,1413.67 849.49,1411.51C872.87,1384.78 891.581,1353.66 904.296,1319.49C916.483,1286.75 923.163,1251.21 923.163,1214.08C923.163,1133.29 891.54,1060.04 840.347,1006.68C788.176,952.31 715.685,918.599 635.597,918.599C555.51,918.599 483.018,952.31 430.847,1006.68C379.654,1060.04 348.031,1133.29 348.031,1214.08C348.031,1249.73 354.187,1283.9 365.462,1315.55C377.22,1348.56 394.547,1378.81 416.268,1405.11C418.098,1407.33 421.384,1407.64 423.6,1405.81C425.817,1403.98 426.13,1400.69 424.299,1398.48ZM636.244,1098.24C618.011,1072.25 593.04,1057.95 567.508,1052.76C534.909,1046.12 501.393,1054.45 479.614,1072.3C460.928,1087.61 450.708,1109.9 449.163,1136.04C447.396,1165.94 457.068,1201.01 478.431,1236.05C490.175,1256.65 509.742,1277.29 532.948,1296.63C563.585,1322.17 600.562,1345.5 633.747,1363.63C635.303,1364.48 637.185,1364.48 638.741,1363.63C671.926,1345.5 708.903,1322.17 739.54,1296.63C762.749,1277.29 782.319,1256.64 794.065,1236.04C815.421,1201.01 825.094,1165.94 823.326,1136.04C821.781,1109.9 811.561,1087.61 792.875,1072.3C771.095,1054.45 737.579,1046.12 704.98,1052.76C679.448,1057.95 654.477,1072.25 636.244,1098.24L636.244,1098.24ZM631.798,1110.45C632.744,1112 634.428,1112.95 636.244,1112.95C638.06,1112.95 639.745,1112 640.69,1110.45C657.468,1082.95 681.943,1068.07 707.056,1062.96C736.419,1056.99 766.654,1064.28 786.272,1080.35C802.749,1093.86 811.565,1113.6 812.928,1136.65C814.591,1164.79 805.241,1197.72 785.127,1230.69C785.1,1230.73 785.073,1230.78 785.047,1230.82C773.838,1250.51 755.045,1270.15 732.87,1288.63C703.513,1313.11 668.223,1335.5 636.244,1353.12C604.266,1335.5 568.975,1313.11 539.618,1288.63C517.443,1270.15 498.65,1250.51 487.441,1230.82C487.415,1230.78 487.389,1230.73 487.361,1230.69C467.248,1197.72 457.898,1164.79 459.562,1136.65C460.924,1113.6 469.74,1093.86 486.216,1080.35C505.834,1064.28 536.069,1056.99 565.432,1062.96C590.545,1068.07 615.02,1082.95 631.798,1110.45ZM867.708,1133.14C872.068,1145.76 875.42,1158.86 877.666,1172.35C879.849,1185.46 880.985,1198.94 880.985,1212.69C880.985,1222.57 880.398,1232.32 879.256,1241.89C878.089,1251.67 876.342,1261.28 874.052,1270.66C873.371,1273.45 875.085,1276.27 877.877,1276.95C880.67,1277.64 883.49,1275.92 884.172,1273.13C886.56,1263.34 888.382,1253.33 889.599,1243.12C890.789,1233.15 891.402,1222.99 891.402,1212.69C891.402,1198.36 890.216,1184.31 887.941,1170.64C885.599,1156.57 882.101,1142.9 877.553,1129.74C876.614,1127.02 873.646,1125.58 870.929,1126.52C868.212,1127.45 866.769,1130.42 867.708,1133.14ZM767.64,1008.03C786.119,1019.35 802.937,1033.24 817.629,1049.2C832.207,1065.05 844.692,1082.93 854.629,1102.4C855.935,1104.96 859.075,1105.98 861.635,1104.67C864.196,1103.37 865.213,1100.23 863.907,1097.67C853.536,1077.35 840.507,1058.68 825.295,1042.15C809.95,1025.48 792.383,1010.98 773.084,999.146C770.633,997.644 767.424,998.414 765.922,1000.87C764.419,1003.32 765.19,1006.52 767.64,1008.03Z" transform="matrix(1.3559 0 0 1.3559 200.18 -644.437)"/></g></g></g></svg>