<?xml version="1.0" encoding="UTF-8" standalone="no"?><svg xmlns="http://www.w3.org/2000/svg" xmlns:xlink="http://www.w3.org/1999/xlink" data-name="Layer 1" fill="#e2bc69" height="60" preserveAspectRatio="xMidYMid meet" version="1" viewBox="13.3 2.0 37.4 60.0" width="37.4" zoomAndPan="magnify"><g id="change1_1"><path d="M31.96,15.74a6.5,6.5,0,0,0-9.03,9.36l8.33,8.33a1.007,1.007,0,0,0,.71.29.99.99,0,0,0,.71-.29l8.39-8.4a6.506,6.506,0,0,0-9.11-9.29Zm7.7,7.87-7.69,7.7-7.63-7.63a4.5,4.5,0,1,1,6.37-6.37l.55.54a1.014,1.014,0,0,0,1.41,0l.62-.61a4.5,4.5,0,1,1,6.37,6.37Z"/></g><g id="change1_2"><path d="M32,2A18.727,18.727,0,0,0,13.29,20.71c0,7.05,8.54,20.69,13.83,28.47-3.82,1.09-6.29,3.42-6.29,6.07C20.83,59.04,25.74,62,32,62s11.17-2.96,11.17-6.75c0-2.65-2.47-4.98-6.29-6.07,5.29-7.78,13.83-21.42,13.83-28.47A18.727,18.727,0,0,0,32,2Zm0,50.66c-3.44-4.78-16.71-23.77-16.71-31.95a16.71,16.71,0,0,1,33.42,0C48.71,28.89,35.44,47.88,32,52.66Z"/></g><g id="change1_3"><path d="M23.485,10.369a11.7,11.7,0,0,1,6.5-2.67,1,1,0,0,0-.168-1.993,13.725,13.725,0,0,0-7.627,3.137A13.527,13.527,0,0,0,18.5,13.9a1,1,0,1,0,1.844.776A11.5,11.5,0,0,1,23.485,10.369Z"/></g></svg>