<?xml version="1.0" encoding="UTF-8"?><svg id="Layer_1" xmlns="http://www.w3.org/2000/svg" viewBox="0 0 469.42 500"><defs><style>.cls-1{fill:#e1bc68;stroke-width:0px;}</style></defs><path class="cls-1" d="M0,475.51c16.43-45.12,34.8-89.5,52.17-134.25,15.2-39.14,30.65-78.18,46.03-117.26.92-2.33,1.28-4.72,1.7-7.15,2.2-12.75,11.36-20.36,24.62-20.73,11.22-.31,21.68,2.81,31.88,7.02,4.31,1.78,8.48,3.92,12.69,5.96,3.12,1.52,3.32,1.46,4.12-2.05,1.16-5.05,2.3-10.11,3.49-15.16.86-3.65,3.14-5.35,6.08-4.6,2.8.72,4.07,3.24,3.3,6.68-1.45,6.47-2.89,12.94-4.41,19.39-.4,1.7-.13,2.85,1.47,3.85,15.69,9.81,30.08,21.35,43.68,33.86,2.13,1.96,3.3,1.62,5.15-.25,21.95-22.05,43.97-44.04,65.98-66.04.6-.6,1.19-1.22,1.85-1.76,2.24-1.8,5.14-1.67,6.9.27,1.74,1.92,1.72,4.59-.3,6.65-5.23,5.35-10.54,10.62-15.83,15.91-17.01,17.01-34.04,34.02-51.05,51.03-3.18,3.18-3.18,3.21-.11,6.3,15.73,15.86,29.99,32.92,42.15,51.69,6.27,2.93,5.83,9.81,8.61,14.79,5.66,10.13,10.14,20.78,12.44,32.23,1.1,5.51,1.72,11.05.89,16.71-1.82,12.47-9.32,19.99-21.87,21.59-1.89.24-3.65.76-5.39,1.44-81.25,31.92-162.51,63.85-243.77,95.74-2.6,1.02-5.31,1.74-7.97,2.6h-4.08c-11.34-2.55-18.24-9.43-20.41-20.92v-3.57ZM109.07,223.63c0,1.44-.11,2.9.03,4.33.15,1.6.46,3.2.8,4.77,3.53,16.04,11.11,30.28,19.93,43.88,20.91,32.22,47.26,59.4,77.77,82.59,13.78,10.47,28.4,19.63,44.54,26.13,8.32,3.35,16.82,5.99,25.96,5.7,9.36-.29,14.77-5.07,15.81-14.32.27-2.43.26-4.95-.06-7.37-1.86-14.17-7.85-26.83-14.65-39.17-.88-1.6-2.1-1.42-3.49-.99-3.9,1.21-7.77,2.51-11.7,3.6-3.11.86-5.65-.43-6.45-2.98-.85-2.71.58-5.15,3.75-6.22,2.98-1,5.96-2.02,8.99-2.87,2.16-.61,2.28-1.61,1.09-3.28-1.44-2-2.75-4.09-4.16-6.11-10.39-14.89-22.18-28.62-34.93-41.53-2.8-2.84-2.86-2.8-5.62-.05-1.2,1.2-2.38,2.44-3.66,3.55-2.24,1.95-4.73,1.97-6.66.16-1.89-1.77-1.98-4.69-.09-6.9,1.16-1.35,2.39-2.67,3.75-3.81,2.01-1.68,1.84-2.91-.09-4.66-11.49-10.4-23.5-20.13-36.41-28.73q-4.51-3-5.98,2.24c-.87,3.1-3.09,4.76-5.69,4.24-2.81-.56-4.26-2.92-3.69-6.28.37-2.18.92-4.32,1.39-6.48.3-1.39,0-2.42-1.38-3.17-10.5-5.69-21.27-10.69-33.06-13.13-3.69-.76-7.41-.99-11.16-.81-9.87.46-15.03,6.55-14.9,17.69ZM257.69,397.77c-36.41-12.86-65.79-36.11-92.61-62.91-26.82-26.79-50.03-56.19-62.95-92.52-1.09.51-1.28,1.3-1.55,1.99-6,15.27-11.98,30.55-18,45.81-.65,1.65-.5,3.07.28,4.62,2.96,5.94,6.22,11.72,9.79,17.31,17.76,27.85,39.96,51.76,65.07,73.05,14.57,12.35,30.12,23.3,47.25,31.9,1.73.87,3.25,1.01,5.08.28,14.94-5.92,29.91-11.76,44.86-17.65.97-.38,2.17-.5,2.79-1.89ZM194.42,422.85c-48.97-29.4-88.02-68.41-117.43-117.56-.53,1.02-.93,1.64-1.2,2.32-5.53,14.08-11.02,28.17-16.6,42.23-.7,1.77-.25,3.05.73,4.47,23.22,33.67,51.6,62.17,85.26,85.42,2.07,1.43,3.79,1.58,6.09.65,13.17-5.28,26.41-10.41,39.61-15.61,1.15-.45,2.46-.66,3.53-1.93ZM135.97,445.7c-.4-1.15-1.45-1.64-2.33-2.27-30.02-21.69-55.81-47.6-77.5-77.61-.49-.67-.87-1.72-1.78-1.69-1.13.04-1.24,1.27-1.56,2.09-5.2,13.2-10.36,26.43-15.59,39.62-.72,1.81-.45,3.15.76,4.65,15.34,18.86,32.35,36.03,51.27,51.31,1.73,1.4,3.23,1.66,5.32.83,12.94-5.17,25.94-10.21,38.91-15.31.92-.36,2-.54,2.49-1.62ZM81.44,467.71c-18.35-14.8-34.31-30.92-48.92-48.8-.6.96-.99,1.41-1.2,1.94-6.84,17.39-13.68,34.79-20.49,52.2-1.31,3.35-1.05,6.67.58,9.87,3.19,6.25,9.62,8.56,16.72,5.81,13.71-5.31,27.37-10.72,41.05-16.1,3.85-1.52,7.68-3.08,12.25-4.91Z"/><path class="cls-1" d="M469.42,180.1c-5.22,7.05-12.67,8.04-20.55,7.14-4.62-.53-9.12-2.05-13.73-2.76-9.05-1.4-16.58,3.62-18.84,12.49-.92,3.62-1.37,7.35-2.18,11-2.85,12.86-11.26,20.45-24.3,21.74-4.8.48-9.42-.99-14.05-2.09-3.55-.85-7.11-1.82-10.82-.95-6.29,1.47-10.74,5.13-12.57,11.38-1.14,3.9-1.63,7.98-2.51,11.96-3.54,15.92-16.58,24.41-32.57,21.2-3.25-.65-6.45-1.54-9.7-2.19-4.31-.86-8.42-.41-12.31,1.87-3.09,1.81-5.92,1.25-7.34-1.2-1.45-2.51-.4-5.45,2.69-7.24,6.18-3.6,12.77-4.37,19.7-2.8,3.56.81,7.11,1.75,10.71,2.33,9.09,1.45,16.78-3.66,19-12.61.98-3.95,1.5-8.02,2.47-11.98,3.58-14.66,16.41-22.91,31.23-20.12,3.84.72,7.61,1.82,11.45,2.51,8.84,1.59,16.85-3.51,19.06-12.21,1.06-4.19,1.58-8.53,2.61-12.73,3.48-14.2,16.35-22.38,30.79-19.84,5.01.88,9.8,2.86,15,2.79,2.61-.03,5.04-.55,7.37-1.72,5-2.51,6.44-2.11,9.41,2.49v1.53Z"/><path class="cls-1" d="M299,0c3.85,3.81,4.06,5.02,1.95,10.1-1.98,4.76-5.45,8.13-9.75,10.78-2.24,1.38-4.54,2.69-6.66,4.24-5.52,4.05-6.81,10.61-3.27,16.48,1.53,2.54,3.36,4.91,4.93,7.43,6.76,10.8,4.08,23.53-6.47,30.67-2.39,1.62-4.95,2.99-7.33,4.62-6.25,4.28-7.63,11.19-3.56,17.62,1.41,2.22,2.99,4.34,4.4,6.56,6.96,10.94,4.44,23.52-6.19,30.92-1.81,1.26-3.73,2.37-5.63,3.5-3.63,2.16-6.4,4.92-7.54,9.19-.75,2.78-3.2,4.09-5.67,3.45-2.6-.67-4.08-3.01-3.52-5.93,1.13-5.83,4.52-10.18,9.34-13.45,2.53-1.72,5.23-3.19,7.73-4.94,6.12-4.29,7.44-10.84,3.51-17.2-1.92-3.11-4.15-6.04-5.87-9.25-5.05-9.42-2.62-20.65,5.87-27.2,2.61-2.02,5.54-3.62,8.31-5.44,7.17-4.71,8.62-11.1,4.11-18.4-1.61-2.6-3.49-5.03-5.03-7.67-5.76-9.89-3.31-21.81,5.87-28.64,1.97-1.47,4.08-2.76,6.21-3.99,3.88-2.24,7.05-5,8.1-9.63.43-1.9,2.14-2.76,3.58-3.81h2.55Z"/><path class="cls-1" d="M374.31,173.42c-4.08,0-8.16.07-12.24-.03-2.17-.05-3.63.72-4.87,2.55-4.67,6.9-9.49,13.69-14.22,20.55-1.34,1.95-2.92,3.36-5.47,2.91-2.4-.42-3.51-2.11-4.2-4.29-2.51-7.94-5.13-15.85-7.59-23.8-.65-2.09-1.77-3.2-3.91-3.8-7.76-2.22-15.47-4.62-23.2-6.96-2.34-.71-4.6-1.51-5.06-4.37-.47-2.92,1.37-4.51,3.46-6.01,6.56-4.7,13.07-9.49,19.67-14.14,1.73-1.21,2.43-2.6,2.37-4.68-.24-8.07-.37-16.14-.55-24.22-.05-2.52-.1-5.04,2.62-6.39,2.7-1.34,4.73.21,6.74,1.68,6.32,4.61,12.68,9.16,18.92,13.87,2.06,1.56,3.9,1.81,6.33.92,7.58-2.79,15.24-5.33,22.85-8.03,2.21-.78,4.31-1.16,6.17.66,1.85,1.81,1.6,4,.89,6.18-2.55,7.84-5.06,15.69-7.74,23.49-.74,2.17-.51,3.78.92,5.6,4.99,6.35,9.8,12.83,14.71,19.25,1.53,1.99,2.61,4.12,1.37,6.58-1.17,2.32-3.5,2.48-5.75,2.5-4.08.04-8.16.01-12.24.01,0-.02,0-.04,0-.05ZM339.95,182.86c1.33-.56,1.75-1.54,2.32-2.35,3.02-4.31,6.1-8.59,8.99-12.99,1.67-2.54,3.84-3.64,6.82-3.61,5.61.07,11.21.04,16.82.01.8,0,1.86.27,2.26-.71.31-.79-.42-1.42-.86-2.01-3.32-4.41-6.59-8.87-10.04-13.18-1.95-2.43-2.43-4.81-1.35-7.78,1.9-5.27,3.54-10.64,5.27-15.97.23-.71.78-1.53.21-2.17-.7-.78-1.6-.14-2.36.13-5.3,1.82-10.62,3.61-15.88,5.53-2.81,1.03-5.23.72-7.63-1.12-4.17-3.21-8.44-6.29-12.71-9.38-.91-.66-1.72-1.68-3.13-1.46,0,6.31-.15,12.58.06,18.83.11,3.13-.83,5.36-3.41,7.13-4.62,3.18-9.12,6.52-13.66,9.81-.59.43-1.53.73-1.42,1.64.13,1.07,1.2,1.08,1.97,1.32,5.52,1.68,11.05,3.36,16.6,4.98,2.51.73,4.06,2.23,4.81,4.76,1.2,4.07,2.51,8.11,3.85,12.14.71,2.14,1.13,4.42,2.5,6.44Z"/><path class="cls-1" d="M187.45,65.47c6.99,2.05,11.05-1.53,14.12-7.22.88-1.63,2.16-3.05,3.24-4.58,1.36-1.93,3.03-3.29,5.55-2.83,2.41.44,3.45,2.24,4.09,4.4,1.12,3.75,2.38,7.45,3.39,11.23.58,2.14,1.8,3.26,3.9,3.84,3.19.88,6.33,1.97,9.48,2.99,2.51.81,5.23,1.43,5.8,4.63.59,3.32-1.73,4.88-4.03,6.45-2.88,1.96-5.69,4.03-8.6,5.95-1.57,1.04-2.25,2.29-2.19,4.23.13,4.16.03,8.33.05,12.49,0,2.08-.53,3.92-2.48,4.96-2.02,1.08-3.96.63-5.73-.68-3.07-2.28-6.22-4.47-9.16-6.91-2.13-1.76-4.12-2.18-6.75-1.12-3.54,1.43-7.25,2.42-10.87,3.67-2.04.7-3.86.52-5.42-1.02-1.65-1.63-1.78-3.55-1.03-5.65,1.36-3.85,2.59-7.74,4.03-11.55.74-1.96.53-3.52-.78-5.18-2.47-3.14-4.76-6.41-7.14-9.62-1.37-1.85-1.88-3.86-.8-5.97,1.06-2.08,3.03-2.53,5.2-2.48,2.04.05,4.08.01,6.12.01ZM190.87,75.02c.15,1.07.12,1.35.23,1.55.38.66.73,1.38,1.25,1.91,3.57,3.64,4.37,7.67,2.02,12.3-.46.91-1.28,2.19-.39,3.07.88.87,2.17.07,3.09-.38,4.54-2.24,8.52-1.56,12.05,2.02.29.3.67.52,1.01.77,1.72,1.29,2.4.69,2.34-1.29-.03-.85.1-1.71-.01-2.54-.53-4.03,1.09-6.83,4.58-8.83,1.3-.75,2.9-1.4,3.63-3.69-7.78-.62-11.94-5.07-13.06-13.14-3.56,7.41-9.02,10.09-16.74,8.26Z"/><path class="cls-1" d="M383.47,306.54c.71-3.93,1.41-8.21,2.28-12.46.45-2.21.04-3.87-1.7-5.45-2.9-2.62-5.56-5.5-8.36-8.23-1.65-1.61-2.54-3.45-1.76-5.73.75-2.21,2.6-3.02,4.73-3.34,3.95-.58,7.89-1.26,11.86-1.67,2.14-.22,3.36-1.19,4.24-3.07,1.63-3.46,3.44-6.83,5.12-10.27,1.09-2.23,2.72-3.81,5.26-3.84,2.56-.03,3.84,1.81,4.83,3.93,1.7,3.62,3.49,7.19,5.19,10.8.67,1.42,1.61,2.25,3.25,2.47,4.13.55,8.23,1.3,12.35,1.88,2.37.34,4.3,1.25,5.05,3.65.72,2.32-.43,4.1-2.05,5.66-2.95,2.82-5.84,5.7-8.83,8.48-1.32,1.23-1.7,2.54-1.36,4.33.78,4.09,1.31,8.22,2.04,12.32.39,2.23-.12,4.06-1.91,5.45-1.87,1.45-3.82,1.1-5.74.06-3.37-1.81-6.8-3.51-10.09-5.47-2.2-1.31-4.08-1.46-6.37-.12-3.52,2.05-7.17,3.91-10.9,5.56-3.91,1.73-7.35-.61-7.13-4.96ZM420.74,280.63c-3.85-2.15-7.66-1.02-10.48-3.03-2.87-2.04-2.86-6.06-5.37-8.51-1.42,1.03-1.93,2.54-2.44,3.91-1.51,4-4.3,5.85-8.53,5.98-1.35.04-3.41-.25-3.9,1.12-.53,1.48,1.41,2.35,2.45,3.19,3.29,2.64,4.43,5.81,3.25,9.9-.4,1.4-.97,2.91-.13,4.58,3.31-.6,5.72-3.64,9.12-3.57,3.36.07,5.77,3.03,9.85,3.79-2.51-7.33-1.38-13.31,6.16-17.36Z"/><path class="cls-1" d="M388.17,33.63c-.09,12.46-4.58,23.15-13.07,32.21-.46.49-.96.96-1.5,1.37-2.18,1.64-4.74,1.53-6.48-.23-1.8-1.82-1.95-4.26-.16-6.43,2.26-2.75,4.7-5.34,6.48-8.48,6.79-11.98,6.73-24.07.63-36.26-.65-1.29-1.49-2.52-1.23-4.06.37-2.24,1.67-3.74,3.9-4.19,2.4-.48,4.14.71,5.28,2.7,4.1,7.23,6.28,14.99,6.17,23.36Z"/><path class="cls-1" d="M201.27,126.8c-.92,4.08-1.92,8.55-2.94,13.02-2.18,9.61-4.34,19.22-6.55,28.83-.86,3.73-3.11,5.58-5.87,4.93-2.99-.7-4.36-3.08-3.55-6.76,3.05-13.77,6.17-27.52,9.32-41.26.73-3.16,3.01-4.81,5.62-4.33,2.45.45,4.1,2.59,3.96,5.58Z"/><path class="cls-1" d="M368.17,297.09c-.05,2.53-1.76,3.95-4.25,4.73-9.41,2.92-18.83,5.85-28.24,8.78-3.25,1.01-6.48,2.07-9.75,2.99-3.01.85-5.55-.46-6.33-3.09-.79-2.64.56-5.15,3.57-6.1,12.81-4.03,25.63-8.01,38.47-11.93,3.43-1.05,6.44,1.07,6.53,4.62Z"/></svg>