<?xml version="1.0" encoding="UTF-8"?><svg id="Layer_1" xmlns="http://www.w3.org/2000/svg" viewBox="0 0 356.79 500"><defs><style>.cls-1{fill:#e1bc68;}.cls-1,.cls-2{stroke-width:0px;}.cls-2{fill:#fff;}</style></defs><path class="cls-1" d="M166.76,197.32c.03,1.25.05,2.5.08,3.75.85-.37,1.67-.9,2.56-1.09,3.57-.74,7.17-1.38,10.76-2.03.22-.04.47.11.7.17-.26.32-.45.79-.79.93-2.77,1.14-5.5,2.78-8.39,3.18-3.96.56-5.35,2.24-4.52,6.01.09.4.15.81.22,1.22.36-.17.72-.33,1.07-.53.19-.1.33-.28.51-.4,3.77-2.78,8.01-3.88,12.63-3.25,1.1.15.6.74-4.47,2.64-1.62.61-3.34,1.02-4.83,1.85-2.01,1.12-6.61.76-4.69,4.54,1.14,2.23,4.06-.62,6.06-1.46,3.31-1.38,6.64-2.1,10.21-1.57-2.75,1.32-5.52,3.82-8.24,3.76-11.2-.25-7.86,7.02-7.36,13.01.26,3.08.33,6.18.55,9.27.08,1.09.37,2.17.56,3.26,1.58-.85,3.21-1.26,4.6-2.84,4.46-5.05,8.69-10.55,17.13-8.66,2.11.47,4.53-5.04,7.97-1.25.95,1.04,2.68.75,2.95.97,4.32,3.59,12.49-.13,14.51,7.58.98,3.76,5,2.09,7.03,3.96-.54-1.43-1.01-2.89-1.62-4.28-2.33-5.25-4.12-10.61-3.64-16.47.03-.4.19-.78.29-1.17.23.32.55.62.67.98,6.71,20.3,18.24,37.6,31.12,54.6,9.67,12.76,12.12,29.69,18.31,44.55,1.34,3.21,2.81,6.37,4.22,9.55-.03-3.34-.2-6.69-.06-10.03.59-13.71-1.83-27.47.89-41.17.41-2.05-1.35-4.45-1.72-6.76-.23-1.47.26-3.05.42-4.58.6,1.33,1.21,2.66,1.79,4,.22.51.36,1.05.54,1.58.22-.53.49-1.05.66-1.6,1.58-5.38,3.13-10.77,4.72-16.15.16-.52.53-.98.8-1.48.14.58.38,1.16.4,1.74.43,11.51-5.08,21.96-5.92,33.27-4.07,54.37,12.41,102.33,45.61,144.87,8.49,10.87,20.03,18.08,33.19,22.48.52.17.99.51,1.48.77-.59.05-1.19.22-1.76.14-17.01-2.54-28.5-13.54-38.6-26.06-20.34-25.23-30.05-55.49-40.23-85.65-7.38-21.85-15.87-43.44-25.51-64.38-4.87-10.58-13.42-19.47-20.31-29.12-.11-.16-.33-.24-.5-.36,0,.18-.04.37,0,.54,1.34,8.15-1.48,15.98-2.3,23.93-.34,3.23-3.99,6.48-6.78,9-3.34,3.01-4.69,8.2-9.58,9.37-5.01,1.19-6.5,10.65-13.96,5.86-.19-.12-.73-.08-.76,0-2.83,8.5-5.83,2.39-9.24.4-1.68-.98-3.28,3.83-5.57,1.83-3.48-3.05-10.36-.69-11.44-7.32-4.78,1.07-7.03-2.6-9.82-5.25-.63-.6-1.21-1.23-1.84-1.82-5.99-5.6-2.15-13.79-5.61-20.84-3.26-6.63,5.78-13.03,11.8-18.01,2.13-1.77,3.87-4.1,3.04-7.6-3.86-16.3-1.26-33.19-4.37-49.58-.07-.37.18-.79.28-1.19.22.39.46.77.66,1.18,1.17,2.41,2.33,4.82,3.5,7.23l-.04-.04Z"/><path class="cls-1" d="M145.23,218.18c-4.05,13.68-8.79,28.83-13.02,44.12-17.77,64.19-39.79,126.56-76.5,182.85-10.96,16.8-22.79,32.57-40.48,42.93-.3.17-.55.42-.83.64.22.1.45.31.64.28,14.99-2.91,28.44,3.48,42.37,6.99,9.01,2.27,16.53-3.5,24.89-4.81,8.96-1.4,17.16,2.22,25.7,3.64,6.09,1.01,12.05,1.28,17.44-2.52.19-.13.46-.14.69-.2-.09.33-.12.69-.28.99-2.77,5.38-7.71,6.48-13.02,6.04-4.28-.36-8.59-1.13-12.7-2.35-9.37-2.77-18.42-2.97-27.6,1.01-9.4,4.08-18.82,2-27.68-1.86-13.17-5.74-26.71-3.63-40.24-2.97-1.52.07-3.07-.39-4.61-.61,1.3-.46,2.6-.91,3.89-1.37,20.98-7.51,34.65-23.35,46.47-41.15,39.93-60.12,63.56-126.97,81.1-196.37,3.35-13.24,7.73-26.22,11.66-39.31.22-.73.67-1.4,1.01-2.1.25,1.43.51,2.85,1.09,6.14Z"/><path class="cls-1" d="M176.86,27.71c-.04-1-.09-2.01-.13-3.02-.07-2.05-.13-4.09-.19-6.14.98,2.1,2.39,4.1,2.84,6.31.99,4.83,3.06,8.95,6.53,12.41.29.29.65.5.98.74-.16-.36-.35-.72-.48-1.09-.48-1.4-.93-2.8-1.4-4.2.91.83,1.7,1.92,2.76,2.44,4.89,2.39,9.87,4.61,14.81,6.9.4.19.77.45,1.15.68-.4.09-.79.25-1.19.26-1.51.02-3.03.1-4.53-.04-1.75-.17-3.49-.56-5.23-.85,1.81.86,3.6,1.76,5.44,2.56.98.43,2.04.7,3.07,1.02,1.89.58,3.78,1.15,5.68,1.72-2.24.12-4.54.63-6.7.28-8.18-1.33-15.33-4.48-19.46-12.31-.13-.24-.32-.45-.48-.67-.19.51-.45,1.01-.57,1.54-1.26,5.86-4.5,10.01-10.33,11.8-.6.18-1.49-.58-2.24-.9.47.78,1.06,1.51,1.4,2.35.99,2.46,2.22,4.89,2.73,7.45.83,4.18.38,8.32-2,12.05-.14-3.06.07-6.18-.48-9.16-1.56-8.43-4.95-15.3-15.1-15.4-.18,0-.36-.06-.54-.09.2-.28.35-.61.61-.82,2.15-1.69,4.83-2.06,6.91-.74,5.18,3.28,3.64.84,3.51-2.93-.56-15.19,7.03-26.44,19.13-34.62,8.73-5.91,18.34-7.39,27.83-1.43,8.75,5.49,12.53,14.51,16,23.7,2.04,5.4,2.75,11.41,7.05,15.8-2.11.67-4.19,1.51-6.35,1.93-1.07.21-2.29-.38-3.44-.6,1.07-.35,2.14-.99,3.21-1,3.11-.03,4.37.21,1.8-3.53-2.77-4.03-3.97-9.16-5.7-13.87-6.28-17.02-15.24-24.87-27.31-23.8-12.95,1.15-26.48,15.26-28.88,30.18-.6,3.71-.75,7.42.69,11.02,1.35-3.04,2.7-6.09,4.07-9.12,1.01-2.25,2.05-4.48,3.07-6.73-.1,2.63.02,5.29-.37,7.88-.54,3.57-2.25,6.64-5.02,9.07-.35.3-.39.96-.57,1.45.54-.16,1.2-.16,1.59-.49,5.56-4.8,6.09-11.27,5.86-17.98Z"/><path class="cls-1" d="M131.47,487.69c10.72,1.41,20.05,1.24,29.29-.73,8.94-1.91,17.25-.16,25.32,3.79,8.38,4.11,16.33,4.27,23.86-2.29,5.54-4.82,11.79-3.67,17.88-.94,8.41,3.76,16.91,6.66,26.23,3.62.9-.29,1.72-.83,2.57-1.25-.61,1.04-.97,2.39-1.86,3.06-7.13,5.45-14.99,3.69-21.91.48-9.56-4.43-17.74-5.97-26.84,1.48-5.83,4.77-13.39,2.55-19.74-.59-9.29-4.6-18.69-5.8-28.89-3.78-12.23,2.43-24.53.56-36.77-.79-.39-.04-.76-.29-1.14-.45.37-.14.74-.35,1.12-.39,4.06-.47,8.12-.92,10.87-1.23Z"/><path class="cls-1" d="M113.1,98.49c-4.54,28.26-9.65,58.27-14.14,88.37-7.47,50.03-13.3,100.34-26.41,149.37-.3,1.14-.72,2.25-1.08,3.38.23-1.11.42-2.23.69-3.32,13.93-54.87,19.72-111.04,26.88-167,2.91-22.77,6.64-45.43,10.04-68.14.24-1.63.64-3.26,1.22-4.81.66-1.78,1.59-3.47,2.4-5.2.1,1.83.2,3.65.41,7.35Z"/><path class="cls-1" d="M241.39,82.69c4.42.15,6.63,3.32,8.12,6.7,1.31,2.97.93,6.04-3.03,7.22-.09.03-.15.66-.03.75,5.88,4.54,5.35,10.62-1.18,13.77-.3.15-.56.59-.64.95-.64,2.7-2.04,5.85-4.89,4.71-3.08-1.24-7.87-1.42-8.16-6.54-.03-.52-.18-1.03-.27-1.55-.46.32-.96.61-1.38.97-10.34,9.05-14.98,21.37-19.6,33.76-.97,2.6-2.75,4.9-4.16,7.34.55-2.49.94-5.02,1.66-7.46,3.99-13.46,10.48-25.5,20.67-35.33,1.06-1.02,1.71-1.81.61-3.17-.31-.38-.27-1.05-.4-1.58.41.23.82.47,1.24.68.54.26,1.1.5,1.65.75.27-.88.75-1.77.71-2.64-.02-.39-1.07-1.05-1.65-1.05-1.71.02-2.78-.66-3.18-2.29-.46-1.83-.01-3.52,1.45-4.67.61-.48,1.67-.39,2.53-.56-.31.44-.85.87-.87,1.33-.07,1.17-.36,2.72.24,3.47,2.42,3.04,5.35,3.09,8.36.69-.73-.5-1.43-1.38-2.2-1.44-2.19-.17-3.65-1.15-3.95-3.26-.3-2.09,1.08-3.48,2.76-4.5.22-.13.8-.12.83-.02,2.19,5.65,3.08,6.02,8.69,3.32.57-.27.98-1.19,1.11-1.88.05-.24-1-.64-1.48-1.05-.63-.54-1.73-1.22-1.68-1.75.16-1.75-.74-2.3-2.13-2.62-1.67-.39-3.29-.55-4.6.87-.29.31-.48.7-.72,1.05-.12-.54-.46-1.14-.33-1.61.85-3.01,3.45-3.03,5.89-3.36Z"/><path class="cls-1" d="M201.02,120.25c.42-.37.83-.74,1.25-1.1.12.6.43,1.24.31,1.79-.92,4.17-.09,7.83,2.93,10.91,1.11-3.01,2.49-5.96,3.27-9.05.78-3.09,3.51-5.7,2.38-9.27-.13,0-.26,0-.38,0,.13.01.26.03.38.04-1.99-6.02-2.29-12.28.28-17.95,2.42-5.35,2.17-10.65,2.12-16.12,0-.47.4-.94.61-1.4.23.43.51.85.69,1.3.25.67.24,1.81.67,1.99,7.63,3.26-.27,5.7-.53,8.47-.54,5.72-1.76,11.36-2.57,17.06-.3,2.1-.22,4.26-.31,6.39.92-1.78,1.99-3.5,2.74-5.35,2.38-5.88,7.45-10.87,5.99-18.06-.12-.57.64-1.32,1-1.98.16.67.32,1.34.47,2.01.19.85.37,1.71.56,2.56.52-.76,1.04-1.52,1.56-2.29,6.7-10.06,13.41-20.11,20.1-30.17,1.52-2.29,3.36-4.44-.73-6.36-1.78-.84-2.61-2.99-2.39-5.2,1,1.03,1.94,2.12,3.01,3.07,1,.89,2.12,1.62,3.19,2.43.79-2.03-.39-2.75-2.08-3.15-.1-.02-.16-.24-.24-.37.62-.15,1.24-.39,1.86-.42,1.49-.08,2.57.67,2.88,2.09.99,4.42-1.36,7.83-3.78,11.05-9.79,13-19.35,26.14-26.63,40.78-6.45,12.96-11.06,26.53-13.95,40.7-.06.28-.21.55-.32.82-.16-.23-.47-.46-.46-.68.25-6.64-.43-12.84-5.53-18.03-.81-.83,1.06-4.29,1.69-6.54l-.03.05Z"/><path class="cls-1" d="M243.21,208.48c9.78-11.29,23.35-17.61,34.85-26.65,4.82-3.79,6.71-9.72,8.28-15.32,7.02-25.02,6.48-50.48,3.54-75.98-.39-3.35-2.52-6.51-3.86-9.75-.25-.59-.59-1.15-.89-1.72.65.28,1.34.48,1.93.85,4.19,2.63,6.34,6.75,6.54,11.38,1.08,24.52,1.64,49.01-3.8,73.24-2.11,9.37-8.26,15.8-14.84,21.69-8.98,8.05-18.77,15.2-29.2,21.36-.76.45-1.73.55-2.6.81l.06.07Z"/><path class="cls-1" d="M324.54,475.04c-9.24-1.76-18.55.29-26.83,8.69-6.47,6.56-35.29,6.68-42.52,1.52-.16-.11-.28-.27-.42-.4.47-.09.94-.22,1.41-.26,10.07-.72,20.07,2.24,30.15.57,4.14-.69,8.26-1.94,10.95-5.14,6.72-8,15.42-9.49,25.12-8.92,7.33.43,14.67.48,21.94-1.05,6.6-1.39,10.39-4.97,10-12.09-.02-.45.14-.91.22-1.37.3.37.7.69.88,1.1,2.94,6.8,1.12,11.89-5.77,14.69-7.53,3.06-15.54,2.57-25.13,2.64Z"/><path class="cls-1" d="M252.41,347.93c.44,1.63.64,2.32.81,3,7.58,30.41,13.94,61.26,31.55,88.09,7.37,11.24,17.06,20.16,27.61,28.27.6.46,1.05,1.12,1.57,1.69-.81-.12-1.7-.07-2.41-.39-15.75-7.31-25.58-20.46-33.6-35.04-14.33-26.03-20.35-54.71-25.53-83.59-.06-.35,0-.72,0-2.03Z"/><path class="cls-1" d="M208.6,187.86c-1.23-.15-1.57-.19-1.91-.23.34-.32.64-.73,1.04-.95,12.2-6.58,24.53-12.92,36.57-19.78,10.53-6,16.88-14.71,16.01-27.62-.17-2.53.96-5.19,1.73-7.72.34-1.1,1.3-2,1.98-2.99-.03,1-.08,1.99-.09,2.99,0,.34.11.67.17,1.01.4-.25.79-.52,1.2-.76,3.24-1.89,6.49-3.78,9.73-5.66-2.38,2.45-4.78,4.89-7.12,7.37-1.37,1.45-3.12,2.78-3.86,4.52-.68,1.6-.24,3.67-.29,5.54,1.33-.77,2.58-1.78,4.01-2.25,2.7-.9,5.51-1.48,8.28-2.2-2.08,1.52-4.26,2.93-6.2,4.61-2.15,1.86-6.24,1.1-6.8,5.06,2.17-.93,4.26-2.2,6.53-2.67,1.94-.41,4.08.09,6.13.19-1.53.67-3.01,1.5-4.6,1.98-7.77,2.32-12.53,8.25-17.68,13.99-10.07,11.21-24.54,15.46-37.21,22.54-2.59,1.45-5.55,2.24-7.62,3.06Z"/><path class="cls-1" d="M129.25,172.23c.12-.96.39-3.05.66-5.15.72,1.98,1.45,3.95,2.17,5.93.84,2.3.8,5.07,3.48,6.36-.79-1.74-1.73-3.43-2.31-5.24-.49-1.54-.56-3.22-.82-4.84,1.24,1.41,2.34,3.02,3.78,4.18,1.04.83.69,4.1,3.12,2.41,2.43-1.69-1.09-2.13-1.2-3.48-.09-1.08-.71-2.12-1.1-3.17.86.75,1.7,1.52,2.6,2.22.35.27.82.39,1.23.57.35-1.21.69-2.43,1.04-3.64.36,1.29.78,2.57,1.07,3.88,5.59,25.18,8.59,50.92,16.24,75.65.08.26.05.56.08.84-.41-.45-.94-.83-1.21-1.35-6.92-13.47-8.78-28.36-11.91-42.88-1.64-7.59-2.84-15.27-4.24-22.92-.2-1.1-.37-1.92-1.89-1.11-7.02,3.73-10.83,1.18-10.77-8.27Z"/><path class="cls-1" d="M258.98,248.49c7.77.14,15.6,1.14,23.18-1.3,2.37-.76,2.77-1.83,2.07-4.45-3.97-14.91-7.71-29.89-11.26-44.91-.66-2.8.01-5.87,1.7-8.48.35,2.38.74,4.76,1.05,7.14,1.78,14,8.82,26.26,12.98,39.47.62,1.96.62,4.11.9,6.17-.96-1.75-1.96-3.47-2.87-5.24-.92-1.78-1.75-3.6-2.63-5.4.37,1.91.73,3.83,1.12,5.73,2.02,9.89-.31,13.38-10.52,13.68-12.27.37-24.54,2.63-36.84.47-.62-.11-1.21-.38-1.81-.58.62-.23,1.23-.61,1.87-.66,7.01-.58,14.03-1.1,21.05-1.64Z"/><path class="cls-1" d="M139.02,360.54c-3.13,38.23-10.94,75.1-22.75,111.13-1.07,3.26-3.28,6.14-4.96,9.19.5-3.12.53-6.4,1.56-9.33,12.56-35.58,19.84-72.36,25.41-109.55.11-.76.42-1.49.64-2.24.05.4.1.8.1.8Z"/><path class="cls-1" d="M100.39,239.44c-1.61,35.48-10.76,68.91-26.07,100.77-.93,1.94-2.13,3.76-3.31,5.56-.72,1.1-1.66,2.06-2.5,3.08.49-1.23.86-2.52,1.49-3.68,17.35-31.95,25.35-66.29,26.47-102.45.15-4.93,1.16-9.83,1.8-14.75.06-.43.38-.83.58-1.25.17.45.44.88.49,1.34.38,3.79.71,7.57,1.06,11.36Z"/><path class="cls-1" d="M120.93,178.97c-4.51,42.26-7.57,84.7-23.2,124.82-.2.52-.49,1-.74,1.5.01-.27-.04-.56.05-.8,14.16-38.32,16.72-78.6,20.01-118.75.19-2.36.44-4.74.96-7.04.52-2.32,1.42-4.56,2.15-6.84.26,2.38.52,4.77.78,7.12Z"/><path class="cls-1" d="M134.13,232.76c-3.05,16.67-10.03,32.88-16.68,49.16-9.92,24.29-22.03,47.48-36.28,69.52-.31.48-.69.9-1.04,1.36.2-.56.29-1.18.6-1.68,21.08-33.95,36.87-70.23,47.73-108.68,1.05-3.72,2.7-7.27,4.13-10.87.26-.66.84-1.19,1.28-1.78.06.7.13,1.4.27,2.97Z"/><path class="cls-1" d="M214.39,480.01c-.45,1.57-.55,1.93-.65,2.29-.28-.4-.61-.78-.84-1.21-7.72-14.27-9.08-30.08-10.48-45.74-1.35-15.11-1.74-30.3-2.53-45.46-.03-.52.19-1.05.29-1.58.09.26.25.51.27.77,3.09,30.91,4.63,62.04,13.93,90.92Z"/><path class="cls-1" d="M138.93,128.23c-1.02,0-1.98.21-2.78-.05-1.07-.35-2.14-.94-2.98-1.68-1.59-1.39-2.32-3.11-1.16-5.18.59.82,1.09,1.73,1.79,2.44,1,1.02,2.14,1.9,3.22,2.84,0-1.13-.32-2.4.1-3.35.86-1.93,2.04-3.73,3.25-5.46.49-.71,1.43-1.1,2.17-1.64-.15.73-.32,1.45-.44,2.18-.08.52-.1,1.05-.15,1.58.34-.45.68-.9,1.02-1.35.63-.85,1.27-1.7,1.9-2.55-.11,1.07-.11,2.17-.36,3.2-1.75,7.12-3.1,14.24-3.56,21.65-.36,5.78,4.24,13.56-4.96,16.98-1.05.39-1.87,1.43-2.79,2.17.54-1.49.92-3.06,1.66-4.44.9-1.67,2.2-3.12,3.13-4.79.25-.45-.24-1.31-.38-1.98-.44.34-.89.68-1.33,1.04-.82.67-1.64,1.35-2.45,2.03-.05-.19-.2-.45-.13-.54.79-1.06,1.59-2.13,2.46-3.13.4-.46.98-.76,1.43-1.17.06-.05-.12-.37-.19-.56-.51.33-1.03.64-1.53,1-.86.61-1.69,1.25-2.54,1.88.41-1.1.6-2.37,1.27-3.28,1.77-2.38,2.92-4.94,2.98-7.92,0-.42-.22-.84-.34-1.25-.53.36-1.06.73-1.59,1.09.23.2.51.38.69.62.12.16.2.54.12.63-1.75,1.68-3.53,3.33-5.3,4.99.21-.85.15-1.92.66-2.5,3.3-3.81,5.93-7.93,7.12-13.47Z"/><path class="cls-1" d="M244.59,405.07c.55,1.55.82,2.2,1.01,2.87,4.43,15.83,5.87,32.47,12.55,47.68,2.97,6.76,6.65,13.21,9.99,19.81.24.48.32,1.05.48,1.57-.47-.28-1.02-.48-1.41-.85-11.54-10.54-14.95-24.96-18.1-39.27-2.16-9.8-3.06-19.87-4.51-29.82-.05-.36,0-.72,0-1.99Z"/><path class="cls-1" d="M243.15,208.41c-5.34,4.49-10.52,9.2-16.1,13.37-2.2,1.65-3.97-.83-4.78-2.66-2.66-6.04-4.96-12.23-7.55-18.3-1.86-4.35-4.52-8.17-8.39-11.03-.67-.49-1.32-1.01-1.97-1.52.96.08,1.97-.01,2.86.26,7.1,2.19,9.01,8.51,11.41,14.44,1.56,3.86,3.02,7.77,4.89,11.48.72,1.42,1.48,4.36,3.37,3.47,1.49-.71,5.68-1.54,3.12-5.35-.17-.25.25-.89.4-1.35.25.25.46.61.76.73.41.17,1.16.36,1.29.19.69-.91,1.47-1.87,1.76-2.94.45-1.66,1.03-3.2,2.95-3.09,1.84.11,1.2,2.12,1.82,3.02,1.32,1.93,2.73-.7,4.23-.65,0,0-.06-.07-.06-.07Z"/><path class="cls-1" d="M209.17,203.1c.07-4.36-.21-7.48-2.45-10.07-.18-.21-.23-.54-.34-.81.47.11,1.03.11,1.4.36,5.98,4.07,4.86,10.11,3.66,15.64-1.12,5.13.16,6.43,4.98,5,.53-.16,1.14,0,1.72.01-.46.31-.93.91-1.38.89-3.12-.12-9.16,8.32-8.57-2.85-.62.01-1.3-.15-1.84.06-7.93,2.99-15.81,6.11-23.77,9.01-1.98.72-4.22.98-6.35,1.02-2.47.04-5.18.09-6.31-2.94,1.34.21,2.7.71,4.01.59,10.17-.92,19.23-5.76,28.89-8.31,5.63-1.49,6.93-3.86,6.36-7.6Z"/><path class="cls-1" d="M97.82,448.38c5.22-17.08,10.86-35.02,18.05-52.44.1-.24.37-.4.56-.59.02.26.11.54.06.78-3.81,18.41-8.9,36.42-17.24,53.37-.22.45-.72.78-1.09,1.16-.06-.4-.12-.8-.35-2.28Z"/><path class="cls-1" d="M162.9,321.24c-.16-6.22.63-12.21,4.47-17.41.29-.39.69-.69,1.04-1.03,0,.45.1.92-.01,1.34-7.9,29.86,1.27,53.59,25.73,71.86.48.36.86.86,1.29,1.29-.54-.27-1.13-.47-1.62-.82-19.06-13.51-30.9-31.06-30.89-55.23Z"/><path class="cls-1" d="M137.88,74.23c-.5,6.1-5.07,7.15-8.98,7.39-3.95.24-4.5-2.93-3.58-6.5.26-1.02-.9-2.7-1.83-3.68-1.65-1.73-2.46-3.73-1.9-5.88.48-1.85,1.74-3.49,2.66-5.23-.07,1.55-.22,3.11-.18,4.66.05,1.92.26,3.83.4,5.75.87-1.04,1.61-2.22,2.63-3.08,1.94-1.64,4.33-2.32,6.63-1.1,3.2,1.69,2.48,5.59,4.14,7.68Z"/><path class="cls-1" d="M203.43,160.93c-.88,7.26-2,16.45-3.13,25.65-.03.21-.17.41-.26.62-.26-.42-.62-.8-.76-1.26-2.05-6.39-.47-12.71.63-18.98,2.03-11.49-.39-21.13-10.72-27.79-.24-.16-.4-.45-.59-.68.55-.03,1.12-.16,1.66-.08,8.15,1.18,13.26,9.17,13.17,22.52Z"/><path class="cls-1" d="M163.14,184.87c3.25-15.98,3.51-33,9.27-49.01.31-.85.89-1.6,1.34-2.39-.03.86.09,1.74-.1,2.56-3.77,16.37-2.94,33.58-9.07,49.51-.2.51-.61.93-.92,1.39-.13-.5-.25-1-.52-2.06Z"/><path class="cls-1" d="M174.03,114.7c1.01-7.89,1.75-14.46,2.77-20.99.25-1.61,1.27-3.2,2.25-4.59,1.19-1.68,2.89-2.8,5.09-2.82-.8,1.05-2.03,2-2.33,3.18-3.61,14.21-8.91,28.54,2.17,42.04.8.97.91,2.5,1.35,3.76-1.03-.94-2.21-1.75-3.06-2.83-4.47-5.61-6.38-12.33-8.24-17.75Z"/><path class="cls-1" d="M177.72,310.47c.24-.74.85-2.61,1.45-4.48.27,1.57.6,3.13.82,4.7,3.77,27.01,14.69,49.39,40.3,62.26.21.1.35.34.52.52-.26-.04-.54-.03-.79-.13-20.99-7.83-42.31-38.89-42.31-62.88Z"/><path class="cls-1" d="M121.4,76.27c-4.64-5.68-5-11.85-.93-17.71,6.83-9.83,16.5-14.84,28.55-15.03.54,0,1.08.19,1.62.29-.5.3-.96.7-1.5.89-3.85,1.4-7.74,2.68-11.56,4.14-13.86,5.3-17.22,11.01-16.26,27.48l.07-.07Z"/><path class="cls-1" d="M166.8,197.36c1.22-4.03,4.91-4.59,8.15-5.78.37-.14,1.01-.59.99-.62-1.51-2.93-1.45-3.09,2.15-4.86,8.15-4.01,15.94-5.08,22.6,2.83.19.23.39.46.59.69-.9-.11-1.99.07-2.66-.37-6.08-4.04-12.33-3.77-18.71-.93-.76.34-1.41.94-2.12,1.41.96.15,1.92.44,2.87.41,1.58-.04,3.16-.28,4.74-.43-1.32.96-2.51,2.29-3.98,2.82-4.83,1.75-9.77,3.21-14.66,4.78,0,0,.05.04.05.04Z"/><path class="cls-1" d="M173.22,338.89c.15-.53.58-2.09,1.02-3.66.35,1.36.67,2.73,1.06,4.09,4.3,15.03,13.2,27.19,23.93,38.19.32.32.55.73.82,1.09-.18-.05-.37-.09-.55-.16-8.96-3.62-26.19-28.82-26.29-39.54Z"/><path class="cls-1" d="M132.72,112.87c-.22-5.04-.71-10.22,7.27-8.24,1.58.39,1.02-1.33,1.22-2.18.25-1.1.4-2.23.6-3.34.14.08.4.16.4.24.04,1.4.09,2.79.04,4.19-.02.56-.53,1.19-.37,1.63.14.38.91.52,1.4.76.09-.69.15-1.37.26-2.05.18-1.07.41-2.14.61-3.21.32,1.13,1.15,2.43.85,3.37-1.18,3.79-2.48,7.59-4.21,11.15-.97,2-3.17,2.98-5.55,2.26-2.22-.66-2.44-2.58-2.52-4.58Z"/><path class="cls-1" d="M158.51,90.07c-4.38-.43-7.42-1.93-9.41-5.23-.43-.71-.87-1.41-1.3-2.12-1.15,1-3.29.91-3.31,3.19,0,.9-.38,1.83-.73,2.7-.81,1.99-2.15,3.39-4.44,3.59.6-1.09,1.2-2.18,1.8-3.26,3.75-6.81-3.2-3.34-4.84-4.97-.65-.65-1.71-.89-2.58-1.32.89-.09,1.77-.2,2.66-.26,5.63-.33,10.79-1.78,14.7-6.19.22-.25.52-.42.78-.63-.03.34.03.72-.09,1.03-3.67,9.1,4.31,9.18,9.08,11.74.23.12.5.18.75.27-1.19.57-2.37,1.14-3.06,1.48Z"/><path class="cls-1" d="M201.06,120.2c-2.31,2.86-3.44,1.2-3.97-1.21-2.88-13.25-.32-26.51.11-39.76,0-.21.26-.42.4-.63.26.5.6.97.78,1.5,2.79,8.42.04,16.86.13,25.3.05,4.31.19,8.62.24,12.93.02,1.57.68,2.26,2.27,1.93,0,0,.04-.06.04-.06Z"/><path class="cls-1" d="M261.97,128.71c-.59.75-1.23,2.36-2.11,2.5-1.37.22-3.35-.07-4.3-.96-4.65-4.36-5.23-10.68-7.31-16.29.51-.09,1.08-.38,1.53-.25,7.38,2.02,10.76,7.36,12.18,15Z"/><path class="cls-1" d="M129.43,98.29c.26.84.53,1.68.79,2.52-.86-.49-1.73-.98-2.59-1.47-.3-.17-.59-.34-.88-.51.02.34-.03.71.07,1.03,1.02,3.03-1.14,6.75,1.98,9.34.03.03-.14.38-.16.37-.86-.25-2.01-.25-2.53-.83-2.62-2.9-1.8-6.34-1.03-9.63.65-2.8.18-4.49-2.65-6.07-8.8-4.88-6.21-10.84-1.03-16.78,0,0-.07.07-.07.07,1.59.37.42,1.19.21,1.73-1.85,4.85-2.21,9.47,1.76,13.58.88.91,1.49,2.12,2.16-.11.11-.37.72-.6,1.09-.89,0,.58-.19,1.23.03,1.72.88,2,1.88,3.96,2.84,5.93-.1-.1-.19-.2-.29-.3.1.1.19.19.29.29Z"/><path class="cls-1" d="M124.46,151.77c.83-7.06,2.63-14.64,9.85-19.63.49-.34,1.12-.47,1.69-.7-.27.47-.5.97-.83,1.41-6.91,9.15-9.83,19.09-5.96,30.36.09.25.11.52.17.79-.29-.14-.64-.21-.86-.42-3.05-2.96-4-6.71-4.06-11.8Z"/><path class="cls-1" d="M259.71,62.9c-1.5,6-6.45,10.54-10.62,15.57-.12.14-.36.18-.55.27.01-.35-.07-.73.05-1.04.83-2.06,1.23-4.53,2.64-6.08,5.67-6.29,5.93-12.7,1.32-19.58-.29-.43-.25-1.08-.37-1.63.45.39.95.73,1.34,1.17,2.73,3.1,5.98,5.91,6.19,11.32Z"/><path class="cls-1" d="M150.77,105.23c.95,2.13,4.04-2.78,5.98-1.83.74.36,1.78.11,2.69.14-.67.43-1.36.83-2.01,1.3-2.87,2.04-5.7,4.11-8.59,6.12-1.17.81-2.44,1.48-3.66,2.21.3-1.49.36-3.08.95-4.45,1.58-3.73,2.63-7.29-.37-10.88-.98-1.17-1.56-2.67-2.33-4.01,1.21.72,2.42,1.43,3.62,2.17,2.32,1.42,3.59,3.46,3.71,9.24Z"/><path class="cls-1" d="M231.11,134.33c.26-7.18,3.96-12.27,9.77-16.06.33-.22.78-.26,1.17-.39-.17.4-.29.84-.53,1.19-2.9,4.16-6.75,7.76-7.77,13.01-.22,1.13-.03,2.35-.03,3.52.84-.82,1.85-1.52,2.49-2.47,1.26-1.86,2.33-3.86,3.47-5.81-.7,2.95-1.12,6.01-2.21,8.82-.68,1.76-2.49,3.31-4.67,2.65-2.09-.63-1.58-2.78-1.7-4.46Z"/><path class="cls-1" d="M211.17,113.52c-.73-.2-1.64-.18-2.17-.62-6.54-5.49-8.94-22.75-4.19-29.75.31-.45.74-.81,1.12-1.21-.01.53.03,1.08-.05,1.6-1.63,10.61-.96,20.82,5.28,30.04,0-.01,0-.05,0-.05Z"/><path class="cls-1" d="M240.64,53.67c-1.87,9.67-9.87,13.78-17.5,18.24-1.06.62-2.23,1.03-3.35,1.54.82-.99,1.58-2.04,2.48-2.95,5.87-5.94,13.34-10.31,17.53-17.9.11-.2.41-.29.62-.44.06.41.12.82.21,1.52Z"/><path class="cls-1" d="M282.25,77.19c-8.15-1.78-16.03-4.38-21.16-11.94-.32-.47-.3-1.18-.43-1.78.47.3.92.62,1.4.89,6.89,3.85,13.8,7.69,20.69,11.54.43.24.8.6,1.2.9-.47.11-.94.21-1.7.38Z"/><path class="cls-1" d="M249.87,131.06c-.12,9.54-2.48,16.14-5.41,22.59-.11.25-.34.45-.52.67,0-.32-.06-.65.03-.95,2.91-10.2,3.99-20.54,2.4-31.1-.08-.56.15-1.18.24-1.76.33.52.82,1.01.98,1.58.99,3.71,1.9,7.44,2.29,8.98Z"/><path class="cls-1" d="M221.01,379.52c-8.86-.26-15.9-3.36-21.01-10.33-.37-.5-.6-1.1-.9-1.66.55.24,1.15.4,1.65.72,7.1,4.46,14.4,8.46,22.68,10.29.32.07.6.3.9.45-1.23.2-2.46.4-3.33.54Z"/><path class="cls-1" d="M158.11,60.42c-.13.96-.21,2.26-.47,3.52-.83,4.03-2.55,7.6-5.62,10.42.74-2.91,1.62-5.79,2.18-8.73,1.05-5.53,1.03-11-1.62-16.18-.14-.27-.12-.62-.17-.94.31.17.65.3.93.52,3.68,2.78,4.54,6.78,4.77,11.39Z"/><path class="cls-1" d="M224.87,72.05c3.45,0,5.47,1.32,7.33,2.97.19.17.21.53.31.8-6.37-1.16-4.74,6.28-8.51,7.93-.6.26-1.1.77-1.65,1.16.09-.69,0-1.48.31-2.07,1.77-3.45,7.72-8.92-3.06-6-.35.09-.89-.13-1.21-.39-1.23-.99-2.41-2.05-3.61-3.08,1.33.42,2.63,1.06,3.99,1.23,2.25.27,4.53.25,6.8.33.12,0,.26-.21.38-.32-.32-.14-.62-.33-.95-.42-1.01-.29-2.04-.56-3.06-.83,1.2-.55,2.4-1.09,2.92-1.33Z"/><path class="cls-1" d="M222.1,41.84c-.1,2.79-.34,5.14-2.45,6.78-.05-1.48.48-3.46-.27-4.35-2.44-2.88,1.48-11.28-7.31-8.68.1-.57.04-1.25.34-1.68,1.18-1.67,2.92-2.24,4.76-1.48,4.38,1.82,4.43,5.93,4.93,9.41Z"/><path class="cls-1" d="M267.35,95.88c1.89-8.14,5.02-15.33,14.03-17.96.33-.1.7-.08,1.05-.12-.16.26-.27.58-.49.76-5.98,4.75-10.18,10.9-13.79,17.52-.16.3-.39.56-.58.83-.07-.31-.13-.62-.22-1.03Z"/><path class="cls-1" d="M200.09,38.01c-1.94-.2-2.74-.23-3.51-.37-3.57-.67-6.41-2.4-8.07-5.76,2.25.74,4.47,1.55,6.75,2.18,1.65.46,3.36.76,5.05.99,2.11.29,4.25.44,6.37.65-2.52.88-5.05,1.77-6.59,2.31Z"/><path class="cls-1" d="M152.45,58.66c-1.77,4.07-.88,9.17-5.26,12.12-.33.22-.73.33-1.1.5,0-.2-.06-.42,0-.6,1.41-4.54,2.82-9.08,4.27-13.62.23-.71.62-1.38.93-2.06.37,1.17.74,2.35,1.15,3.67Z"/><path class="cls-1" d="M184.62,72.57c-.43-1.2-.8-2.23-1.17-3.25-.89.7.45-6.08-1.9-.57-.04.08-.61.04-.62.01-.09-.76-.46-1.7-.14-2.25,1.22-2.15,2.45-4.21,1.28-6.79.23-.07.53-.27.7-.2,4.16,1.94.09,8.84,5.91,9.8-.85.68-1.7,1.36-4.06,3.24Z"/><path class="cls-1" d="M167.75,62.05c0,1.14.02,1.43,0,1.72-.28,2.93-1.55,5.33-3.88,7.15.28-1.86.61-3.71.82-5.57.14-1.28.14-2.58.12-3.87-.04-2-.14-4-.22-6,2.33,1.94,3.04,4.57,3.17,6.58Z"/><path class="cls-1" d="M205.77,79.79c-3.21-.08-4.69-1.45-5.55-3.65,1.1.23,2.23.75,3.29.63,1.74-.18,3.49-.62,5.13-1.24,1.56-.58,2.99-1.53,4.48-2.32-1.29,1.68-2.4,3.55-3.94,4.97-1.03.95-2.65,1.26-3.41,1.6Z"/><path class="cls-1" d="M136.24,167.58c-1.09-.52-2.8-1.32-4.5-2.13,1.54-.17,3.09-.32,4.63-.52,1.76-.23,4.26.35,4.71-1.91.47-2.39-1.68-2.75-3.61-2.8-.18,0-.36-.25-.54-.39.61-.34,1.27-1.03,1.81-.94,1.08.18,2.76.55,3,1.25,1.43,4.22.15,7-5.5,7.44Z"/><path class="cls-1" d="M174.63,148.52c-.16-.04-.6-.16-1.05-.28.34-.33.63-.75,1.04-.96,4.01-2.08,8.04-4.13,12.08-6.18.2-.1.46-.07.7-.1-.13.32-.21.68-.4.96-2.86,4.3-7.05,6.16-12.36,6.57Z"/><path class="cls-1" d="M261.3,117.34c.17-4.31.77-7.36,3.18-9.75.1.35.33.73.28,1.06-.68,4.53-1.4,9.06-2.11,13.59-.54-1.96-1.09-3.93-1.35-4.9Z"/><path class="cls-1" d="M219.32,54.6c-.03,4.8-1.48,8.08-3.22,11.25-.1.19-.35.3-.53.44-.01-.28-.07-.56-.04-.84.63-4.7,1.26-9.41,1.92-14.11.04-.32.26-.61.39-.91.61,1.71,1.22,3.42,1.48,4.16Z"/><path class="cls-1" d="M129.42,98.29c-.18-1.41-.54-2.83-.47-4.22.04-.8.78-1.56,1.21-2.34.08.72.15,1.45.24,2.17.04.33.11.93.21.94.71.08,1.49.22,2.13,0,1.64-.57,3.21-1.32,4.81-1.99-.97,1.05-2,2.04-2.89,3.15-1.36,1.72-2.58,3.62-5.25,2.29,0,0,0,0,0,0Z"/><path class="cls-1" d="M169.42,92.42c-1.25-.44-2.28-.63-3.11-1.13-1.48-.9-2.82-2.02-2.83-4.01,1.01.51,1.98,1.1,3.03,1.5,1.13.43,2.32.76,3.51.96,1.33.23,2.68.27,4.03.39-1.58.78-3.16,1.56-4.63,2.29Z"/><path class="cls-1" d="M173.34,50.12c.11-.23.3-.65.5-1.06,2.5,2.72,5,5.44,7.48,8.19,0,0-.4.5-.5.47-3.59-1.3-6.93-2.89-7.47-7.59Z"/><path class="cls-1" d="M133.45,119.61c-5.09-1.03-3.68-5.48-4.79-8.52-.05-.14.33-.59.37-.57,3.66,1.66,1.76,7.16,5.88,8.52-.52.21-1.04.41-1.46.58Z"/><path class="cls-1" d="M191.4,81.65c-.05,1.64-.9,2.69-2.43,3.16-.81.25-1.65.35-2.48.52.65-.81,1.45-1.54,1.88-2.45.26-.55.12-1.46-.16-2.06-.53-1.17-1.29-2.23-1.95-3.34.22.04.49,0,.66.12,1.68,1.14,4.33,1.22,4.49,4.04Z"/><path class="cls-1" d="M197.93,73.43c-.68.65-1,.98-1.02.96-3.46-2.95-5.52,2.8-8.71,1.39,2.15-1.59,5.52-2.53,3.42-6.39,2.01,1.29,4.02,2.58,6.31,4.04Z"/><path class="cls-1" d="M142.02,54.97c.61-3.91,2.97-6.34,6.12-8.19.1.18.33.46.27.53-2.01,2.9-4.04,5.78-6.07,8.66-.12-.37-.24-.73-.33-1.01Z"/><path class="cls-1" d="M180.04,63.93c-3.7-.35-6.43-1.41-7.44-4.94-.03-.1.4-.48.47-.45,2.87,1.57,5.73,3.17,8.58,4.76-.65.25-1.29.51-1.6.63Z"/><path class="cls-1" d="M241.23,173.15c3.13.21,5.45,1.15,7.14,3.36-.18.1-.4.33-.54.28-2.91-.93-5.8-1.88-8.7-2.83.82-.31,1.63-.63,2.1-.81Z"/><path class="cls-2" d="M224.91,253.65c-.61,7.36-.78,13.55-1.77,19.61-.42,2.55-5.84,2.31-4.83,6.52-5.29-.17-3.17,8.11-8.79,7.66-2.55-.2-4.04,3.5-4.19,3.85-2.69,6.38-10.7,1.5-13.63,6.66-.07.13-1.13-.07-1.51-.38-2.58-2.12-5.1-4.17-8.11-.64-.09.11-.21.19-.32.28-1.2-5.07-7.95-.59-8.98-4.87-1.48-6.14-8.12-1.56-10.91-6.18-2.47-4.1-5.26-7.55-3.24-12.29,2.08-4.89-3.41-6.34-3.85-9.51-1.03-7.35,6.9-8.55,10.36-12.92,3.78-4.77,7.88-9.88,13-12.78,3.27-1.85,6.29-7.7,11.79-4.07.35.23,1.06.57,1.11.51,3.09-4.28,7.25-3.27,10.79-1.45,3.7,1.91,8.79.78,11.29,5.16.32.56.51,1.62.86,1.67,7.04.94,6.96,8.11,10.57,12.02.49.53.46,1.54.35,1.14Z"/><path class="cls-2" d="M247.1,103.77c-.1,2.18.36,5.48-3.84,3.79-.21-.09-.67.23-.91.46-1.51,1.48-.12,5.64-1.96,5.05-2.35-.76-3.71-3.03-4.48-7.08"/><path class="cls-2" d="M131.53,70.82c-2.62,2.77,3.19,2.03,1.3,4.44-2.91-2.53-3.23,7.48-6.32,1.38-.45-.9-.23-6.03,3.89-6.51.28-.03.62.37,1.13.69Z"/><path class="cls-2" d="M134.39,106.52c.08-.03,1.08-.74,1.66-.49,1.54.67,2.9,1.75,4.33,2.67-1.12,1.63-2.24,3.27-3.36,4.9-.71-1.93-1.43-3.86-2.62-7.08Z"/><path class="cls-2" d="M259,127.71c-.18.26-.46.76-.51.74-.5-.23-1.14-.44-1.41-.86-2.4-3.81-4.74-7.66-7.09-11.51-.1-.16-.1-.39-.14-.58.17.01.38-.04.49.05,3.94,3.25,6.99,7.15,8.66,12.16Z"/><path class="cls-1" d="M204.65,245.47c1.13-1.7,3.29-1.85,3.94-.56,1.31,2.57,5.94,4,3.26,8.17-.31.48-.42,1.1-.62,1.66.5-.16,1.01-.47,1.5-.44,1.34.08,2.99-.13,3.96.56,2.46,1.74,5.67,3.68,4.26,7.3-.84,2.16-1.64,5.06-4.63,5.73-1.49.33-2.46-.5-3.04-1.82.62.03,1.38.3,1.81.03.55-.34,1.14-1.09,1.18-1.69.17-2.62,1.8-6.19-2.83-6.45-1.6-.09-1.21,2.48-1.92,3.3-3.67,4.22,3.93,7.01.92,11.65-2.11,3.25-2.91,6.74-7.68,6.67-.46,0-.7,2.36-1.48,3.22-3.73,4.09-6.6,8.1-14.14,5.2-3.22-1.24-8.97-1.45-13.63-1.42-2.35.01-3.26-2.39-2.93-4.72.11-.77.79-1.47,1.21-2.2.11.61.14,1.25.36,1.81.23.56.66,1.04,1.01,1.55,1.67-3.52,4.83,4.51,6.34-.81.08-.3.97-.4,1.5-.51.14-.03.51.32.49.41-.33,1.16-1.01,2.99.73,2.86,2.07-.16,4.07-1.44,6.05-2.35.53-.24.85-.91,1.27-1.39,0,.53-.09,1.07.02,1.57.24,1.13.57,2.23.87,3.35.6-.77,1.09-1.66,1.82-2.28,1.94-1.63,5.57.13,6.69-3.28.19-.58.47-1.12.71-1.68-.54-.17-1.15-.58-1.61-.46-9.1,2.37-13.41-1.66-11.16-10.63.38-1.5.92-2.07-1.3-1.96-1.18.06-3-1.16-3.56-2.28-1.58-3.17-2.64-6.61-3.97-9.91-.27-.66-.84-1.19-1.27-1.79-.45.42-.88.87-1.35,1.26-.66.56-1.3,1.23-2.07,1.53-.22.08-.87-.97-1.33-1.49-.25-.28-.48-.67-.79-.77-.18-.05-.76.44-.73.6.25,1.31.19,3.15,1.02,3.77,1.75,1.32,3.33,2.29,3.8,4.81.21,1.11,1.61-.25,2.09-.96.48-.72.65-1.64.96-2.48.27.49.86,1.07.75,1.46-.32,1.17-.8,2.34-1.43,3.37-.35.57-1.15.86-1.75,1.28,1.07.31,2.12.76,3.21.89,3.04.37,6.3.38,6.68,4.53.51,5.64,1.48,11.7-7.54,10.58-.49-.06-1.27-.03-1.42-.31-4.49-8.31-5.99,1.52-9.17,1.66-2.14.1-3.5-.13-4.5-1.81-1.09-1.84-1.42-3.79.2-5.58.12-.14.36-.17.55-.25-.26,10.8,4.21-2.03,5.49,1.1l.56-.67c-.94-.34-1.87-.75-2.83-1.01-.74-.2-1.52-.21-2.28-.3.63-.36,1.27-.68,1.87-1.08.26-.17.42-.5.63-.75-7.12-5.22-8.39-10.05.91-14.23.13-.06.22-.52.13-.67-1.52-2.62-2.31-5.73.88-7.05,3.19-1.32,6.57-.01,9.68,1.97.87.56,3.38-2.02,4.88-1.76,5.48.96,6.32-1.91,6.7-6.35.19-2.25,2.77-2.96,4.97-2.96,2.71,0,4.87,1.06,6.02,3.73.24.55.76.98,1.16,1.47-.17.62.26,1.08.42,1.61-.07-.55-.64-.96-.47-1.58Z"/><path class="cls-1" d="M189.55,246.28c-.25.35-.71,1.03-1.18,1.7-.11-.51-.14-1.06-.34-1.53-.18-.43-.54-1.07-.85-1.08-.44-.02-1.08.33-1.32.71-1.06,1.71-2.09,2.07-3.46.3-.26-.34-1.07-.66-1.34-.5-.4.23-.47.99-.84,1.37-.72.73,2.09,1.46.14,1.71-1.68.21-2.38-1.53-2.2-3.05.28-2.35,2.01-3.84,4.17-3.42,2.56.49,6.68-1.75,7.23,3.79Z"/><path class="cls-2" d="M200.09,258.71c-2.48,2.83,4.72,5.28-.03,7.32-1.63.7-4.64-1.77-7.01-2.8,3.98-1.83-.57-8.44,5.08-9.05.49-.05,1.3,2.95,1.96,4.53Z"/><path class="cls-2" d="M191.45,259.3c-3.79-.37-3.09,2.44-4.13,2.92-1.88.86-3.45-1.58-2.83-2.36,1.69-2.15-5.42-3-.67-4.21,1.84-.47,3.21-6.93,5.64-1.2.33.77,2.53,2.99,2,4.86Z"/><path class="cls-2" d="M182.39,268.53c.06.03.95.47,1.83.91-3.33,2.1,3.39,5.66-.98,7.31-1.31.5-3.21-.55-4.84-.88,1.02-2.47-4.82-7.73,3.98-7.34Z"/><path class="cls-2" d="M191.13,272.36c1.44-1.32-1.57-4.63,1.17-4.4,2,.17,6.89-.91,6.2,2.01-.45,1.91,2.16,4.52-.82,5.83-.55-4.12-6.12,1.28-6.55-3.45Z"/><path class="cls-2" d="M171.85,259.75c2.2,2.1,1.5,4.84,1.15,7.48-1.06-4.34-5.38,3.8-6.08-1.58-.14-1.12,1.28-2.7-1.15-2.86.95-2.54,3.34-2.29,6.08-3.04Z"/><path class="cls-2" d="M202.68,267.81c3.28-.04,6.01-2.53,6.47.66.42,2.95-.82,6.34-3.87,7.7-.95.42-.24-3.63-2.88-3.63,1.54-1.27-1.64-4.31.27-4.73Z"/><path class="cls-2" d="M201.09,253.63c2.06,2.42,5.04-2.22,6.1,1.07.62,1.91-.58,4.41-.96,6.64-2.88-.93-5.81-1.86-6.05-5.58-.04-.62.52-1.27.91-2.13Z"/><path class="cls-2" d="M199.82,246.43c-.5.54.78,2.69-.51,1.9-1.91-1.17-5.05,5.18-5.23-.92-.02-.79.65-3.97,3.36-3.72,1.55.14,2.94.54,2.39,2.74Z"/><path class="cls-2" d="M204.65,245.47c.89.6,2.84-.19,2.69,1.61-.09,1.14-.85,2.33-1.62,3.25-.3.35-1.44,0-2.2-.03.39-1.61.77-3.23,1.17-4.85,0,0-.04.02-.04.02Z"/></svg>