<?xml version="1.0" encoding="UTF-8"?><svg id="Layer_1" xmlns="http://www.w3.org/2000/svg" viewBox="0 0 440.16 469.97"><defs><style>.cls-1{fill:#e1bc68;stroke:#e1bc68;stroke-miterlimit:10;stroke-width:2px;}</style></defs><path class="cls-1" d="M30.04,377.79c2.98-5.81-3.55-7.6-4.56-12.08,4.25.74,7.21-1.77,11.12-3.92-12.36-12.55-12.58-28.45-13.64-44.7,12.1,9.3,28.34,7.78,40.85,18.72,0-14.31.13-26.91-.03-39.5-.17-13.51-.67-27.02-.92-40.53-.23-12.37,2.37-17.25,15.97-23.22,8.03-3.52,16.55-5.42,25.11-7.13,1.49-.3,2.95-.72,4.53-1.11,1.39-18.77.67-37.34.59-56.36-3.62,1.37-6.86,2.6-10.37,3.93-.37-11.09-2.4-21.79,1.76-32.33-4.86-2.19-9.84-1.24-15.01-3.02,4.72-3.31,7.9-7.18,10.51-11.96-5.08-3.49-9.81-7.26-15.37-9.64,4.4-10.57,12.14-16.72,22.6-19.64.23-5.38-3.06-9.16-5-13.58,8.04-3.53,15.83-6.88,25.77-4.08-2.79-9.58-2.98-18.34-3.44-27.43,9.3,4.09,20.29.3,28.25,8.36,2.49-3.51,3.55-7.06,6.34-9.31-2.65-11.8,5.94-20.84,6.6-33.19,6.54,10.72,17.12,16.07,21.48,26.86,2.73.22,5.37.44,8.34.68.07-22.38,15.05-32.52,33.7-41.51-4.76,10.26-1.7,19.67-.8,29.18.61,6.43-2.52,11.91-6.59,17.15,1.86,2.33,3.73,4.67,5.57,6.98,3.57.77,7.05,1.52,11.19,2.42,9.39-14.17,24.05-9.83,37.97-10.02-2.42,9.43-6.43,17.98-11.45,26.78,6.13,1.84,9.99,5.59,13.83,9.85-2.84,2.61-7.22,2.38-9.94,5.89,2.43,1.45,4.99,1.08,7.37,1.28,14.37,1.24,28.49,3.44,41.88,9.19,5.96,2.56,8.84,6.29,8.78,13.32-.2,21.21,1.4,42.4.88,63.63-.03,1.28-.41,2.7,1.16,4.68,7.91-13.61,22.36-16.52,35.57-22.94-1.97,13.16.29,26.65-9.99,37.65,5.02,1.24,7.36,4.43,7.45,8.12,2.92,2.93,5.21,5.22,7.89,7.91,9.15-1.09,18.69-.36,27.36,5.34-4.16,6.46-4.41,14.78-11.2,20.85,16.6,6.96,21.15,22.06,27.85,36.03-9.6,2.14-18.24,6.24-28.35,5.46,1.48,10.83-.15,21.07-1.2,31.41-1.84,1.12-3.17-.11-4.6-.98-1.24-.76-2-2.42-4.43-2.03-.61,11.92-.44,23.89.32,37.06,10.29-7.1,19.85-2.45,30.32-.48-6.34,4.77-5.29,12.48-9.62,18,3.96,2.61,7.14,5.62,9.19,9.63,1.06,2.06,3.19,2.47,5.02,3.31,4.65,2.14,9.56,3.81,13.98,6.36,12,6.91,20.35,21.72,18.21,32.54-2.26,11.42-10.73,17.83-20.19,23.08-19.59,10.85-41.2,15.54-62.87,19.59-39.95,7.46-80.36,10.37-120.95,10.6-43.47.24-86.87-1.36-130.09-6.19-25.24-2.82-49.93-8.62-73.24-18.76-9.65-4.2-19.76-8.79-25.99-18.4-6.88-10.62-5.76-23.8,2.67-33.42,6.04-6.9,13.74-11.1,21.88-14.39ZM199.74,47.96l-.1-.1c-.2,1.25-1.35,2.5.27,3.98,3.91-4.51,9.18-6.04,15.01-6.31,4.27-3.93,6.94-8.68,6.18-14.49-.92-7.15-3.27-14.14-.69-22.35-6.93,3.93-12.88,6.9-17.16,12.21-5.15,6.39-9.01,13.31-8.06,21.9.29,2.59.31,5.85,4.55,5.16ZM393.38,410.36c2.38-4.79,1.76-8.96-3.22-12.24,12.37,2.65,15.96.92,15.24-7.16-5.9-5.67-9.39-6.11-14.73-2.57-1.76,1.59.51,2.86-1.25,3.81-1.36.47-2.86.83-4.22,1.49-1.52.74-2.93,1.72-4.36,2.63-5.16,3.25-4.94,8.31.33,11.53,3.87,2.37,8.12,2.19,12.34,2.4-6.13,4.08-13.18,2.68-18.32-3.85-5.1,4.33-10.87,7.51-17.28,9.5-24.06,7.49-48.59,12.34-73.74,14.59-35.15,3.15-70.26,4.58-105.5,1.69-9.67-.79-19.27-2.02-28.39-3.34-1.31.98-.33,2.64-1.07,2.69-7.73-1.82-14.64-3.45-21.41-5.05-1.66,3.08.55,5.79-.55,8.88-9.72-1.37-18.69-4.3-26.1-11.11-6.58,11.77-23.96,12.46-29.09,1.56-6.56,1.45-13.27,2.83-19.07-2-2.77-2.3-5.57-2.85-8.99-2.41-5.21.67-10.38,2.21-15.73,1.03-1.37-.3-2-.66-.47-1.73.77.85,1.84,1.19,2.79.79,5.82-2.42,12.02-3.1,18.14-3.53.38-2.06,1.28-3.61.26-5.24-3.92.42-6.49,3.89-11.08,4.72,3.59-4.28,8.21-5.62,11.83-8.56-.15-2.22-.3-4.39-.45-6.53-2.13-.9-3.98-1.68-5.88-2.48-5.35,3.07-8.03,7.97-10.07,13.26-1.21,3.12-2.88,5.77-5.62,7.71,2.31-8.6,5.46-16.77,12.77-23.33-6.81-3.43-8.17-9.85-10.59-15.89-6.82,3.76-12.74,8.14-17.86,13.39-6.41,6.55-5.58,17.13,1.08,23.44,8.65,8.2,19.28,13,30.08,17.23,15.85,6.2,32.81,8.11,49.39,11.3,30.31,5.85,61.07,7.2,91.85,8.59,45.41,2.06,90.63-.64,135.81-4.47,25.98-2.2,51.15-8.85,76.3-15.39,11.63-3.03,22.03-8.41,30.56-17.03,7.03-7.11,7.78-15.21,1.58-23-6.89-8.65-16.92-12.14-26.6-15.74-1.51,1.56-2.23,2.64-1.83,4.36,3.96,2.3,8.95,4.08,7.59,10.4-1.11,5.18-4.72,8.18-10.9,9-1.01,2.26.07,5.74-3.54,6.65ZM124.41,403.83c.59,2.64,1.91,2.73,2.97,3.22,11.1,5.07,23.06,6.08,34.96,7.32,23.19,2.41,46.48,1.78,69.73,2.18,16.27.28,32.5-.85,48.68-1.91,20.3-1.34,40.21-5.82,60.02-10.51,9.31-2.2,18.13-5.55,26.83-10.49-2.98-2.23-6.86-2.19-8.68-6,4.7.19,7.92,3.89,12.05,2.82,4.18,5.48,4.56,5.63,8.76,3.08-5.58-7.71-16.09-7.26-22.67-13.49,3.06-1.61,6.23-2.04,8.36-3.86,2.01-29.67,1.68-59.01.79-87.98q-10.41-4.11-10.41-19.98c-6.81,7.37-17.71,6.02-22.12-3.33,4.21,2.52,7.95,4.84,12.51,4.96,4.95.12,7.26-2.51,6.57-7.39-.25-1.73-1.88-3.38-.54-5.28,8.05,1.55,13.1-.92,18.31-9.02-2.97-7.47-7.13-13.76-15.68-15.44-2.17,1.55-3.65,3.17-4.33,4.68-.42,6.63,4.57,13.48-2.05,18.52-5.58,4.24-12.4,3.85-19.16,2.5-1.31,5.08-.14,9.62.77,14.26-2.23-.41-1.89-2.77-3.65-3.26-2.52.67-5.11,1.72-7.78,1.99-15.14,1.53-30.28,3.27-45.46,4.18-30.59,1.82-61.23,1.82-91.83.26-16.73-.85-33.52-1.65-50.11-3.84-21.54-2.84-43.34-5.31-63.62-16.34,1.2,27.99,1.53,55.45,1.59,83.29,7.4-.18,14.33-.12,18.77,6.14,10.11,1.82,11.13,2.68,14.55,12.22,5.05.8,9.98,1.84,13.66,6.03,3.57,4.07,4.58,8.91,4.57,14.46,7.3-3.1,14.14-6.27,21.42-3.8.65,14.1-3.27,25.37-17.79,29.82ZM318.34,114.76c-43.49,12.04-87.17,9.15-131.08,9.74-6.54,10.75-18.06,13.08-30.07,15.92.83-6.85,2.25-12.95,2.2-19.62-10.54.4-20.47-1.6-31.37-2.44,7.34,7.6,9.24,16.69,5.78,24.77-2.46,5.73-7.3,10.03-9.77,16.12-1.49-10.02-4.98-19.38-5.13-29.99-5.4,5.42-8.52,10.63-5.33,17.77,1.19,2.67,1.33,5.63,1.27,8.57-.47,23.43-.93,46.85-1.37,70.28-.05,2.71-.31,5.49,1.25,8.76,55.02,14.79,110.93,15.49,167.36,9.96-5.89-2.85-12.42-4.49-15.99-10.46-3.35-5.6-3.1-12.11-4.7-18.15,3.01,1.85,3.12,1.82,4.88,8.98,2.92,11.84,14.22,20.31,27.03,11.29-2.54-2.88-6.24-1-9.46-2.45-1.3-3.16-5.77-3.27-8.26-7.33,5.59,2.11,9.64,5.52,16.3,6.04-4.69-4.08-6.91-8.44-9.04-12.12-5.45-2.85-11.63-.64-17.16-4.57,6.05-1.99,11.2.12,16.35-.13.77-4.83,2.25-8.83,6.59-11.28,4.28-2.41,8.8-1.74,13.61-1.22.28-11.37,5.01-19,16.92-20.86,1.37-22.75-1.19-45.06-.81-67.6ZM325.55,256.55c-10.9,10.55-17.36,10.72-31.41,1.21-3.99.88-8.11,2.04-12.31,2.66-28.54,4.26-57.21,4.25-85.96,2.72-26.51-1.41-52.82-3.89-78.48-11.15-13.57-3.83-15.89-6.57-17.2-20.15-14.02-.04-31.34,8.61-33.88,17.28,4.4,7.42,12.22,9.63,19.94,11.64,36.46,9.47,73.8,12.08,111.22,13.49,24.78.93,49.6.62,74.37-.89,15.87-.97,31.68-2.54,47.43-4.68,2.52-.34,5.15-.51,6.84-3.16.11-2.72.46-5.57-.54-8.96ZM435.04,411.44c-5.47,9.58-13.4,15.57-22.39,20.4-11.42,6.13-23.93,9.37-36.33,12.18-23.49,5.31-47.34,8.9-71.4,10.87-31.38,2.57-62.83,3.89-94.27,3.2-28.84-.63-57.73-.52-86.5-4.39-24.4-3.29-48.84-6.38-72.54-13.03-17.87-5.01-35.68-11.07-46.54-28.37-.24,5.1,2.58,10.59,7.94,14.74,8.83,6.83,18.32,12.55,28.9,16.3,20.56,7.29,41.9,11.38,63.43,13.91,47.78,5.63,95.76,8.2,143.88,6.23,33.47-1.37,66.93-3.31,99.99-9.11,21.39-3.75,42.67-8.12,62.58-17.27,9.54-4.38,17.26-10.96,22.45-20.26.84-1.51,1.8-2.94.79-5.39ZM264.29,86.86c-5.4-.61-9.61-.32-14.03.18-4.84,6.56-11.79,8.78-19.97,8.68,11.88,0,17.8,12.03,29.2,12.95-7.81,6.5-27.3,4.87-30.64-2.38,7.54,3.52,15.44,1.98,23.86,3.07q-19-10.86-23.73-9.91c-1.06,4.93-4.58,7.5-9.56,8.42-1.18.22-2.11.92-2.91,1.92-2.92,3.64-6.9,4.59-11.4,4.72-4.85.14-8.72-2.1-12.89-4.84-.67,4.14-1.24,7.75-1.87,11.66,3.62.16,7.02.42,10.42.45,32.51.35,65.01.39,97.25-4.63,6.75-1.05,13.93-1.59,19.54-6.49-.64-4.49-4.04-5.52-7.17-6.7-9.86-3.71-20.24-4.87-30.61-5.81-9.53-.86-19.12-1.02-28.67-1.7-2.07-.15-4.7.54-6.46-2.29,7.05-.69,13.53-1.83,19.66-7.32ZM145.49,423.89c18.87,1.91,37.4,4.09,56.05,4.53,20,.47,40.04,1.29,59.99-.87,17.5-1.89,35.03-3.79,52.4-6.63,14.63-2.39,29.44-4.33,43.49-9.57,5.92-2.2,11.85-4.36,16.17-9.03q.29-4.1-1.97-6.61c-13,7.61-26.98,12.87-41.8,15.85-24.36,4.9-48.97,7.46-73.79,8.67-38.18,1.85-76.21,1.26-114.05-4.71-.62-.1-1.34-.31-1.84.8,1.66,2.35,3.4,4.82,5.34,7.57ZM279.6,250c-5.59-.4-11.11.74-16.68,1.13-45.03,3.12-89.8,1.33-134.07-7.99-8.25-1.74-17.46-2.71-20.87-12.85-1.01.48-1.75.62-2.17,1.07-3.61,3.88-2.67,8.23,3.2,11.56,7.78,4.42,16.38,6.72,25.15,8.32,43.1,7.87,86.53,9.47,130.18,6.59,4.88-.32,9.87-.4,14.53-1.95.8-1.94,1.43-3.66.72-5.88ZM308.42,218.22c-1.9-3.06-3.37-5.55-4.96-7.97-3.72-5.68-11.78-6.8-15.87-2.33-2.89,3.16-1.5,6.76-1.27,10.25.5,7.45,6.75,11.61,9.92,16.92.68,3.04-.92,5.15-1.13,7.53-.29,3.38-.35,7.44,3.17,8.41,5.24,1.45,10.8,3.06,16.08,1.42,4-4.78,1.71-9.03.17-13.19-11.92-7.9-13.87-10.66-10.64-15.19,1.11,1.85.69,4.48,3.12,5.74.74-1.74,1.46-3.44,2.33-5.48-2-1.62-2.16-3.82-.91-6.1ZM59.31,354.13c-4.54-4.2-9.07-5.69-13.57-7.22-7.43-2.52-10.26-4.47-11.18-8.54,8.31,5.6,17.63,7.86,25.55,13.16,4.65-10.51,4.29-11.36-5.13-16.9-8.96-5.27-19.74-6.03-28.9-12.62,2.55,14.59,2.33,29.4,17.8,36.91,3.93-4.57,9.13-4.62,15.43-4.8ZM65.83,391.54c5.37-2.21,3.16-7.57,5.36-9.93-1.25-9.18-11.23-13.14-10.62-22.19-12.19-5-18.63,3.56-17.31,14.78,1.17,9.96,10.87,16.9,22.57,17.34ZM405.42,273.28c-4.68-8.31-8.59-16.83-15.05-23.77-5.48-5.87-11.81-7.98-17.23-5.5,1.06,2.4.91,5.01.48,7.52,4.6,1.6,9.5,0,14.57,3.52-4.82-.96-8.45-1.33-12.4-.7,1.34,6.24,8.31,6.69,11.43,11.83-3.76-1.36-6.72-2.43-9.61-3.48-3.9,5.47-.99,12.04,5.65,13.53,7.66,1.71,14.81-.03,22.16-2.95ZM322.6,215.59c3.14-4.13,5.01-8.4,6.82-12.59,1.88-.46,3.3-1.31,4.11-2.89-.18-10.55-6.87-13.56-12.7-13.68-8.97-.19-13.39,4.15-15.25,13.31-1.48,7.29,3.28,12.56,4.83,20.1,2.48-4.74,6.8-1.08,9.18-4.01-.95-4.74-3.9-8.96-4.06-14.57,4.24,4.02,2.79,10.19,7.06,14.34ZM82.31,362.15c-.02,4.74-1.73,8.22-.44,11.95,1.03.56,2.19,1.19,3.25,1.77q-.11,3.92,3.55,5.47c5.5-6.67.26-18.43,10.03-22.46.6-8.31-5.65-12.31-13.72-9.44-7.95,2.83-13.76,11.27-14.36,20.63-.23,3.49.81,6.27,3.67,8.64,1.73-.71,3.69-.41,5.16-1.72.14-4.74-.05-9.37,2.86-14.84ZM77.05,417.6c-.95,4.41-2.71,8.57,2.12,11.32,4,2.27,12.49,2.02,15.07-1.1,3.73-4.51,6.18-7.36,2.25-15.23-3.47-.73-6.94-1.46-10.49-2.21-1.05,2.44.23,5.52-2.41,7.44-.94-4.12,1.32-8.68-2.52-12.35-7.5,10.48-17.8,11.32-29.03,8.79,1.08,8.48,8.48,11.01,20.71,7.55,1.37-1.19,1.56-3.46,4.31-4.2ZM227.46,71.63c.19,1.87.3,3.73.59,5.56.3,1.95-.3,4.07.93,5.85,2.37.09,2.78-2.85,5.62-3.06-1.84,2.92-3.43,5.43-4.92,7.79,1.1,4.86,4.64,4.35,7.78,3.7,4.69-.97,9.61-2.11,10.41-8.12.87-6.56-1.87-11.63-7.4-14.04-.23-1.48,2.3-2.34.45-4.7-2.43-1.74-5.87-3.06-9.44-4.19-7.9-2.51-10.75-.44-10.99,8.34,2.26.93,4.58,1.88,6.99,2.87ZM83.65,402.47c1.54,4.29,4.5,5.99,8.19,6.8,7.59,1.67,18.18-1.56,18.74-6.77.92-8.49,4.95-15.94,6.5-24.12.89-4.71.38-6.59-2.24-9.84-.82,7.67-4.54,13.06-9.86,17.76-3.84,3.39-7.14,7.29-12.23,8.96-1.01.33-2.15,1.4-2.51,2.39-1.08,2.98-3.42,4.07-6.59,4.81ZM123.33,54.93c2.33,11.25.79,23.45,12.25,31.3.84-.3,2.24-.79,4.13-1.46-.96-2.79,1.42-5,1.27-7.89-3.26-2.65-8.52-3.33-8.98-10.49,3.17,5.26,8.35,5.41,10.99,8.88,3.45.09,4.98-3.11,7.9-3.04-2.33-16.59-15.47-15.41-27.56-17.3ZM347.1,182.1c-2.92,5.25-7.59,9.03-11.19,14.17,10.34.78,15.35-1.93,17.44-8.9,2.18-7.3,3.28-14.76,3.44-23.22-10.35,6.41-22.81,8.66-29.21,20.88,3.59,1.17,4.78,4.22,7.36,6.77,2.4-5.71,6.79-9.27,10.65-13.38-.53,1.84,1.08,2.62,1.5,3.69ZM117.36,90.92c4.7.9,7.23,4.47,10.9,5.27,1.7-.3,3.2-.57,4.22-1.83,1.68-12.47-9.93-17-30.98-11.8,3.77,3.39,4.07,8.23,6.19,12.26,4.89,9.33,10.74,10.18,18.16,2.51-2.05-2.68-5.63-3.44-8.49-6.41ZM269.14,52.35c-13.4-3.77-25.77-.48-30.08,7.64,1.98,2.02,5.6,2.17,6.21,5.43,4.12-1.06,6.22-5.8,11.73-5.34-3.62,3.66-8.15,4.3-10.69,8.18,3.87,3.42,1.85,9.49,6.36,13.51,6.82-9.2,10.79-19.5,16.47-29.42ZM113.63,418.85c-5.04-.96-6.66-9.26-13.57-6.32,2.15,14.48,14.69,15.08,24.29,20.09,1.07-14.99-1.71-30.07-10.24-31.4-1.43,3.94-3.91,7.27-7.29,9.79,1.55,3.5,5.4,4.51,6.81,7.85ZM124.28,113.42c6.96,2.8,29.05,4.64,37.17,3.36,1.36-2.87,4.16-4.96,6.23-7.82-1.22-1.83-2.32-3.5-2.99-4.5-4.88,0-9.13-.13-13.36.04-4.5.18-8.66-1.26-13.13-2.58-2.88,5.68-7.17,9.6-13.92,11.51ZM160.09,136.83c18.11-4.02,30.96-15.78,29.24-25.95-3.18.53-6.31,1.16-9.21,2.54-2.73,3.11-3.69,7.58-8.14,10.15.81-4.07,4.72-5.75,4.79-9.67-2.2-.89-4.48-1.82-6.97-2.83-8.22,6.79-6.73,16.62-9.71,25.77ZM370.21,239.68c11.74-1.77,15.03-11.68,20.52-20.11-8.21-2.98-15.92-4.42-24.38-2.56.02,5.37-4.35,8.55-7.11,14.11,7.76-2.23,13.84-6.34,21.14-4.97-4.98,3.27-11.45,2.92-16.44,6.54,2.11,2.36,4.13,4.61,6.26,7ZM92.32,392.9c9.16-5.31,14.77-12.57,19.26-20.85.61-1.12.55-2.67.59-4.03.11-3.79-1.71-6.06-5.49-6.82-7.08-1.43-12.03,2.34-12.63,10.28-.33,4.46-.24,8.87-3.1,12.1.45,3.07.81,5.58,1.36,9.31ZM54.19,395.27c-.85,3.26-1.61,5.89-2.21,8.55-.94,4.13.81,7.1,4.52,8.67,7.22,3.05,20.2-2.72,23.29-10.33-7.96-4.29-14.78-12.68-25.6-6.88ZM194.31,77.06c-10.71.12-15.01,6.81-10.16,15.27,3.17,5.53,7.05,6.73,12.75,3.86,2.27-1.14,4.66-2.17,6.68-3.68,4.17-3.11,4.38-9.56.47-12.3-2.98-2.08-6.43-3.02-9.74-3.16ZM317.35,241.01c1.37,5.29,5.02,8.96,9.02,12.39,4.68,4.01,10.21,4.42,15.91,3.31,3.98-.78,7.7-5.43,7.14-8.86-.74-4.45-4.35-5.06-8.08-5.48-6.09-.67-12.15-1.57-18.24-2.23-1.77-.19-3.7-.73-5.74.87ZM207.05,63.7c-.41-1.72-1.3-3.38-2.86-4.04-5-2.11-7.89-6.43-11.09-10.34-2.58-3.16-5.64-4.58-9.41-3.36-4.04,1.31-8.57,7.8-8.28,11.5,5.59,2.18,10.95,5,12.85,12.01,2.26-2.66,3.9-4.58,5.35-6.29,4.75-1.19,7.78,1.32,10.62,3.99q1.89-1.57,2.82-3.46ZM139.99,374.37c-14.86,2.4-27.7,14.06-24.87,22.38.92.96,2.05,1.65,3.89,1.83,1.53-4.99,5.76-7.65,9.76-10.59-2.45,4.3-6.11,7.85-7.65,12.93,11.57-1.27,15.85-7.36,18.88-26.55ZM180.04,44.58c-3.42-9.29-12.27-13.33-17.19-20.82-.24,8.75-6.1,16.38-4.02,25.2,3.5,3.31,7.7,4.97,12.45,6.52.51-7.09-5.03-11.7-6.24-17.75,3.65,3.93,6.24,8.42,8.31,13.88,2.48-2.61,4.45-4.68,6.69-7.03ZM183.61,97.09c-1.64-3.24-3.05-5.87-3.55-8.96-1.3-8-12.62-13.77-19.89-10.33-4.47,2.11-5.31,6.65-1.92,10.42,3.08,3.42,7.34,4.86,11.39,6.53,4.19,1.73,8.42,3.73,13.96,2.34ZM328.86,226.82c1.43,3.61,1.17,7.66,1.44,11.43,5.47,1.85,10.64,2.11,16.29,1.01,1.86-3.86,5.33-6.65,7.8-10.12-6.15-8.37-20.88-9.71-25.53-2.32ZM207.48,93.69c10.46,3.68,18.29-2.37,18.62-13.79.09-3.11.35-6.59-3.05-8.05-3.64-1.57-7.58-2.28-10.99,1.4.97,4.09-.19,7.66-3.29,10.44.52,3.49-.93,6.53-1.3,9.99ZM84.41,113.38c7.45,1.33,11.3,8.5,18.56,8.1,1.69-2.68,3.27-5.18,4.91-7.78-4.05-2.91-8.77.06-13.17-2.21,6.41-2.55,14,.52,19.67-6.03-4.36-1.42-6.62-4.24-9.3-6.69-8.44,2.34-15.18,6.8-20.67,14.6ZM397.16,347.23c-8.71.49-17.81-3.76-25.49,2.72-.44,4.05.26,7.18,4.13,9.2,3.45-1.69,6.33-5.14,11.45-5.23-3.35,3.12-7.46,4.07-9.97,7.37,1.23,1.47,2.31,2.75,3.25,3.88,12.34.24,11.86-11.13,16.62-17.94ZM168.7,72.97c-.98-4.8-.72-8.95,1.04-13.2-4.39-2.92-8.65-5.48-13.28-7.06-5.4,6.1-4.83,17.88,1.09,23.12,3.08-1.82,6.66-2.72,11.15-2.85ZM67.81,369c1.42-11.48,7.93-18.37,17.92-22.59-7.15-5.16-15.87-4.99-19.9-.23-3.95,4.68-3.3,16.97,1.98,22.82ZM357.06,227.24c6.93-10.58,7.05-10.92,4.96-13.62-3.9-5.03-11.2-6.59-18.23-3.81-1.04,2.72-2.11,5.54-3.34,8.77,6.43,1.46,12.21,3.44,16.62,8.66ZM180.7,81.42c6.73-7,6.9-12.63.68-18.05-2.48-2.16-5.46-4.14-8.78-2.34-3.37,1.83-3.07,5.38-2.66,8.66.79,6.35,6.13,8.54,10.76,11.73ZM124.35,152.12c6.48-7.33,8.75-15.4,7.07-23.7-1.09-5.39-4.75-8.11-11.33-7.71,2.81,10.1,1.9,20.57,4.26,31.41ZM166.72,97.03c.01,7.01,2.69,11.42,7.4,11.66,5.61.29,11.3.13,16.57-2.33,2.14-1,4.37-2,4.71-5.24-3.29-.34-6.28-1.53-9.34-2.78-6.48,3.02-12.68.23-19.35-1.3ZM195.81,106.38c4.44,4.61,9.4,5,14.45,3.44,3.52-1.09,7.17-2.79,6.56-7.65-6.42-7.19-8.84-7.66-17.99-3.41-.06,2.52-.32,5.22-3.01,7.62ZM52.65,392.83c-7.6-4.57-11.65-11.69-12.86-20.99-2.36,1.74-3.97,2.93-5.37,3.97-1.96,10.37,3.9,18.96,15.26,22.67,1.28-1.51,2.26-3.21,2.98-5.64ZM203.27,55.02c2.59,5.08,9.15,7.68,9.08,14.36,2.05.03,3.49-.29,4.68-1.26,4.47-8.53,3.5-14.54-2.76-17.51-5.02-2.38-8.52-1.02-10.99,4.41ZM135.98,96.37c9.01,5.54,24.82,6.17,26.88,1.21-.22-.26-.38-.6-.66-.75-.43-.24-.93-.5-1.4-.51-6.26-.07-11.54-2.18-15.73-7-1.96-2.26-4.47-2.1-7.08-.65-1.43,2.21-3,4.44-2.02,7.7ZM339.25,198.75c-6.72,4.71-11.33,10.2-13.29,18.2,2.52.7,2.59,3.36,4.13,4.68,10.16-3.63,13.85-12.41,9.16-22.89ZM382.23,368.46c-2.53,8.5,8.21,9.77,7.42,17.09,2.88-1.04,5.39-.93,7.39-2.45,2.39-6.22,1.71-9.34-3.15-13.6-3.88-3.4-8.02-3.04-11.66-1.04ZM309.9,228.71c1.09,5.6,4.09,8.22,10.02,8.98,3.18.41,6.34-.11,7.27-3.27,1.24-4.26-.55-7.97-4.03-10.58-10.19.14-10.7.33-13.25,4.88ZM374.06,275.87c-7.4,7.27,1.06,14.41-.46,22.57-.99-2.6-1.55-4.1-2.59-6.84-.23,7.45-.3,13.38,7.23,17.03-.51-11.47,4.26-22.8-4.18-32.75ZM101.43,166.95c7.66-1.95,11.43-11.94,7.66-20.66-2.9,3.85-2.44,8.81-4.91,13.51-.66-8.75,4.69-15.45,5.86-23.79-8.52,5.73-10.23,19.13-8.61,30.94ZM374.74,383.01c6.98-10.75,5.79-18.77-2.99-21.92-5.25,8.98-4.55,14.6,2.99,21.92ZM84.67,383.72c-1.55,1.04-.88,2.51-1.8,3.84-3.63-.32-5.48,2.2-6.43,5.69-1.85-1.22-.53-2.46-.93-3.9-1.72,2.02-3.96,2.08-6.42,1.94,2.19,2.36,4.25,4.59,6.74,6.13,3.2,1.98,6.85,2.39,10.13.09,3.68-2.58,4.24-6.48,3.37-10.54-.47-2.21-1.54-4.35-4.67-3.24ZM108.22,133.55c5.5-1.05,9.19-4.8,9.47-9.9.24-4.34-2.02-7.22-5.78-8.8-6.93,4.11-8.8,13.88-3.69,18.69ZM142.34,84.12c5.2,3.58,9.07,9.88,17.71,9.36-2.87-2.7-5.68-4.41-6.67-7.75-.96-3.2,1.82-6.32.04-9.37-6.92-1.96-11.79,1.4-11.08,7.77ZM131.88,98.34c-8.66,3.97-15.68,8.88-19.59,13.66,7.78,2.25,24.07-5.69,23.06-11.23-.68-1.32-1.82-2-3.48-2.42ZM370.35,253.84c-4.09,4.06-9.29,5.58-14.55,6.8q1.74,4.88,14.19,6.52c5.75-4.87,6-8.14.36-13.32ZM364.27,284.11c4.81-3.12,5.84-8.14,3.12-14.35-2.67-1.17-5.51-.96-8.26-.95-3.45,8.45-1.87,13.17,5.14,15.31ZM126.94,409.91c.11,11.27,4.3,15.52,16.59,17.16-2.44-8.72-9.29-12.85-16.59-17.16ZM298.19,255.36c7.23,7.75,20.39,10.13,24.35-.97-.61-1.58-1.33-3.08-3.46-3.26-5.37,7.91-13.36,3.48-20.88,4.23ZM282.72,255.85c10.05.78,11.09-.92,9.33-14.91-6.14.2-9.76,5.82-9.33,14.91ZM258.88,78.42c-1.61,2.68-4.33,4.06-5.48,7.45,6.06-.44,11.76,1.28,17.86-1.56-3.98-3.16-7.43-5.42-12.38-5.9ZM355.14,204.4c-2.55-5.21-6.54-6.73-12.62-4.84-.3,2.65.72,4.9,2.13,7.1,3.76.16,7.58,1.08,10.49-2.26ZM198.25,74.75c3.54,1.92,6.9,3.74,10.26,5.56,2.52-5.24,1.77-9.81-1.97-11.79-.81,1.42-1.62,2.84-2.4,4.21-1.09.2-2.12.28-3.07.59-.91.29-2.12-.07-2.82,1.42ZM220.01,104.8c5.97-2.33,7.37-5.58,5.15-11.69-2.72,1.62-5.4,3.21-8.55,5.08,1.94,1.85,2.35,4.17,3.4,6.61ZM386.43,383.43c-.26-2.52-1.12-4.22-3.57-4.87-4.09,1.1-5.3,4.25-5.64,8.06,1.47.78,2.86,1.51,4.18,2.21,2.84-1.03,3.15-4.02,5.03-5.41ZM102.27,126.75c-4.71.63-6.6,4.1-8.76,7.87,3.36.89,6.25,1.86,9.38-.37.09-2.38.61-4.85-.63-7.51ZM30.24,368.43c1.06,1.7,1.98,2.86,3.81,3.11,1.8-1.09,3.67-2.22,5.47-3.31.57-1.66,1.94-2.97,1.07-5.04-4.43-.4-7.08,2.62-10.35,5.24Z"/><path class="cls-1" d="M199.74,47.96c-.79-5.08,2.74-8.85,3.97-14.06,2.04,2.59,3.21.83,4.75-1.08-.12,3.85-2.91,5.55-3.8,8.35.88.45,1.68.85,3.18,1.61-3.82.74-6.65,2.01-8.21,5.08,0,0,.11.1.11.1Z"/></svg>